Merriweather35-BoldDisplayWide.ufo
<glyph name="exclam" format="2">
  <advance width="638.3204419889503"/>
  <unicode hex="0021"/>
  <outline>
    <contour>
      <point x="492.97237569060775" y="1784.9723756906078" type="line"/>
      <point x="145.34806629834253" y="1784.9723756906078" type="line"/>
      <point x="292.5414364640884" y="455.88950276243094" type="line"/>
      <point x="348.9889502762431" y="455.88950276243094" type="line"/>
    </contour>
    <contour>
      <point x="303.9226519337017" y="-17.657458563535926" type="curve" smooth="yes"/>
      <point x="410.24309392265195" y="-17.65745856353591"/>
      <point x="482.88950276243094" y="37.92265193370166"/>
      <point x="482.88950276243094" y="131.32044198895028" type="curve" smooth="yes"/>
      <point x="482.88950276243094" y="200.75690607734808"/>
      <point x="432.6243093922652" y="266.4696132596685"/>
      <point x="331.3314917127072" y="266.4696132596685" type="curve" smooth="yes"/>
      <point x="232.97237569060775" y="266.4696132596685"/>
      <point x="156.1546961325967" y="205.2707182320442"/>
      <point x="156.1546961325967" y="117.49171270718233" type="curve" smooth="yes"/>
      <point x="156.15469613259668" y="37.88397790055248"/>
      <point x="222.86740331491714" y="-17.657458563535897"/>
    </contour>
  </outline>
</glyph>
<glyph name="quotedbl" format="2">
  <advance width="1115.9944751381215"/>
  <unicode hex="0022"/>
  <outline>
    <contour>
      <point x="451.1767955801105" y="1671.5027624309391" type="line"/>
      <point x="203.2596685082873" y="1671.5027624309391" type="line"/>
      <point x="304.1325966850829" y="973.8066298342542" type="line"/>
      <point x="348.02762430939225" y="973.8066298342542" type="line"/>
    </contour>
    <contour>
      <point x="916.182320441989" y="1671.5027624309391" type="line"/>
      <point x="668.0939226519338" y="1671.5027624309391" type="line"/>
      <point x="768.414364640884" y="973.8066298342542" type="line"/>
      <point x="813.585635359116" y="973.8066298342542" type="line"/>
    </contour>
  </outline>
</glyph>
<glyph name="numbersign" format="2">
  <advance width="1557.5801104972377"/>
  <unicode hex="0023"/>
  <outline>
    <contour>
      <point x="111.5635359116022" y="405.1436464088398" type="line"/>
      <point x="366.9447513812155" y="405.1436464088398" type="line"/>
      <point x="315.77348066298345" y="0.0" type="line"/>
      <point x="528.2154696132596" y="0.0" type="line"/>
      <point x="577.3867403314918" y="405.1436464088398" type="line"/>
      <point x="937.2486187845304" y="405.1436464088398" type="line"/>
      <point x="890.8011049723757" y="0.0" type="line"/>
      <point x="1099.9668508287293" y="0.0" type="line"/>
      <point x="1147.8618784530386" y="405.1436464088398" type="line"/>
      <point x="1449.375690607735" y="405.1436464088398" type="line"/>
      <point x="1448.6519337016575" y="554.1878453038674" type="line"/>
      <point x="1169.7182320441989" y="554.1878453038674" type="line"/>
      <point x="1208.8232044198894" y="921.6408839779006" type="line"/>
      <point x="1497.6519337016575" y="921.6408839779006" type="line"/>
      <point x="1497.6519337016575" y="1069.2375690607735" type="line"/>
      <point x="1233.022099447514" y="1069.2375690607735" type="line"/>
      <point x="1286.6408839779006" y="1486.0" type="line"/>
      <point x="1076.0276243093922" y="1486.0" type="line"/>
      <point x="1024.132596685083" y="1069.2375690607735" type="line"/>
      <point x="666.2707182320441" y="1069.2375690607735" type="line"/>
      <point x="717.4419889502763" y="1486.0" type="line"/>
      <point x="507.72375690607737" y="1486.0" type="line"/>
      <point x="456.38121546961327" y="1069.2375690607735" type="line"/>
      <point x="163.07734806629833" y="1069.2375690607735" type="line"/>
      <point x="163.07734806629833" y="921.6408839779006" type="line"/>
      <point x="431.4585635359116" y="921.6408839779006" type="line"/>
      <point x="391.0773480662983" y="554.1878453038674" type="line"/>
      <point x="110.83977900552486" y="554.1878453038674" type="line"/>
    </contour>
    <contour>
      <point x="998.4861878453039" y="921.6408839779006" type="line"/>
      <point x="953.5524861878454" y="554.1878453038674" type="line"/>
      <point x="599.243093922652" y="554.1878453038674" type="line"/>
      <point x="640.6243093922652" y="921.6408839779006" type="line"/>
    </contour>
  </outline>
</glyph>
<glyph name="dollar" format="2">
  <advance width="1404.011049723757"/>
  <unicode hex="0024"/>
  <outline>
    <contour>
      <point x="178.51381215469613" y="65.82872928176795" type="line"/>
      <point x="245.37016574585635" y="54.751381215469614"/>
      <point x="427.9889502762431" y="-15.237569060773481"/>
      <point x="661.2707182320441" y="-24.34254143646409" type="curve"/>
      <point x="661.4419889502763" y="-257.7900552486188" type="line"/>
      <point x="761.9171270718232" y="-257.7900552486188" type="line"/>
      <point x="762.4696132596686" y="-21.447513812154696" type="line"/>
      <point x="1062.1546961325967" y="11.751381215469614"/>
      <point x="1258.353591160221" y="169.5414364640884"/>
      <point x="1258.353591160221" y="411.49171270718233" type="curve" smooth="yes"/>
      <point x="1258.353591160221" y="651.0055248618785"/>
      <point x="1065.2375690607735" y="740.1878453038674"/>
      <point x="835.9337016574586" y="865.0055248618785" type="curve" smooth="yes"/>
      <point x="647.8563535911603" y="966.4530386740331"/>
      <point x="515.6629834254144" y="1044.5580110497237"/>
      <point x="515.6629834254144" y="1205.292817679558" type="curve" smooth="yes"/>
      <point x="515.6629834254144" y="1335.7237569060774"/>
      <point x="601.9337016574586" y="1447.3812154696132"/>
      <point x="750.5745856353591" y="1447.3812154696132" type="curve" smooth="yes"/>
      <point x="819.0718232044198" y="1447.657458563536"/>
      <point x="912.5303867403316" y="1423.1049723756905"/>
      <point x="941.3701657458564" y="1392.4475138121547" type="curve"/>
      <point x="983.3314917127071" y="1095.524861878453" type="line"/>
      <point x="1154.3259668508288" y="1095.524861878453" type="line"/>
      <point x="1174.4585635359117" y="1430.342541436464" type="line"/>
      <point x="1112.6685082872928" y="1440.0386740331492"/>
      <point x="927.1491712707182" y="1501.2375690607735"/>
      <point x="773.585635359116" y="1503.4475138121547" type="curve"/>
      <point x="773.585635359116" y="1733.0276243093922" type="line"/>
      <point x="673.0055248618785" y="1733.0276243093922" type="line"/>
      <point x="673.0055248618785" y="1502.8950276243095" type="line"/>
      <point x="382.02762430939225" y="1477.0662983425414"/>
      <point x="198.96132596685084" y="1336.6961325966852"/>
      <point x="198.96132596685084" y="1100.0220994475137" type="curve" smooth="yes"/>
      <point x="198.96132596685084" y="837.3480662983425"/>
      <point x="429.1988950276243" y="722.4530386740331"/>
      <point x="596.7348066298342" y="638.0994475138122" type="curve" smooth="yes"/>
      <point x="798.9613259668508" y="535.9005524861878"/>
      <point x="929.8618784530387" y="449.42541436464086"/>
      <point x="929.8618784530387" y="288.5745856353591" type="curve" smooth="yes"/>
      <point x="929.8618784530387" y="146.6574585635359"/>
      <point x="827.5911602209944" y="35.34254143646409"/>
      <point x="663.8066298342542" y="35.34254143646409" type="curve" smooth="yes"/>
      <point x="583.0994475138122" y="35.34254143646409"/>
      <point x="457.29834254143645" y="62.10497237569061"/>
      <point x="418.3922651933702" y="106.65745856353591" type="curve"/>
      <point x="370.12707182320446" y="428.6077348066298" type="line"/>
      <point x="203.0939226519337" y="428.6077348066298" type="line"/>
    </contour>
  </outline>
</glyph>
<glyph name="percent" format="2">
  <advance width="2145.8839779005525"/>
  <unicode hex="0025"/>
  <outline>
    <contour>
      <point x="692.6132596685084" y="0.0" type="line"/>
      <point x="785.7955801104972" y="0.0" type="line"/>
      <point x="1454.1933701657458" y="1502.0" type="line"/>
      <point x="1360.7348066298343" y="1501.7237569060774" type="line"/>
    </contour>
    <contour>
      <point x="493.56906077348066" y="630.6298342541436" type="curve" smooth="yes"/>
      <point x="717.7292817679559" y="630.6298342541436"/>
      <point x="914.243093922652" y="780.9723756906077"/>
      <point x="914.243093922652" y="1070.8563535911603" type="curve" smooth="yes"/>
      <point x="914.243093922652" y="1291.513812154696"/>
      <point x="806.6906077348067" y="1487.1602209944751"/>
      <point x="533.3591160220994" y="1487.1602209944751" type="curve" smooth="yes"/>
      <point x="294.3425414364641" y="1487.1602209944751"/>
      <point x="104.72375690607736" y="1329.9226519337017"/>
      <point x="104.72375690607736" y="1053.7900552486187" type="curve" smooth="yes"/>
      <point x="104.72375690607736" y="824.3149171270718"/>
      <point x="240.55248618784532" y="630.6298342541436"/>
    </contour>
    <contour>
      <point x="507.7403314917127" y="683.1049723756906" type="curve" smooth="yes"/>
      <point x="399.3370165745856" y="683.1049723756906"/>
      <point x="346.4585635359116" y="809.8508287292817"/>
      <point x="346.4585635359116" y="1057.4475138121547" type="curve" smooth="yes"/>
      <point x="346.4585635359116" y="1314.292817679558"/>
      <point x="403.09944751381215" y="1436.132596685083"/>
      <point x="511.6740331491713" y="1436.132596685083" type="curve" smooth="yes"/>
      <point x="619.5248618784531" y="1436.132596685083"/>
      <point x="672.7845303867404" y="1314.9502762430939"/>
      <point x="672.7845303867404" y="1059.9613259668508" type="curve" smooth="yes"/>
      <point x="672.7845303867404" y="803.6685082872929"/>
      <point x="615.5911602209944" y="683.1049723756906"/>
    </contour>
    <contour>
      <point x="1617.9337016574586" y="28.011049723756905" type="curve" smooth="yes"/>
      <point x="1842.0939226519338" y="28.011049723756905"/>
      <point x="2038.6077348066299" y="178.353591160221"/>
      <point x="2038.6077348066299" y="468.23756906077347" type="curve" smooth="yes"/>
      <point x="2038.6077348066299" y="688.8950276243094"/>
      <point x="1931.0552486187846" y="884.5414364640884"/>
      <point x="1657.7237569060774" y="884.5414364640884" type="curve" smooth="yes"/>
      <point x="1418.707182320442" y="884.5414364640884"/>
      <point x="1229.0883977900553" y="727.3038674033149"/>
      <point x="1229.0883977900553" y="451.17127071823205" type="curve" smooth="yes"/>
      <point x="1229.0883977900553" y="221.6961325966851"/>
      <point x="1364.9171270718232" y="28.011049723756905"/>
    </contour>
    <contour>
      <point x="1632.1049723756905" y="80.48618784530387" type="curve" smooth="yes"/>
      <point x="1523.7016574585637" y="80.48618784530387"/>
      <point x="1470.8232044198894" y="207.23204419889504"/>
      <point x="1470.8232044198894" y="454.82872928176795" type="curve" smooth="yes"/>
      <point x="1470.8232044198894" y="711.6740331491712"/>
      <point x="1527.46408839779" y="833.5138121546961"/>
      <point x="1636.0386740331492" y="833.5138121546961" type="curve" smooth="yes"/>
      <point x="1743.889502762431" y="833.5138121546961"/>
      <point x="1797.1491712707182" y="712.3314917127071"/>
      <point x="1797.1491712707182" y="457.3425414364641" type="curve" smooth="yes"/>
      <point x="1797.1491712707182" y="201.04972375690608"/>
      <point x="1739.9558011049724" y="80.48618784530387"/>
    </contour>
  </outline>
</glyph>
<glyph name="ampersand" format="2">
  <advance width="1603.7182320441989"/>
  <unicode hex="0026"/>
  <outline>
    <contour>
      <point x="1568.0220994475137" y="823.0276243093923" type="line"/>
      <point x="1133.7182320441989" y="823.0276243093923" type="line"/>
      <point x="1133.7182320441989" y="775.0276243093923" type="line"/>
      <point x="1262.0718232044198" y="740.5138121546961" type="line"/>
      <point x="1288.375690607735" y="618.5414364640884"/>
      <point x="1266.756906077348" y="451.03314917127074"/>
      <point x="1182.2983425414366" y="325.16574585635357" type="curve"/>
      <point x="1088.171270718232" y="418.91160220994476"/>
      <point x="946.0718232044198" y="589.5635359116022"/>
      <point x="776.828729281768" y="795.8066298342542" type="curve"/>
      <point x="977.939226519337" y="899.7348066298342"/>
      <point x="1150.1160220994475" y="1007.5359116022099"/>
      <point x="1150.1160220994475" y="1197.524861878453" type="curve" smooth="yes"/>
      <point x="1150.1160220994475" y="1379.828729281768"/>
      <point x="990.9281767955802" y="1504.7237569060774"/>
      <point x="740.0165745856353" y="1504.7237569060774" type="curve" smooth="yes"/>
      <point x="457.48618784530385" y="1504.7237569060774"/>
      <point x="247.43093922651934" y="1346.828729281768"/>
      <point x="247.43093922651934" y="1128.4972375690609" type="curve" smooth="yes"/>
      <point x="247.43093922651934" y="970.9558011049724"/>
      <point x="356.62983425414365" y="818.7845303867404"/>
      <point x="431.6795580110497" y="723.0" type="curve"/>
      <point x="213.51933701657458" y="638.4088397790056"/>
      <point x="84.48066298342542" y="516.5524861878453"/>
      <point x="84.48066298342542" y="344.17127071823205" type="curve" smooth="yes"/>
      <point x="84.48066298342542" y="138.8950276243094"/>
      <point x="269.30939226519337" y="-20.34254143646409"/>
      <point x="604.0994475138122" y="-20.34254143646409" type="curve" smooth="yes"/>
      <point x="758.5138121546961" y="-20.34254143646409"/>
      <point x="907.0662983425415" y="15.988950276243095"/>
      <point x="999.0883977900553" y="92.35359116022099" type="curve"/>
      <point x="1109.2486187845304" y="21.80110497237569"/>
      <point x="1210.171270718232" y="-13.723756906077348"/>
      <point x="1330.7127071823204" y="-13.723756906077348" type="curve" smooth="yes"/>
      <point x="1409.5580110497237" y="-13.723756906077348"/>
      <point x="1501.8397790055249" y="0.8950276243093924"/>
      <point x="1516.7734806629835" y="15.408839779005525" type="curve"/>
      <point x="1516.7734806629835" y="58.408839779005525" type="line"/>
      <point x="1430.1546961325967" y="70.71270718232044"/>
      <point x="1297.414364640884" y="196.54696132596686"/>
      <point x="1227.403314917127" y="273.2044198895028" type="curve"/>
      <point x="1337.4696132596684" y="383.1767955801105"/>
      <point x="1434.060773480663" y="547.9889502762431"/>
      <point x="1433.232044198895" y="740.5138121546961" type="curve"/>
      <point x="1568.0220994475137" y="775.0276243093923" type="line"/>
    </contour>
    <contour>
      <point x="621.6795580110497" y="909.0607734806631" type="curve" smooth="yes"/>
      <point x="562.5635359116022" y="991.4364640883978"/>
      <point x="556.7348066298342" y="1092.85635359116"/>
      <point x="623.243093922652" y="1142.5801104972375" type="curve" smooth="yes"/>
      <point x="694.1988950276243" y="1183.7403314917128"/>
      <point x="740.3535911602211" y="1136.85635359116"/>
      <point x="780.9613259668508" y="1062.7624309392265" type="curve" smooth="yes"/>
      <point x="813.8342541436464" y="906.5524861878453"/>
      <point x="842.4198895027624" y="765.7734806629835"/>
      <point x="830.4309392265193" y="676.9613259668508" type="curve"/>
      <point x="755.4585635359116" y="715.1049723756907"/>
      <point x="654.5524861878453" y="794.0497237569061"/>
    </contour>
    <contour>
      <point x="650.5082872928177" y="406.59116022099454" type="curve" smooth="yes"/>
      <point x="506.4806629834254" y="447.7513812154697"/>
      <point x="452.939226519337" y="552.7513812154696"/>
      <point x="494.3756906077348" y="696.0552486187844" type="curve" smooth="yes"/>
      <point x="540.5082872928176" y="764.0883977900552"/>
      <point x="571.3093922651933" y="797.3812154696133"/>
      <point x="600.0220994475138" y="795.353591160221" type="curve"/>
      <point x="730.1657458563536" y="580.2707182320441"/>
      <point x="805.2596685082873" y="450.32044198895017"/>
      <point x="843.9834254143647" y="315.3591160220995" type="curve"/>
      <point x="779.1049723756906" y="337.90055248618785"/>
      <point x="687.4198895027624" y="368.7458563535911"/>
    </contour>
  </outline>
</glyph>
<glyph name="asterisk" format="2">
  <advance width="1099.5469613259668"/>
  <unicode hex="002A"/>
  <outline>
    <contour>
      <point x="314.8232044198895" y="1113.243093922652" type="line"/>
      <point x="180.70718232044197" y="1014.2872928176796" type="line"/>
      <point x="250.90055248618785" y="810.1878453038673" type="line"/>
      <point x="401.5082872928177" y="895.5911602209944" type="line"/>
      <point x="541.4198895027624" y="1106.756906077348" type="line"/>
      <point x="495.49723756906076" y="946.0552486187845" type="line"/>
      <point x="513.6850828729282" y="779.8508287292817" type="line"/>
      <point x="725.3425414364641" y="738.6906077348066" type="line"/>
      <point x="726.8232044198895" y="912.1049723756906" type="line"/>
      <point x="613.3756906077348" y="1138.8011049723757" type="line"/>
      <point x="729.8618784530387" y="1018.3370165745856" type="line"/>
      <point x="882.6132596685084" y="951.0883977900553" type="line"/>
      <point x="1024.353591160221" y="1113.7513812154696" type="line"/>
      <point x="875.2265193370166" y="1201.7624309392265" type="line"/>
      <point x="621.8674033149172" y="1217.292817679558" type="line"/>
      <point x="784.7237569060774" y="1257.8066298342542" type="line"/>
      <point x="918.8397790055249" y="1356.7624309392265" type="line"/>
      <point x="848.646408839779" y="1560.8618784530386" type="line"/>
      <point x="698.0386740331492" y="1475.4585635359117" type="line"/>
      <point x="558.1270718232045" y="1264.292817679558" type="line"/>
      <point x="604.0497237569061" y="1424.9944751381215" type="line"/>
      <point x="585.8618784530387" y="1591.1988950276243" type="line"/>
      <point x="374.20441988950273" y="1632.3591160220994" type="line"/>
      <point x="372.72375690607737" y="1458.9447513812154" type="line"/>
      <point x="486.171270718232" y="1232.2486187845304" type="line"/>
      <point x="369.6850828729282" y="1352.7127071823204" type="line"/>
      <point x="216.93370165745858" y="1419.9613259668508" type="line"/>
      <point x="75.19337016574588" y="1257.2983425414366" type="line"/>
      <point x="224.32044198895028" y="1169.2872928176796" type="line"/>
      <point x="477.6795580110497" y="1153.756906077348" type="line"/>
    </contour>
  </outline>
</glyph>
<glyph name="period" format="2">
  <advance width="476.2596685082873"/>
  <unicode hex="002E"/>
  <outline>
    <contour>
      <point x="222.5303867403315" y="-17.65745856353591" type="curve" smooth="yes"/>
      <point x="329.95580110497235" y="-17.65745856353591"/>
      <point x="401.49723756906076" y="37.92265193370166"/>
      <point x="401.49723756906076" y="131.32044198895028" type="curve" smooth="yes"/>
      <point x="401.49723756906076" y="200.75690607734808"/>
      <point x="352.3370165745856" y="266.4696132596685"/>
      <point x="249.939226519337" y="266.4696132596685" type="curve" smooth="yes"/>
      <point x="150.47513812154696" y="266.4696132596685"/>
      <point x="74.76243093922652" y="205.2707182320442"/>
      <point x="74.76243093922652" y="117.49171270718233" type="curve" smooth="yes"/>
      <point x="74.76243093922652" y="37.88397790055249"/>
      <point x="140.37016574585635" y="-17.65745856353591"/>
    </contour>
  </outline>
</glyph>
<glyph name="slash" format="2">
  <advance width="752.7292817679559"/>
  <unicode hex="002F"/>
  <outline>
    <contour>
      <point x="709.756906077348" y="1562.0" type="line"/>
      <point x="617.1381215469613" y="1562.0" type="line"/>
      <point x="42.972375690607734" y="-354.0" type="line"/>
      <point x="137.03867403314916" y="-354.0" type="line"/>
    </contour>
  </outline>
</glyph>
<glyph name="zero" format="2">
  <advance width="1452.5027624309391"/>
  <unicode hex="0030"/>
  <outline>
    <contour>
      <point x="698.5193370165746" y="-20.171270718232044" type="curve" smooth="yes"/>
      <point x="1092.0773480662983" y="-20.171270718232044"/>
      <point x="1374.4364640883978" y="262.6685082872928"/>
      <point x="1375.2651933701657" y="771.8839779005525" type="curve" smooth="yes"/>
      <point x="1376.0939226519338" y="1242.624309392265"/>
      <point x="1135.243093922652" y="1504.7237569060774"/>
      <point x="755.9171270718232" y="1504.7237569060774" type="curve" smooth="yes"/>
      <point x="383.8729281767956" y="1504.7237569060774"/>
      <point x="78.79005524861878" y="1231.0662983425414"/>
      <point x="77.23756906077348" y="718.0220994475138" type="curve" smooth="yes"/>
      <point x="75.68508287292818" y="253.49171270718233"/>
      <point x="315.5745856353591" y="-20.171270718232044"/>
    </contour>
    <contour>
      <point x="727.9558011049724" y="34.89502762430939" type="curve" smooth="yes"/>
      <point x="536.1767955801105" y="34.89502762430939"/>
      <point x="441.5193370165746" y="233.38121546961327"/>
      <point x="441.5193370165746" y="734.707182320442" type="curve" smooth="yes"/>
      <point x="441.5193370165746" y="1257.9944751381215"/>
      <point x="549.4640883977901" y="1446.0386740331492"/>
      <point x="727.5469613259668" y="1446.0386740331492" type="curve" smooth="yes"/>
      <point x="915.3646408839779" y="1446.0386740331492"/>
      <point x="1010.9834254143647" y="1285.7237569060774"/>
      <point x="1010.9834254143647" y="741.4475138121547" type="curve" smooth="yes"/>
      <point x="1010.9834254143647" y="245.96685082872926"/>
      <point x="924.6850828729282" y="34.89502762430939"/>
    </contour>
  </outline>
</glyph>
<glyph name="one" format="2">
  <advance width="935.3646408839779"/>
  <unicode hex="0031"/>
  <outline>
    <contour>
      <point x="323.69060773480663" y="70.61878453038673" type="line"/>
      <point x="120.60220994475138" y="37.447513812154696" type="line"/>
      <point x="120.60220994475138" y="0.0" type="line"/>
      <point x="868.6795580110497" y="0.0" type="line"/>
      <point x="868.6795580110497" y="37.447513812154696" type="line"/>
      <point x="662.7348066298342" y="70.61878453038673" type="line"/>
      <point x="662.7348066298342" y="1485.4475138121547" type="line"/>
      <point x="491.70165745856355" y="1505.4475138121547" type="line"/>
      <point x="479.56906077348066" y="1505.4475138121547" type="line"/>
      <point x="401.43646408839777" y="1409.513812154696"/>
      <point x="246.32044198895028" y="1290.8397790055249"/>
      <point x="56.76243093922652" y="1253.6022099447514" type="curve"/>
      <point x="66.48618784530387" y="1197.8508287292818" type="line"/>
      <point x="159.75690607734805" y="1203.585635359116"/>
      <point x="273.1933701657459" y="1236.375690607735"/>
      <point x="322.30939226519337" y="1255.9668508287293" type="curve"/>
    </contour>
  </outline>
</glyph>
<glyph name="two" format="2">
  <advance width="1234.8618784530386"/>
  <unicode hex="0032"/>
  <outline>
    <contour>
      <point x="20.93370165745857" y="151.07734806629836" type="curve"/>
      <point x="77.80662983425415" y="0.0" type="line"/>
      <point x="1081.1878453038673" y="0.0" type="line"/>
      <point x="1171.0718232044198" y="410.98342541436466" type="line"/>
      <point x="1102.7955801104972" y="431.3922651933702" type="line"/>
      <point x="1007.0994475138122" y="278.0662983425415" type="line"/>
      <point x="230.81767955801104" y="213.18232044198896" type="line"/>
      <point x="660.8508287292817" y="460.878453038674"/>
      <point x="1060.0331491712707" y="717.1933701657458"/>
      <point x="1060.0331491712707" y="1115.4088397790056" type="curve" smooth="yes"/>
      <point x="1060.0331491712707" y="1314.7845303867402"/>
      <point x="919.2375690607735" y="1503.4475138121547"/>
      <point x="602.5580110497237" y="1503.4475138121547" type="curve" smooth="yes"/>
      <point x="343.1160220994475" y="1503.4475138121547"/>
      <point x="156.11602209944752" y="1350.6519337016575"/>
      <point x="62.89502762430939" y="1230.0662983425414" type="curve"/>
      <point x="100.10497237569061" y="1183.7624309392265" type="line"/>
      <point x="199.28729281767954" y="1277.2707182320441"/>
      <point x="338.36464088397787" y="1330.9005524861877"/>
      <point x="434.0055248618784" y="1330.9005524861877" type="curve" smooth="yes"/>
      <point x="581.5690607734807" y="1330.9005524861877"/>
      <point x="695.0939226519337" y="1246.0607734806629"/>
      <point x="699.4364640883978" y="1050.6022099447514" type="curve" smooth="yes"/>
      <point x="707.3977900552486" y="691.8674033149172"/>
      <point x="413.76243093922653" y="360.2209944751381"/>
    </contour>
  </outline>
</glyph>
<glyph name="three" format="2">
  <advance width="1179.1160220994475"/>
  <unicode hex="0033"/>
  <outline>
    <contour>
      <point x="438.1767955801105" y="-33.96132596685083" type="curve" smooth="yes"/>
      <point x="802.292817679558" y="-26.933701657458563"/>
      <point x="1121.9723756906078" y="151.8950276243094"/>
      <point x="1121.9723756906078" y="433.98342541436466" type="curve" smooth="yes"/>
      <point x="1121.9723756906078" y="730.2817679558011"/>
      <point x="767.2486187845304" y="778.3093922651933"/>
      <point x="506.8066298342541" y="742.8508287292817" type="curve"/>
      <point x="714.7403314917127" y="787.6243093922652"/>
      <point x="1039.867403314917" y="920.8232044198895"/>
      <point x="1039.867403314917" y="1197.1436464088397" type="curve" smooth="yes"/>
      <point x="1039.867403314917" y="1390.2872928176796"/>
      <point x="840.1049723756906" y="1502.7237569060774"/>
      <point x="581.9834254143647" y="1502.7237569060774" type="curve" smooth="yes"/>
      <point x="336.4640883977901" y="1502.7237569060774"/>
      <point x="159.70165745856355" y="1404.3812154696132"/>
      <point x="49.027624309392266" y="1314.6298342541436" type="curve"/>
      <point x="92.95027624309392" y="1263.3922651933701" type="line"/>
      <point x="190.05524861878453" y="1326.0883977900553"/>
      <point x="281.9060773480663" y="1365.9171270718232"/>
      <point x="378.0220994475138" y="1366.4696132596684" type="curve" smooth="yes"/>
      <point x="541.8121546961326" y="1367.2983425414366"/>
      <point x="647.5580110497237" y="1296.6795580110497"/>
      <point x="647.5580110497237" y="1148.3370165745857" type="curve" smooth="yes"/>
      <point x="647.5580110497237" y="1026.6298342541436"/>
      <point x="580.1160220994475" y="886.9060773480663"/>
      <point x="402.8839779005525" y="818.5911602209944" type="curve" smooth="yes"/>
      <point x="350.0939226519337" y="798.2486187845304"/>
      <point x="306.121546961326" y="783.5248618784531"/>
      <point x="248.81767955801104" y="769.5248618784531" type="curve"/>
      <point x="271.71270718232046" y="695.3922651933701" type="line"/>
      <point x="305.71270718232046" y="701.4972375690608"/>
      <point x="367.27624309392263" y="717.0883977900553"/>
      <point x="401.3149171270718" y="724.4696132596684" type="curve"/>
      <point x="656.9281767955802" y="726.6519337016574"/>
      <point x="710.121546961326" y="577.5745856353591"/>
      <point x="710.6740331491712" y="439.6022099447514" type="curve" smooth="yes"/>
      <point x="711.5027624309392" y="244.3314917127072"/>
      <point x="587.2099447513813" y="63.39779005524862"/>
      <point x="291.4530386740331" y="57.5414364640884" type="curve" smooth="yes"/>
      <point x="212.87292817679557" y="55.646408839779006"/>
      <point x="124.01657458563535" y="78.05524861878453"/>
      <point x="59.54143646408839" y="96.95027624309392" type="curve"/>
      <point x="47.96132596685082" y="30.883977900552487" type="line"/>
      <point x="108.81767955801105" y="-0.8674033149171265"/>
      <point x="289.878453038674" y="-38.027624309392266"/>
    </contour>
  </outline>
</glyph>
<glyph name="four" format="2">
  <advance width="1291.745856353591"/>
  <unicode hex="0034"/>
  <outline>
    <contour>
      <point x="704.8121546961326" y="0.0" type="line"/>
      <point x="1026.8950276243095" y="0.0" type="line"/>
      <point x="1026.8950276243095" y="299.56353591160223" type="line"/>
      <point x="1247.2707182320441" y="299.56353591160223" type="line"/>
      <point x="1246.9944751381215" y="435.10497237569064" type="line"/>
      <point x="1025.8950276243095" y="423.17127071823205" type="line"/>
      <point x="1026.171270718232" y="863.4088397790056" type="line"/>
      <point x="725.0773480662983" y="835.4861878453039" type="line"/>
      <point x="705.9834254143647" y="393.28729281767954" type="line"/>
      <point x="180.19337016574588" y="352.2209944751381" type="line"/>
      <point x="412.29834254143645" y="676.9060773480662" type="line"/>
      <point x="849.5745856353591" y="1363.9281767955802" type="line"/>
      <point x="588.9281767955802" y="1496.8563535911603" type="line"/>
      <point x="494.8618784530387" y="1496.8563535911603" type="line"/>
      <point x="361.0220994475138" y="1199.0441988950276"/>
      <point x="172.0441988950276" y="759.3149171270718"/>
      <point x="-11.97790055248619" y="430.9502762430939" type="curve"/>
      <point x="57.696132596685075" y="299.56353591160223" type="line"/>
      <point x="704.8121546961326" y="299.56353591160223" type="line"/>
    </contour>
  </outline>
</glyph>
<glyph name="five" format="2">
  <advance width="1209.8397790055249"/>
  <unicode hex="0035"/>
  <outline>
    <contour>
      <point x="92.59116022099447" y="63.19889502762431" type="curve"/>
      <point x="93.86740331491711" y="1.4751381215469621" type="line"/>
      <point x="170.81767955801104" y="-26.171270718232044"/>
      <point x="310.2209944751381" y="-33.96132596685083"/>
      <point x="384.0662983425415" y="-31.790055248618785" type="curve" smooth="yes"/>
      <point x="800.2541436464088" y="-22.38121546961326"/>
      <point x="1127.8397790055249" y="215.75690607734805"/>
      <point x="1127.8397790055249" y="540.1049723756906" type="curve" smooth="yes"/>
      <point x="1127.8397790055249" y="795.0441988950276"/>
      <point x="972.9281767955802" y="933.6187845303867"/>
      <point x="672.9558011049724" y="933.6187845303867" type="curve" smooth="yes"/>
      <point x="509.5469613259669" y="933.6187845303867"/>
      <point x="286.16022099447514" y="849.0773480662983"/>
      <point x="174.60773480662982" y="738.9447513812155" type="curve"/>
      <point x="310.4475138121547" y="1235.0939226519338" type="line"/>
      <point x="1034.2596685082874" y="1235.0939226519338" type="line"/>
      <point x="1079.011049723757" y="1524.0" type="line"/>
      <point x="982.4861878453039" y="1524.0" type="line"/>
      <point x="954.6961325966851" y="1485.7237569060774" type="line"/>
      <point x="203.79005524861878" y="1485.7237569060774" type="line"/>
      <point x="97.10497237569061" y="739.4972375690608" type="line"/>
      <point x="171.1988950276243" y="697.2596685082873" type="line"/>
      <point x="265.37016574585635" y="751.2209944751381"/>
      <point x="374.0939226519337" y="772.8232044198895"/>
      <point x="492.48618784530385" y="772.8232044198895" type="curve" smooth="yes"/>
      <point x="678.3922651933701" y="772.8232044198895"/>
      <point x="779.5469613259669" y="637.243093922652"/>
      <point x="779.5469613259669" y="469.5745856353591" type="curve" smooth="yes"/>
      <point x="779.5469613259669" y="214.0"/>
      <point x="578.7127071823204" y="55.92265193370166"/>
      <point x="311.9171270718232" y="49.408839779005525" type="curve" smooth="yes"/>
      <point x="225.49171270718233" y="46.51381215469613"/>
      <point x="147.3038674033149" y="52.408839779005525"/>
    </contour>
  </outline>
</glyph>
<glyph name="six" format="2">
  <advance width="1298.243093922652"/>
  <unicode hex="0036"/>
  <outline>
    <contour>
      <point x="654.5966850828729" y="-34.68508287292818" type="curve" smooth="yes"/>
      <point x="979.1325966850828" y="-34.96132596685083"/>
      <point x="1225.6132596685084" y="182.34806629834253"/>
      <point x="1225.6132596685084" y="514.0386740331492" type="curve" smooth="yes"/>
      <point x="1225.6132596685084" y="807.8674033149172"/>
      <point x="1036.1657458563536" y="949.2209944751381"/>
      <point x="812.8011049723757" y="949.2209944751381" type="curve" smooth="yes"/>
      <point x="674.6961325966851" y="949.2209944751381"/>
      <point x="523.3812154696133" y="887.6022099447514"/>
      <point x="435.0276243093923" y="747.2486187845304" type="curve"/>
      <point x="471.17127071823205" y="1040.9558011049724"/>
      <point x="618.8232044198895" y="1371.9447513812154"/>
      <point x="1005.5966850828729" y="1467.7182320441989" type="curve"/>
      <point x="975.7016574585635" y="1524.9558011049724" type="line"/>
      <point x="471.4640883977901" y="1485.4088397790056"/>
      <point x="85.52486187845304" y="1069.7513812154696"/>
      <point x="85.52486187845304" y="596.7624309392265" type="curve" smooth="yes"/>
      <point x="85.52486187845304" y="270.6132596685083"/>
      <point x="280.01657458563534" y="-34.408839779005525"/>
    </contour>
    <contour>
      <point x="659.9613259668508" y="816.3591160220994" type="curve" smooth="yes"/>
      <point x="817.9668508287293" y="815.8066298342542"/>
      <point x="881.4917127071823" y="624.0441988950276"/>
      <point x="881.4917127071823" y="427.5193370165746" type="curve" smooth="yes"/>
      <point x="881.4917127071823" y="226.43093922651934"/>
      <point x="813.3756906077348" y="24.790055248618785"/>
      <point x="653.8453038674033" y="24.790055248618785" type="curve" smooth="yes"/>
      <point x="495.475138121547" y="24.790055248618785"/>
      <point x="427.7513812154696" y="236.0110497237569"/>
      <point x="427.7513812154696" y="518.707182320442" type="curve" smooth="yes"/>
      <point x="427.7513812154696" y="596.878453038674"/>
      <point x="430.9226519337017" y="660.1270718232045"/>
      <point x="433.64640883977904" y="697.6685082872929" type="curve"/>
      <point x="475.1436464088398" y="749.3093922651933"/>
      <point x="563.414364640884" y="816.6353591160221"/>
    </contour>
  </outline>
</glyph>
<glyph name="seven" format="2">
  <advance width="1134.5690607734807"/>
  <unicode hex="0037"/>
  <outline>
    <contour>
      <point x="665.1160220994475" y="-0.5524861878453038" type="line"/>
      <point x="1142.4696132596684" y="1436.9337016574586" type="line"/>
      <point x="1097.060773480663" y="1486.0" type="line"/>
      <point x="104.93370165745856" y="1486.0" type="line"/>
      <point x="44.83977900552486" y="1035.0441988950276" type="line"/>
      <point x="112.27624309392264" y="1021.2541436464088" type="line"/>
      <point x="194.82872928176795" y="1220.2762430939226" type="line"/>
      <point x="1009.939226519337" y="1221.9337016574586" type="line"/>
      <point x="797.292817679558" y="841.414364640884"/>
      <point x="587.9337016574585" y="446.8563535911602"/>
      <point x="317.41436464088395" y="0.0" type="curve"/>
    </contour>
  </outline>
</glyph>
<glyph name="eight" format="2">
  <advance width="1248.7513812154696"/>
  <unicode hex="0038"/>
  <outline>
    <contour>
      <point x="39.3646408839779" y="350.4475138121547" type="curve" smooth="yes"/>
      <point x="39.3646408839779" y="100.40331491712706"/>
      <point x="318.292817679558" y="-21.171270718232044"/>
      <point x="614.2375690607735" y="-21.171270718232044" type="curve" smooth="yes"/>
      <point x="949.2817679558011" y="-21.171270718232044"/>
      <point x="1207.2154696132598" y="135.72375690607734"/>
      <point x="1207.2154696132598" y="417.3314917127072" type="curve" smooth="yes"/>
      <point x="1207.2154696132598" y="631.0828729281768"/>
      <point x="1046.232044198895" y="729.9502762430939"/>
      <point x="803.0718232044198" y="844.4530386740331" type="curve"/>
      <point x="1008.2265193370166" y="908.3314917127071"/>
      <point x="1134.254143646409" y="1024.4585635359117"/>
      <point x="1134.254143646409" y="1185.1049723756905" type="curve" smooth="yes"/>
      <point x="1134.254143646409" y="1393.635359116022"/>
      <point x="916.5911602209944" y="1505.4475138121547"/>
      <point x="654.3701657458564" y="1505.4475138121547" type="curve" smooth="yes"/>
      <point x="367.9060773480663" y="1505.4475138121547"/>
      <point x="104.46961325966849" y="1371.486187845304"/>
      <point x="104.46961325966849" y="1107.9447513812154" type="curve" smooth="yes"/>
      <point x="104.46961325966849" y="953.8839779005525"/>
      <point x="211.84530386740332" y="798.8674033149172"/>
      <point x="398.11049723756906" y="703.8121546961326" type="curve"/>
      <point x="165.1270718232044" y="653.9723756906077"/>
      <point x="39.3646408839779" y="516.5801104972376"/>
    </contour>
    <contour>
      <point x="392.4585635359116" y="1218.3314917127072" type="curve" smooth="yes"/>
      <point x="392.4585635359116" y="1366.2375690607735"/>
      <point x="502.57458563535914" y="1449.3149171270718"/>
      <point x="648.5027624309392" y="1449.3149171270718" type="curve" smooth="yes"/>
      <point x="817.8674033149172" y="1449.3149171270718"/>
      <point x="893.5469613259669" y="1324.0276243093922"/>
      <point x="893.5469613259669" y="1172.988950276243" type="curve" smooth="yes"/>
      <point x="893.5469613259669" y="1046.9116022099447"/>
      <point x="843.3922651933701" y="926.7292817679559"/>
      <point x="751.0441988950276" y="869.8618784530387" type="curve"/>
      <point x="557.9723756906077" y="959.0055248618785"/>
      <point x="392.4585635359116" y="1028.6629834254143"/>
    </contour>
    <contour>
      <point x="895.9226519337017" y="277.7458563535912" type="curve" smooth="yes"/>
      <point x="895.9226519337017" y="126.4585635359116"/>
      <point x="775.7182320441989" y="35.61878453038674"/>
      <point x="624.3149171270718" y="35.61878453038674" type="curve" smooth="yes"/>
      <point x="416.21546961325964" y="35.61878453038674"/>
      <point x="303.9281767955801" y="196.20994475138122"/>
      <point x="303.9281767955801" y="385.23756906077347" type="curve" smooth="yes"/>
      <point x="303.9281767955801" y="505.1436464088398"/>
      <point x="353.6740331491713" y="623.1270718232045"/>
      <point x="453.69060773480663" y="674.9558011049724" type="curve"/>
      <point x="695.8066298342542" y="574.1657458563536"/>
      <point x="895.9226519337017" y="485.30939226519337"/>
    </contour>
  </outline>
</glyph>
<glyph name="nine" format="2">
  <advance width="1280.243093922652"/>
  <unicode hex="0039"/>
  <outline>
    <contour>
      <point x="645.8839779005525" y="1505.4475138121547" type="curve" smooth="yes"/>
      <point x="332.121546961326" y="1505.4475138121547"/>
      <point x="72.62983425414365" y="1310.5801104972375"/>
      <point x="72.62983425414365" y="969.5138121546961" type="curve" smooth="yes"/>
      <point x="72.62983425414365" y="653.8397790055249"/>
      <point x="290.9337016574586" y="498.5524861878453"/>
      <point x="507.9447513812155" y="498.5524861878453" type="curve" smooth="yes"/>
      <point x="649.6685082872929" y="498.5524861878453"/>
      <point x="796.3922651933701" y="559.4475138121547"/>
      <point x="856.7955801104972" y="704.1436464088398" type="curve"/>
      <point x="819.6519337016574" y="384.38121546961327"/>
      <point x="661.1546961325967" y="86.66850828729281"/>
      <point x="301.6850828729282" y="-9.104972375690608" type="curve"/>
      <point x="329.4088397790055" y="-64.89502762430939" type="line"/>
      <point x="838.9502762430939" y="-25.348066298342545"/>
      <point x="1207.022099447514" y="373.54696132596683"/>
      <point x="1207.022099447514" y="866.8011049723757" type="curve" smooth="yes"/>
      <point x="1207.022099447514" y="1281.9723756906078"/>
      <point x="950.8232044198895" y="1505.4475138121547"/>
    </contour>
    <contour>
      <point x="630.3867403314918" y="627.0718232044198" type="curve" smooth="yes"/>
      <point x="473.6685082872928" y="627.3480662983426"/>
      <point x="416.7513812154696" y="833.7292817679559"/>
      <point x="416.7513812154696" y="1039.6629834254143" type="curve" smooth="yes"/>
      <point x="416.7513812154696" y="1268.9779005524863"/>
      <point x="494.2872928176796" y="1449.5911602209944"/>
      <point x="636.950276243094" y="1449.5911602209944" type="curve" smooth="yes"/>
      <point x="810.3591160220994" y="1449.5911602209944"/>
      <point x="864.7955801104972" y="1238.5414364640883"/>
      <point x="864.7955801104972" y="931.2375690607735" type="curve" smooth="yes"/>
      <point x="864.7955801104972" y="853.0662983425415"/>
      <point x="861.6243093922652" y="794.1602209944751"/>
      <point x="857.9005524861878" y="757.3425414364641" type="curve"/>
      <point x="801.9281767955802" y="678.1988950276243"/>
      <point x="715.6298342541436" y="626.7955801104972"/>
    </contour>
  </outline>
</glyph>
<glyph name="semicolon" format="2">
  <advance width="552.4917127071824"/>
  <unicode hex="003B"/>
  <outline>
    <contour>
      <point x="255.92265193370167" y="731.0497237569061" type="curve" smooth="yes"/>
      <point x="363.3480662983426" y="731.0497237569061"/>
      <point x="434.88950276243094" y="786.6298342541436"/>
      <point x="434.88950276243094" y="880.0276243093923" type="curve" smooth="yes"/>
      <point x="434.88950276243094" y="949.4640883977901"/>
      <point x="385.72928176795585" y="1015.1767955801105"/>
      <point x="283.3314917127072" y="1015.1767955801105" type="curve" smooth="yes"/>
      <point x="183.86740331491714" y="1015.1767955801105"/>
      <point x="108.15469613259668" y="953.9779005524862"/>
      <point x="108.15469613259668" y="866.1988950276243" type="curve" smooth="yes"/>
      <point x="108.15469613259668" y="786.5911602209944"/>
      <point x="173.76243093922653" y="731.0497237569061"/>
    </contour>
    <contour>
      <point x="251.16022099447514" y="291.65193370165747" type="curve"/>
      <point x="240.81767955801104" y="291.65193370165747" type="line" smooth="yes"/>
      <point x="158.52486187845307" y="291.65193370165747"/>
      <point x="106.94475138121547" y="239.939226519337"/>
      <point x="106.94475138121547" y="167.67403314917127" type="curve" smooth="yes"/>
      <point x="106.94475138121547" y="40.828729281767956"/>
      <point x="263.9889502762431" y="45.85635359116022"/>
      <point x="263.9889502762431" y="-69.88397790055248" type="curve" smooth="yes"/>
      <point x="263.9889502762431" y="-180.71270718232046"/>
      <point x="198.5414364640884" y="-290.5303867403315"/>
      <point x="112.72375690607733" y="-372.96685082872926" type="curve"/>
      <point x="112.72375690607733" y="-380.96685082872926" type="line"/>
      <point x="142.79005524861878" y="-402.414364640884" type="line"/>
      <point x="144.51381215469613" y="-401.69060773480663" type="line"/>
      <point x="284.63535911602213" y="-326.76795580110496"/>
      <point x="438.95580110497235" y="-156.3977900552486"/>
      <point x="438.95580110497235" y="58.88397790055249" type="curve" smooth="yes"/>
      <point x="438.95580110497235" y="195.0828729281768"/>
      <point x="358.17679558011054" y="291.65193370165747"/>
    </contour>
  </outline>
</glyph>
<glyph name="less" format="2">
  <advance width="1452.939226519337"/>
  <unicode hex="003C"/>
  <outline>
    <contour>
      <point x="1217.7016574585634" y="1160.0" type="line"/>
      <point x="171.23756906077347" y="706.0" type="line"/>
      <point x="171.23756906077347" y="635.0" type="line"/>
      <point x="1217.7016574585634" y="186.0" type="line"/>
      <point x="1217.7016574585634" y="280.4475138121547" type="line"/>
      <point x="285.5138121546961" y="671.0" type="line"/>
      <point x="1217.7016574585634" y="1066.828729281768" type="line"/>
    </contour>
  </outline>
</glyph>
<glyph name="equal" format="2">
  <advance width="1338.2817679558011"/>
  <unicode hex="003D"/>
  <outline>
    <contour>
      <point x="1158.2817679558011" y="969.7237569060774" type="line"/>
      <point x="180.0" y="969.7237569060774" type="line"/>
      <point x="180.0" y="884.2762430939226" type="line"/>
      <point x="1158.2817679558011" y="884.2762430939226" type="line"/>
    </contour>
    <contour>
      <point x="1158.2817679558011" y="458.72375690607737" type="line"/>
      <point x="180.0" y="458.72375690607737" type="line"/>
      <point x="180.0" y="373.27624309392263" type="line"/>
      <point x="1158.2817679558011" y="373.27624309392263" type="line"/>
    </contour>
  </outline>
</glyph>
<glyph name="at" format="2">
  <advance width="2214.1657458563536"/>
  <unicode hex="0040"/>
  <outline>
    <contour>
      <point x="164.79005524861878" y="342.4585635359116" type="curve" smooth="yes"/>
      <point x="164.79005524861878" y="-189.03867403314916"/>
      <point x="483.0662983425415" y="-515.9226519337017"/>
      <point x="958.0939226519337" y="-515.9226519337017" type="curve" smooth="yes"/>
      <point x="1164.0276243093922" y="-515.9226519337017"/>
      <point x="1373.0165745856355" y="-454.9226519337017"/>
      <point x="1479.46408839779" y="-368.8563535911602" type="curve"/>
      <point x="1458.7403314917128" y="-321.0939226519337" type="line"/>
      <point x="1331.303867403315" y="-400.02762430939225"/>
      <point x="1161.121546961326" y="-440.2099447513812"/>
      <point x="1016.3480662983425" y="-440.2099447513812" type="curve" smooth="yes"/>
      <point x="595.939226519337" y="-440.2099447513812"/>
      <point x="310.84530386740335" y="-108.10497237569061"/>
      <point x="310.84530386740335" y="379.10497237569064" type="curve" smooth="yes"/>
      <point x="310.84530386740335" y="960.9171270718232"/>
      <point x="717.646408839779" y="1436.2486187845304"/>
      <point x="1240.3977900552486" y="1436.2486187845304" type="curve" smooth="yes"/>
      <point x="1612.2154696132598" y="1436.2486187845304"/>
      <point x="1957.1767955801106" y="1195.0883977900553"/>
      <point x="1957.1767955801106" y="739.7348066298342" type="curve" smooth="yes"/>
      <point x="1957.1767955801106" y="343.121546961326"/>
      <point x="1695.6022099447514" y="108.70165745856355"/>
      <point x="1561.7182320441989" y="108.70165745856355" type="curve" smooth="yes"/>
      <point x="1510.7182320441989" y="108.70165745856355"/>
      <point x="1490.2983425414363" y="144.05524861878453"/>
      <point x="1495.9944751381215" y="275.7845303867403" type="curve" smooth="yes"/>
      <point x="1501.585635359116" y="501.96132596685084"/>
      <point x="1578.1546961325967" y="843.9171270718232"/>
      <point x="1618.1933701657458" y="982.2651933701658" type="curve"/>
      <point x="1468.8176795580112" y="1029.9779005524863"/>
      <point x="1461.0939226519338" y="1033.4254143646408"/>
      <point x="1442.3425414364642" y="1033.7016574585634" type="curve" smooth="yes"/>
      <point x="1417.828729281768" y="1034.5303867403316"/>
      <point x="1403.7624309392265" y="1031.767955801105"/>
      <point x="1385.6961325966852" y="986.9779005524862" type="curve"/>
      <point x="1312.486187845304" y="1018.4254143646409"/>
      <point x="1224.4088397790056" y="1034.7016574585634"/>
      <point x="1153.8563535911603" y="1034.7016574585634" type="curve" smooth="yes"/>
      <point x="824.7513812154696" y="1034.7016574585634"/>
      <point x="596.7348066298342" y="677.6629834254144"/>
      <point x="596.7348066298342" y="357.5911602209945" type="curve" smooth="yes"/>
      <point x="596.7348066298342" y="123.35359116022099"/>
      <point x="720.5745856353591" y="-13.370165745856355"/>
      <point x="874.4585635359116" y="-13.370165745856355" type="curve" smooth="yes"/>
      <point x="1053.2486187845304" y="-13.370165745856355"/>
      <point x="1190.4585635359117" y="175.51933701657458"/>
      <point x="1276.220994475138" y="434.5745856353591" type="curve"/>
      <point x="1251.53591160221" y="289.77348066298345"/>
      <point x="1240.5745856353592" y="190.13259668508286"/>
      <point x="1244.022099447514" y="142.20994475138122" type="curve" smooth="yes"/>
      <point x="1251.1933701657458" y="37.73480662983425"/>
      <point x="1331.53591160221" y="-4.685082872928177"/>
      <point x="1428.9723756906078" y="-4.685082872928177" type="curve" smooth="yes"/>
      <point x="1695.745856353591" y="-4.685082872928177"/>
      <point x="2079.546961325967" y="292.292817679558"/>
      <point x="2079.546961325967" y="793.5138121546961" type="curve" smooth="yes"/>
      <point x="2079.546961325967" y="1232.220994475138"/>
      <point x="1786.1546961325967" y="1524.988950276243"/>
      <point x="1322.0331491712707" y="1524.988950276243" type="curve" smooth="yes"/>
      <point x="727.8342541436464" y="1524.988950276243"/>
      <point x="164.79005524861878" y="1049.1160220994475"/>
    </contour>
    <contour>
      <point x="873.4585635359116" y="444.56906077348066" type="curve" smooth="yes"/>
      <point x="882.867403314917" y="732.3591160220994"/>
      <point x="1006.7734806629835" y="977.0828729281768"/>
      <point x="1155.1381215469614" y="977.0828729281768" type="curve" smooth="yes"/>
      <point x="1213.8066298342542" y="977.0828729281768"/>
      <point x="1295.7237569060774" y="940.110497237569"/>
      <point x="1350.2486187845304" y="891.939226519337" type="curve"/>
      <point x="1342.486187845304" y="830.585635359116"/>
      <point x="1289.8121546961327" y="652.4972375690608"/>
      <point x="1262.878453038674" y="574.6298342541436" type="curve" smooth="yes"/>
      <point x="1177.4198895027625" y="326.9889502762431"/>
      <point x="1062.3591160220994" y="164.54696132596683"/>
      <point x="976.9668508287293" y="164.54696132596683" type="curve" smooth="yes"/>
      <point x="901.9281767955802" y="164.54696132596683"/>
      <point x="869.1160220994475" y="289.54696132596683"/>
    </contour>
  </outline>
</glyph>
<glyph name="A" format="2">
  <advance width="1374.4585635359117"/>
  <unicode hex="0041"/>
  <anchor x="643.5635359116022" y="0.0" name="bottom"/>
  <anchor x="1230.342541436464" y="20.0" name="ogonek"/>
  <anchor x="671.2486187845304" y="1484.8950276243095" name="top"/>
  <outline>
    <contour>
      <point x="19.176795580110493" y="70.61878453038673" type="line"/>
      <point x="-117.40331491712708" y="37.447513812154696" type="line"/>
      <point x="-117.40331491712708" y="0.0" type="line"/>
      <point x="311.65193370165747" y="0.0" type="line"/>
      <point x="311.65193370165747" y="37.447513812154696" type="line"/>
      <point x="129.6243093922652" y="71.17127071823205" type="line"/>
      <point x="253.939226519337" y="441.9060773480663" type="line"/>
      <point x="816.707182320442" y="441.9060773480663" type="line"/>
      <point x="946.8508287292818" y="70.61878453038673" type="line"/>
      <point x="793.9558011049724" y="37.447513812154696" type="line"/>
      <point x="793.9558011049724" y="0.0" type="line"/>
      <point x="1445.1602209944751" y="0.0" type="line"/>
      <point x="1445.1602209944751" y="37.447513812154696" type="line"/>
      <point x="1320.9502762430939" y="68.4475138121547" type="line"/>
      <point x="806.6077348066299" y="1490.5911602209944" type="line"/>
      <point x="552.1491712707183" y="1490.5911602209944" type="line"/>
    </contour>
    <contour>
      <point x="793.0883977900553" y="506.4585635359116" type="line"/>
      <point x="277.38674033149175" y="506.4585635359116" type="line"/>
      <point x="502.47513812154693" y="1136.3038674033148" type="line"/>
      <point x="544.1325966850828" y="1255.0662983425414" type="line"/>
      <point x="585.0662983425414" y="1136.3038674033148" type="line"/>
    </contour>
  </outline>
</glyph>
<glyph name="C" format="2">
  <advance width="1322.6187845303866"/>
  <unicode hex="0043"/>
  <anchor x="719.2099447513813" y="0.0" name="bottom"/>
  <anchor x="726.353591160221" y="-166.0" name="mark0"/>
  <anchor x="740.9226519337017" y="1486.0" name="top"/>
  <outline>
    <contour>
      <point x="750.767955801105" y="-22.895027624309392" type="curve" smooth="yes"/>
      <point x="1056.3259668508288" y="-22.895027624309392"/>
      <point x="1125.9005524861877" y="52.89502762430939"/>
      <point x="1232.7955801104972" y="54.0" type="curve"/>
      <point x="1274.5193370165746" y="426.8121546961326" type="line"/>
      <point x="1120.9723756906078" y="438.29834254143645" type="line"/>
      <point x="1036.5635359116022" y="174.05524861878453" type="line"/>
      <point x="1006.2762430939226" y="106.85635359116023"/>
      <point x="895.2265193370166" y="34.61878453038674"/>
      <point x="770.8839779005525" y="34.61878453038674" type="curve" smooth="yes"/>
      <point x="514.3038674033149" y="34.61878453038674"/>
      <point x="396.11049723756906" y="328.0718232044199"/>
      <point x="396.11049723756906" y="741.6574585635359" type="curve" smooth="yes"/>
      <point x="396.11049723756906" y="1215.635359116022"/>
      <point x="546.0497237569061" y="1449.828729281768"/>
      <point x="786.2375690607735" y="1449.828729281768" type="curve" smooth="yes"/>
      <point x="893.3812154696133" y="1449.828729281768"/>
      <point x="978.8618784530387" y="1389.220994475138"/>
      <point x="1015.585635359116" y="1336.232044198895" type="curve"/>
      <point x="1073.1657458563536" y="1037.7955801104972" type="line"/>
      <point x="1244.6740331491712" y="1037.7955801104972" type="line"/>
      <point x="1287.4530386740332" y="1438.7237569060774" type="line"/>
      <point x="1132.7734806629835" y="1438.7237569060774"/>
      <point x="1095.6022099447514" y="1507.0662983425414"/>
      <point x="779.2375690607735" y="1507.0662983425414" type="curve" smooth="yes"/>
      <point x="311.060773480663" y="1507.0662983425414"/>
      <point x="24.14364640883978" y="1178.828729281768"/>
      <point x="24.14364640883978" y="725.7237569060774" type="curve" smooth="yes"/>
      <point x="24.14364640883978" y="286.08839779005524"/>
      <point x="274.2486187845304" y="-22.895027624309392"/>
    </contour>
  </outline>
</glyph>
<glyph name="D" format="2">
  <advance width="1487.9944751381215"/>
  <unicode hex="0044"/>
  <anchor x="699.7900552486187" y="0.0" name="bottom"/>
  <anchor x="699.7900552486187" y="744.0" name="center"/>
  <anchor x="731.9613259668508" y="-166.0" name="mark0"/>
  <anchor x="699.7900552486187" y="1486.0" name="top"/>
  <outline>
    <contour>
      <point x="144.41988950276243" y="72.79005524861878" type="line"/>
      <point x="10.209944751381215" y="37.447513812154696" type="line"/>
      <point x="10.209944751381215" y="0.0" type="line"/>
      <point x="269.61878453038673" y="0.0" type="line" smooth="yes"/>
      <point x="342.0939226519337" y="0.0"/>
      <point x="565.7845303867402" y="-14.828729281767956"/>
      <point x="697.8342541436464" y="-16.276243093922652" type="curve" smooth="yes"/>
      <point x="1133.878453038674" y="-22.066298342541437"/>
      <point x="1448.0497237569061" y="302.17127071823205"/>
      <point x="1448.0497237569061" y="792.2375690607735" type="curve" smooth="yes"/>
      <point x="1448.0497237569061" y="1230.5580110497237"/>
      <point x="1197.6906077348067" y="1498.4475138121547"/>
      <point x="714.8508287292818" y="1498.4475138121547" type="curve" smooth="yes"/>
      <point x="572.8508287292817" y="1498.4475138121547"/>
      <point x="384.35911602209944" y="1486.0"/>
      <point x="260.38121546961327" y="1486.0" type="curve" smooth="yes"/>
      <point x="11.486187845303867" y="1486.0" type="line"/>
      <point x="11.486187845303867" y="1450.0" type="line"/>
      <point x="144.41988950276243" y="1414.2099447513813" type="line"/>
    </contour>
    <contour>
      <point x="477.3977900552486" y="69.89502762430939" type="curve"/>
      <point x="477.3977900552486" y="1420.1049723756905" type="line"/>
      <point x="498.4640883977901" y="1422.1049723756905"/>
      <point x="593.8287292817679" y="1439.0386740331492"/>
      <point x="684.878453038674" y="1439.0386740331492" type="curve" smooth="yes"/>
      <point x="969.5524861878454" y="1439.0386740331492"/>
      <point x="1090.5580110497237" y="1181.9558011049724"/>
      <point x="1090.5580110497237" y="749.2486187845304" type="curve" smooth="yes"/>
      <point x="1090.5580110497237" y="264.96685082872926"/>
      <point x="943.9447513812155" y="46.751381215469614"/>
      <point x="707.2209944751381" y="44.58011049723757" type="curve" smooth="yes"/>
      <point x="625.3812154696133" y="43.85635359116022"/>
      <point x="521.121546961326" y="52.61878453038674"/>
    </contour>
  </outline>
</glyph>
<glyph name="E" format="2">
  <advance width="1296.6906077348067"/>
  <unicode hex="0045"/>
  <anchor x="699.414364640884" y="-103.49723756906079" name="bottom"/>
  <anchor x="674.2375690607735" y="-62.502762430939214" name="mark0"/>
  <anchor x="1226.0994475138123" y="20.0" name="ogonek"/>
  <anchor x="698.121546961326" y="1486.0" name="top"/>
  <anchor x="11.972375690607734" y="1486.0" name="topleft"/>
  <outline>
    <contour>
      <point x="148.62983425414365" y="71.34254143646409" type="line"/>
      <point x="12.696132596685082" y="36.72375690607735" type="line"/>
      <point x="12.696132596685082" y="0.0" type="line"/>
      <point x="1206.099447513812" y="0.0" type="line"/>
      <point x="1278.9558011049724" y="384.3204419889503" type="line"/>
      <point x="1139.988950276243" y="410.49171270718233" type="line"/>
      <point x="999.8950276243094" y="112.80662983425415" type="line"/>
      <point x="472.9226519337017" y="55.96132596685083" type="line"/>
      <point x="472.9226519337017" y="736.6574585635359" type="line"/>
      <point x="776.0" y="726.3425414364641" type="line"/>
      <point x="856.5690607734807" y="484.09944751381215" type="line"/>
      <point x="909.121546961326" y="484.09944751381215" type="line"/>
      <point x="909.121546961326" y="1026.7016574585634" type="line"/>
      <point x="856.5690607734807" y="1026.7016574585634" type="line"/>
      <point x="776.0" y="797.8674033149172" type="line"/>
      <point x="472.9226519337017" y="787.4475138121547" type="line"/>
      <point x="472.9226519337017" y="1429.9337016574586" type="line"/>
      <point x="947.2265193370165" y="1397.3922651933701" type="line"/>
      <point x="1066.453038674033" y="1134.8232044198894" type="line"/>
      <point x="1186.3922651933701" y="1134.8232044198894" type="line"/>
      <point x="1158.3922651933701" y="1486.0" type="line"/>
      <point x="13.696132596685082" y="1486.0" type="line"/>
      <point x="13.696132596685082" y="1450.0" type="line"/>
      <point x="148.62983425414365" y="1414.2099447513813" type="line"/>
    </contour>
  </outline>
</glyph>
<glyph name="F" format="2">
  <advance width="1209.6795580110497"/>
  <unicode hex="0046"/>
  <anchor x="566.6850828729282" y="0.0" name="bottom"/>
  <anchor x="583.1988950276243" y="-166.0" name="mark0"/>
  <anchor x="615.8287292817679" y="1486.0" name="top"/>
  <outline>
    <contour>
      <point x="148.62983425414365" y="70.61878453038673" type="line"/>
      <point x="12.696132596685082" y="37.447513812154696" type="line"/>
      <point x="12.696132596685082" y="0.0" type="line"/>
      <point x="671.7734806629835" y="0.0" type="line"/>
      <point x="671.7734806629835" y="37.447513812154696" type="line"/>
      <point x="471.8176795580111" y="70.61878453038673" type="line"/>
      <point x="471.8176795580111" y="717.6298342541436" type="line"/>
      <point x="791.6353591160221" y="708.9723756906077" type="line"/>
      <point x="867.889502762431" y="466.7292817679558" type="line"/>
      <point x="921.1657458563536" y="466.7292817679558" type="line"/>
      <point x="921.1657458563536" y="1009.3314917127071" type="line"/>
      <point x="868.6132596685084" y="1009.3314917127071" type="line"/>
      <point x="791.6353591160221" y="780.4972375690608" type="line"/>
      <point x="471.8176795580111" y="771.0110497237569" type="line"/>
      <point x="471.8176795580111" y="1427.9337016574586" type="line"/>
      <point x="930.0" y="1398.1160220994475" type="line"/>
      <point x="1049.8453038674033" y="1116.7292817679559" type="line"/>
      <point x="1166.060773480663" y="1116.7292817679559" type="line"/>
      <point x="1137.6132596685084" y="1486.0" type="line"/>
      <point x="13.696132596685082" y="1486.0" type="line"/>
      <point x="13.696132596685082" y="1450.0" type="line"/>
      <point x="148.62983425414365" y="1414.2099447513813" type="line"/>
    </contour>
  </outline>
</glyph>
<glyph name="J" format="2">
  <advance width="642.121546961326"/>
  <unicode hex="004A"/>
  <anchor x="248.49723756906076" y="-166.0" name="mark0"/>
  <anchor x="338.1546961325967" y="1486.0" name="top"/>
  <outline>
    <contour>
      <point x="-81.77348066298343" y="-321.9889502762431" type="curve"/>
      <point x="-46.45856353591161" y="-375.6740331491713" type="line"/>
      <point x="202.2596685082873" y="-345.121546961326"/>
      <point x="397.0662983425415" y="-188.0939226519337"/>
      <point x="455.16022099447514" y="31.486187845303867" type="curve" smooth="yes"/>
      <point x="481.3314917127072" y="133.04972375690608"/>
      <point x="487.1878453038674" y="307.6685082872928"/>
      <point x="487.1878453038674" y="529.5580110497237" type="curve" smooth="yes"/>
      <point x="487.1878453038674" y="1414.2099447513813" type="line"/>
      <point x="623.0165745856353" y="1450.0" type="line"/>
      <point x="623.0165745856353" y="1486.0" type="line"/>
      <point x="19.552486187845304" y="1486.0" type="line"/>
      <point x="19.552486187845304" y="1450.0" type="line"/>
      <point x="155.0386740331492" y="1414.2099447513813" type="line"/>
      <point x="155.0386740331492" y="369.9337016574585" type="line" smooth="yes"/>
      <point x="155.0386740331492" y="134.90055248618785"/>
      <point x="143.07734806629833" y="12.76795580110496"/>
      <point x="115.24861878453038" y="-76.62430939226519" type="curve" smooth="yes"/>
      <point x="70.01104972375691" y="-220.45303867403317"/>
      <point x="22.475138121546948" y="-281.30386740331494"/>
    </contour>
  </outline>
</glyph>
<glyph name="K" format="2">
  <advance width="1398.878453038674"/>
  <unicode hex="004B"/>
  <anchor x="808.0165745856353" y="0.0" name="bottom"/>
  <anchor x="768.8950276243094" y="-160.93370165745856" name="mark0"/>
  <anchor x="788.1878453038674" y="1483.828729281768" name="top"/>
  <outline>
    <contour>
      <point x="1003.9281767955802" y="0.0" type="curve"/>
      <point x="1408.878453038674" y="0.7237569060773481" type="line"/>
      <point x="1408.878453038674" y="38.171270718232044" type="line"/>
      <point x="1340.9723756906078" y="66.5524861878453" type="line"/>
      <point x="1224.7182320441989" y="156.1657458563536"/>
      <point x="919.1546961325967" y="875.7127071823204"/>
      <point x="795.4254143646409" y="961.2983425414365" type="curve"/>
      <point x="722.7624309392265" y="836.0828729281768" type="line"/>
      <point x="1172.6906077348067" y="1412.5911602209944" type="line"/>
      <point x="1334.7734806629835" y="1447.828729281768" type="line"/>
      <point x="1334.7734806629835" y="1486.7237569060774" type="line"/>
      <point x="891.4917127071823" y="1486.0" type="line"/>
      <point x="891.4917127071823" y="1449.2762430939226" type="line"/>
      <point x="1060.1657458563536" y="1414.2099447513813" type="line"/>
      <point x="394.4585635359116" y="532.6298342541436" type="line"/>
      <point x="467.2651933701658" y="603.3204419889503" type="line"/>
      <point x="467.2651933701658" y="1414.2099447513813" type="line"/>
      <point x="614.6850828729282" y="1450.0" type="line"/>
      <point x="614.6850828729282" y="1486.0" type="line"/>
      <point x="11.209944751381215" y="1486.0" type="line"/>
      <point x="11.209944751381215" y="1450.0" type="line"/>
      <point x="145.8674033149171" y="1414.2099447513813" type="line"/>
      <point x="145.8674033149171" y="69.89502762430939" type="line"/>
      <point x="10.209944751381215" y="37.447513812154696" type="line"/>
      <point x="10.209944751381215" y="0.0" type="line"/>
      <point x="614.6850828729282" y="0.0" type="line"/>
      <point x="614.6850828729282" y="37.447513812154696" type="line"/>
      <point x="467.2651933701658" y="69.89502762430939" type="line"/>
      <point x="467.2651933701658" y="559.646408839779" type="line"/>
      <point x="396.32596685082876" y="433.707182320442" type="line"/>
      <point x="679.011049723757" y="785.4364640883978" type="line"/>
      <point x="593.3756906077348" y="709.8232044198895" type="line"/>
      <point x="694.8011049723757" y="630.3977900552486"/>
      <point x="924.4917127071824" y="0.0"/>
    </contour>
  </outline>
</glyph>
<glyph name="L" format="2">
  <advance width="1244.8121546961327"/>
  <unicode hex="004C"/>
  <anchor x="659.5027624309392" y="0.0" name="bottom"/>
  <anchor x="638.513812154696" y="744.0000000000002" name="center"/>
  <anchor x="685.2375690607735" y="-166.0" name="mark0"/>
  <anchor x="395.292817679558" y="1486.0" name="top"/>
  <anchor x="966.6243093922652" y="1110.7237569060774" name="topright"/>
  <outline>
    <contour>
      <point x="146.18232044198894" y="71.34254143646409" type="line"/>
      <point x="12.41988950276243" y="36.72375690607735" type="line"/>
      <point x="12.41988950276243" y="0.0" type="line"/>
      <point x="1148.6408839779006" y="0.0" type="line"/>
      <point x="1224.8121546961327" y="405.8674033149171" type="line"/>
      <point x="1093.0165745856355" y="429.82872928176795" type="line"/>
      <point x="946.4364640883978" y="115.60773480662984" type="line"/>
      <point x="481.6740331491713" y="60.10497237569061" type="line"/>
      <point x="481.9502762430939" y="1420.0" type="line"/>
      <point x="657.1491712707183" y="1450.0" type="line"/>
      <point x="657.1491712707183" y="1486.0" type="line"/>
      <point x="13.41988950276243" y="1486.0" type="line"/>
      <point x="13.41988950276243" y="1450.0" type="line"/>
      <point x="146.18232044198894" y="1414.2099447513813" type="line"/>
    </contour>
  </outline>
</glyph>
<glyph name="M" format="2">
  <advance width="1948.0718232044198"/>
  <unicode hex="004D"/>
  <anchor x="930.8508287292817" y="0.0" name="bottom"/>
  <anchor x="831.6187845303867" y="-166.0" name="mark0"/>
  <anchor x="913.4475138121547" y="1486.0" name="top"/>
  <outline>
    <contour>
      <point x="119.77348066298342" y="67.96132596685084" type="line"/>
      <point x="-42.569060773480665" y="36.0" type="line"/>
      <point x="-42.569060773480665" y="0.0" type="line"/>
      <point x="404.64088397790056" y="0.0" type="line"/>
      <point x="404.64088397790056" y="36.0" type="line"/>
      <point x="224.98342541436466" y="67.96132596685084" type="line"/>
      <point x="335.95580110497235" y="1037.7127071823204" type="line"/>
      <point x="374.54696132596683" y="1376.2983425414366" type="line"/>
      <point x="467.1491712707182" y="1038.4364640883978" type="line"/>
      <point x="737.817679558011" y="61.14364640883978" type="line"/>
      <point x="1027.596685082873" y="61.14364640883978" type="line"/>
      <point x="1271.0883977900553" y="1044.342541436464" type="line"/>
      <point x="1349.9668508287293" y="1376.2983425414366" type="line"/>
      <point x="1389.414364640884" y="1036.2651933701657" type="line"/>
      <point x="1493.0718232044198" y="68.68508287292818" type="line"/>
      <point x="1331.6132596685084" y="37.447513812154696" type="line"/>
      <point x="1331.6132596685084" y="0.0" type="line"/>
      <point x="1990.6408839779006" y="0.0" type="line"/>
      <point x="1990.6408839779006" y="36.0" type="line"/>
      <point x="1836.4972375690609" y="69.23756906077348" type="line"/>
      <point x="1671.2486187845304" y="1413.828729281768" type="line"/>
      <point x="1835.828729281768" y="1451.0" type="line"/>
      <point x="1835.828729281768" y="1486.0" type="line"/>
      <point x="1291.7845303867402" y="1486.0" type="line"/>
      <point x="1061.0" y="531.6022099447514" type="line"/>
      <point x="1001.2541436464088" y="258.24309392265195" type="line"/>
      <point x="942.060773480663" y="528.707182320442" type="line"/>
      <point x="689.8011049723757" y="1486.0" type="line"/>
      <point x="140.29834254143645" y="1486.0" type="line"/>
      <point x="140.29834254143645" y="1451.0" type="line"/>
      <point x="306.50828729281767" y="1413.828729281768" type="line"/>
    </contour>
  </outline>
</glyph>
<glyph name="N" format="2">
  <advance width="1492.828729281768"/>
  <unicode hex="004E"/>
  <anchor x="797.353591160221" y="0.0" name="bottom"/>
  <anchor x="836.9613259668508" y="-166.0" name="mark0"/>
  <anchor x="827.7624309392265" y="1486.0" name="top"/>
  <outline>
    <contour>
      <point x="176.27624309392266" y="70.61878453038673" type="line"/>
      <point x="15.591160220994496" y="41.06629834254144" type="line"/>
      <point x="15.591160220994496" y="0.0" type="line"/>
      <point x="423.6574585635359" y="0.0" type="line"/>
      <point x="423.6574585635359" y="41.06629834254144" type="line"/>
      <point x="258.4585635359116" y="70.61878453038673" type="line"/>
      <point x="254.10497237569058" y="1229.9613259668508" type="line"/>
      <point x="393.4088397790055" y="1040.5414364640883" type="line"/>
      <point x="1101.6906077348067" y="0.0" type="line"/>
      <point x="1310.3812154696132" y="0.0" type="line"/>
      <point x="1315.6298342541436" y="1413.9337016574586" type="line"/>
      <point x="1461.9723756906078" y="1444.9337016574586" type="line"/>
      <point x="1461.9723756906078" y="1486.0" type="line"/>
      <point x="1072.6298342541436" y="1486.0" type="line"/>
      <point x="1072.6298342541436" y="1444.9337016574586" type="line"/>
      <point x="1233.7237569060774" y="1413.9337016574586" type="line"/>
      <point x="1238.867403314917" y="357.3646408839779" type="line"/>
      <point x="1087.7237569060774" y="588.2541436464088" type="line"/>
      <point x="471.6574585635359" y="1486.0" type="line"/>
      <point x="4.9171270718232165" y="1486.0" type="line"/>
      <point x="4.9171270718232165" y="1434.0773480662983" type="line"/>
      <point x="67.1546961325967" y="1430.5911602209944"/>
      <point x="161.22099447513813" y="1359.5745856353592"/>
      <point x="181.8674033149171" y="1286.1878453038673" type="curve"/>
    </contour>
  </outline>
</glyph>
<glyph name="O" format="2">
  <advance width="1510.254143646409"/>
  <unicode hex="004F"/>
  <anchor x="738.8950276243094" y="0.0" name="bottom"/>
  <anchor x="753.4751381215469" y="719.5248618784531" name="center"/>
  <anchor x="823.9447513812154" y="20.0" name="ogonek"/>
  <anchor x="757.1988950276243" y="1486.0" name="top"/>
  <anchor x="33.425414364640886" y="1486.0" name="topleft"/>
  <anchor x="1353.9944751381215" y="1486.0" name="topright"/>
  <outline>
    <contour>
      <point x="739.2651933701658" y="-23.447513812154696" type="curve" smooth="yes"/>
      <point x="1208.2044198895028" y="-23.447513812154696"/>
      <point x="1486.110497237569" y="298.646408839779"/>
      <point x="1486.110497237569" y="765.0" type="curve" smooth="yes"/>
      <point x="1486.110497237569" y="1212.2099447513813"/>
      <point x="1240.756906077348" y="1503.4475138121547"/>
      <point x="776.2651933701658" y="1503.4475138121547" type="curve" smooth="yes"/>
      <point x="303.3259668508287" y="1503.4475138121547"/>
      <point x="24.14364640883978" y="1184.6298342541436"/>
      <point x="24.14364640883978" y="724.0" type="curve" smooth="yes"/>
      <point x="24.14364640883978" y="270.3425414364641"/>
      <point x="270.77348066298345" y="-23.447513812154696"/>
    </contour>
    <contour>
      <point x="755.5414364640884" y="1446.2099447513813" type="curve" smooth="yes"/>
      <point x="997.0055248618785" y="1446.2099447513813"/>
      <point x="1121.3812154696134" y="1200.7127071823204"/>
      <point x="1121.3812154696134" y="765.0" type="curve" smooth="yes"/>
      <point x="1121.3812154696134" y="265.76243093922653"/>
      <point x="970.9281767955802" y="33.790055248618785"/>
      <point x="750.988950276243" y="33.790055248618785" type="curve" smooth="yes"/>
      <point x="514.2872928176796" y="33.790055248618785"/>
      <point x="388.1491712707183" y="274.37016574585635"/>
      <point x="388.1491712707183" y="724.0" type="curve" smooth="yes"/>
      <point x="388.1491712707183" y="1222.2375690607735"/>
      <point x="535.6022099447514" y="1446.2099447513813"/>
    </contour>
  </outline>
</glyph>
<glyph name="P" format="2">
  <advance width="1300.8729281767955"/>
  <unicode hex="0050"/>
  <anchor x="415.38674033149175" y="0.0" name="bottom"/>
  <anchor x="539.0441988950276" y="-166.0" name="mark0"/>
  <anchor x="682.1049723756906" y="1486.0" name="top"/>
  <outline>
    <contour>
      <point x="151.24861878453038" y="71.61878453038673" type="line"/>
      <point x="12.696132596685082" y="36.72375690607735" type="line"/>
      <point x="12.696132596685082" y="0.0" type="line"/>
      <point x="660.5138121546962" y="0.0" type="line"/>
      <point x="660.5138121546962" y="37.447513812154696" type="line"/>
      <point x="481.3314917127072" y="70.89502762430939" type="line"/>
      <point x="482.05524861878456" y="548.8729281767955" type="line"/>
      <point x="504.8563535911602" y="545.4917127071823"/>
      <point x="608.6961325966851" y="540.767955801105"/>
      <point x="668.7348066298342" y="540.767955801105" type="curve" smooth="yes"/>
      <point x="1049.9337016574586" y="540.767955801105"/>
      <point x="1274.3867403314916" y="720.3591160220994"/>
      <point x="1274.3867403314916" y="1038.364640883978" type="curve" smooth="yes"/>
      <point x="1274.3867403314916" y="1317.2872928176796"/>
      <point x="1122.0165745856355" y="1500.5524861878453"/>
      <point x="723.5138121546961" y="1498.3812154696132" type="curve" smooth="yes"/>
      <point x="560.8397790055249" y="1497.657458563536"/>
      <point x="463.98342541436466" y="1486.0"/>
      <point x="350.0497237569061" y="1486.0" type="curve" smooth="yes"/>
      <point x="13.696132596685082" y="1486.0" type="line"/>
      <point x="13.696132596685082" y="1450.0" type="line"/>
      <point x="151.24861878453038" y="1414.2099447513813" type="line"/>
    </contour>
    <contour>
      <point x="481.3314917127072" y="615.3867403314918" type="curve"/>
      <point x="481.3314917127072" y="1430.828729281768" type="line"/>
      <point x="514.3701657458564" y="1434.4475138121547"/>
      <point x="572.1933701657458" y="1444.7624309392265"/>
      <point x="650.5469613259669" y="1444.7624309392265" type="curve" smooth="yes"/>
      <point x="857.7624309392265" y="1444.7624309392265"/>
      <point x="933.2375690607735" y="1260.6132596685084"/>
      <point x="933.2375690607735" y="1030.53591160221" type="curve" smooth="yes"/>
      <point x="933.2375690607735" y="741.3867403314918"/>
      <point x="810.4585635359116" y="603.3480662983425"/>
      <point x="637.8508287292818" y="603.3480662983425" type="curve" smooth="yes"/>
      <point x="568.8397790055249" y="603.3480662983425"/>
      <point x="512.0662983425415" y="607.1767955801105"/>
    </contour>
  </outline>
</glyph>
<glyph name="Q" format="2">
  <advance width="1510.254143646409"/>
  <unicode hex="0051"/>
  <anchor x="738.8950276243094" y="0.0" name="bottom"/>
  <anchor x="753.4751381215469" y="719.5248618784531" name="center"/>
  <anchor x="823.9447513812154" y="20.0" name="ogonek"/>
  <anchor x="757.1988950276243" y="1486.0" name="top"/>
  <anchor x="33.425414364640886" y="1486.0" name="topleft"/>
  <anchor x="1353.9944751381215" y="1486.0" name="topright"/>
  <outline>
    <contour>
      <point x="1308.9281767955802" y="-391.50276243093924" type="curve" smooth="yes"/>
      <point x="1367.5082872928176" y="-391.50276243093924"/>
      <point x="1460.707182320442" y="-362.0939226519337"/>
      <point x="1505.7734806629835" y="-285.18232044198896" type="curve"/>
      <point x="1477.9171270718232" y="-206.33701657458562" type="line"/>
      <point x="1435.9668508287293" y="-215.74585635359117"/>
      <point x="1355.3149171270718" y="-213.40331491712706"/>
      <point x="1256.4254143646408" y="-163.46408839779005" type="curve"/>
      <point x="1147.8563535911603" y="-135.9613259668508"/>
      <point x="985.182320441989" y="-3.5911602209944746"/>
      <point x="753.7513812154696" y="5.552486187845304" type="curve"/>
      <point x="696.5138121546961" y="-0.20994475138121516" type="line"/>
      <point x="929.5138121546961" y="-44.93370165745856"/>
      <point x="980.2762430939226" y="-391.50276243093924"/>
    </contour>
    <component base="O"/>
  </outline>
</glyph>
<glyph name="R" format="2">
  <advance width="1365.171270718232"/>
  <unicode hex="0052"/>
  <anchor x="735.243093922652" y="0.0" name="bottom"/>
  <anchor x="689.2265193370166" y="-166.0" name="mark0"/>
  <anchor x="657.8729281767955" y="1486.0" name="top"/>
  <outline>
    <contour>
      <point x="10.209944751381215" y="0.0" type="line"/>
      <point x="635.6961325966851" y="0.0" type="line"/>
      <point x="635.6961325966851" y="37.447513812154696" type="line"/>
      <point x="475.22651933701655" y="70.89502762430939" type="line"/>
      <point x="475.22651933701655" y="644.9834254143647" type="line"/>
      <point x="518.292817679558" y="644.4309392265193"/>
      <point x="606.9005524861878" y="644.1546961325967"/>
      <point x="661.6629834254144" y="644.1546961325967" type="curve"/>
      <point x="816.2541436464088" y="605.1767955801105"/>
      <point x="916.6022099447514" y="0.0"/>
      <point x="1010.9060773480663" y="0.0" type="curve" smooth="yes"/>
      <point x="1384.6187845303868" y="0.0" type="line"/>
      <point x="1384.6187845303868" y="37.447513812154696" type="line"/>
      <point x="1327.2265193370165" y="62.80110497237569" type="line"/>
      <point x="1252.46408839779" y="97.22099447513813"/>
      <point x="1152.2983425414366" y="631.1546961325967"/>
      <point x="896.817679558011" y="688.1049723756906" type="curve"/>
      <point x="1116.0276243093922" y="738.171270718232"/>
      <point x="1202.4198895027625" y="942.6961325966851"/>
      <point x="1202.4198895027625" y="1104.867403314917" type="curve" smooth="yes"/>
      <point x="1202.4198895027625" y="1374.596685082873"/>
      <point x="1048.6519337016575" y="1499.828729281768"/>
      <point x="665.4033149171271" y="1499.828729281768" type="curve" smooth="yes"/>
      <point x="511.2817679558011" y="1499.828729281768"/>
      <point x="425.1546961325967" y="1486.0"/>
      <point x="311.30939226519337" y="1486.0" type="curve" smooth="yes"/>
      <point x="11.209944751381215" y="1486.0" type="line"/>
      <point x="11.209944751381215" y="1450.0" type="line"/>
      <point x="145.8674033149171" y="1414.2099447513813" type="line"/>
      <point x="145.8674033149171" y="71.61878453038673" type="line"/>
      <point x="10.209944751381215" y="36.72375690607735" type="line"/>
    </contour>
    <contour>
      <point x="627.2707182320441" y="702.8397790055249" type="curve" smooth="yes"/>
      <point x="593.0220994475138" y="702.8397790055249"/>
      <point x="514.4475138121547" y="703.3259668508288"/>
      <point x="475.22651933701655" y="711.1546961325967" type="curve"/>
      <point x="475.22651933701655" y="1430.2762430939226" type="line"/>
      <point x="500.84530386740335" y="1434.0"/>
      <point x="547.7734806629834" y="1444.7624309392265"/>
      <point x="603.121546961326" y="1444.7624309392265" type="curve" smooth="yes"/>
      <point x="801.9834254143647" y="1444.7624309392265"/>
      <point x="870.2983425414365" y="1305.1160220994475"/>
      <point x="870.2983425414365" y="1094.524861878453" type="curve" smooth="yes"/>
      <point x="870.2983425414365" y="874.2209944751381"/>
      <point x="799.1546961325967" y="702.8397790055249"/>
    </contour>
  </outline>
</glyph>
<glyph name="S" format="2">
  <advance width="1193.1657458563536"/>
  <unicode hex="0053"/>
  <anchor x="604.7513812154696" y="0.0" name="bottom"/>
  <anchor x="664.7513812154696" y="1486.0" name="top"/>
  <outline>
    <contour>
      <point x="560.0165745856353" y="-22.0" type="curve" smooth="yes"/>
      <point x="1023.4033149171271" y="-22.0"/>
      <point x="1147.0497237569061" y="214.3038674033149"/>
      <point x="1147.0497237569061" y="404.7790055248619" type="curve" smooth="yes"/>
      <point x="1147.0497237569061" y="690.243093922652"/>
      <point x="923.7458563535912" y="779.0718232044198"/>
      <point x="729.3701657458564" y="861.9779005524862" type="curve" smooth="yes"/>
      <point x="508.11049723756906" y="956.7403314917127"/>
      <point x="346.8950276243094" y="1058.4917127071824"/>
      <point x="346.8950276243094" y="1216.7403314917128" type="curve" smooth="yes"/>
      <point x="346.8950276243094" y="1366.4364640883978"/>
      <point x="431.64088397790056" y="1450.171270718232"/>
      <point x="611.243093922652" y="1450.171270718232" type="curve" smooth="yes"/>
      <point x="729.8950276243094" y="1450.171270718232"/>
      <point x="800.8563535911602" y="1407.2375690607735"/>
      <point x="821.6187845303867" y="1378.8950276243095" type="curve"/>
      <point x="877.6850828729282" y="1096.7845303867402" type="line"/>
      <point x="1045.9171270718232" y="1096.7845303867402" type="line"/>
      <point x="1071.6685082872928" y="1432.8950276243095" type="line"/>
      <point x="962.1878453038673" y="1432.8950276243095"/>
      <point x="872.1491712707182" y="1507.7900552486187"/>
      <point x="610.0441988950276" y="1507.7900552486187" type="curve" smooth="yes"/>
      <point x="243.49723756906076" y="1507.7900552486187"/>
      <point x="61.66850828729281" y="1329.3812154696132"/>
      <point x="61.66850828729281" y="1094.1270718232045" type="curve" smooth="yes"/>
      <point x="61.66850828729281" y="808.0331491712707"/>
      <point x="292.2486187845304" y="696.0055248618785"/>
      <point x="470.95580110497235" y="622.7955801104972" type="curve" smooth="yes"/>
      <point x="702.3480662983426" y="527.5193370165746"/>
      <point x="851.4806629834254" y="433.24309392265195"/>
      <point x="851.4806629834254" y="291.7182320441989" type="curve" smooth="yes"/>
      <point x="851.4806629834254" y="154.28729281767954"/>
      <point x="783.3370165745856" y="32.72375690607735"/>
      <point x="548.646408839779" y="34.171270718232044" type="curve" smooth="yes"/>
      <point x="427.25414364640886" y="34.89502762430939"/>
      <point x="344.121546961326" y="95.5414364640884"/>
      <point x="298.9281767955801" y="142.3038674033149" type="curve"/>
      <point x="238.0718232044199" y="432.2817679558011" type="line"/>
      <point x="65.0110497237569" y="432.2817679558011" type="line"/>
      <point x="44.668508287292816" y="54.80110497237569" type="line"/>
      <point x="168.1878453038674" y="53.14364640883978"/>
      <point x="277.23756906077347" y="-22.0"/>
    </contour>
  </outline>
</glyph>
<glyph name="U" format="2">
  <advance width="1426.3701657458564"/>
  <unicode hex="0055"/>
  <anchor x="743.0662983425415" y="0.0" name="bottom"/>
  <anchor x="751.9060773480663" y="-166.0" name="mark0"/>
  <anchor x="1336.6850828729282" y="20.0" name="ogonek"/>
  <anchor x="777.4751381215469" y="1486.0" name="top"/>
  <anchor x="1445.4088397790056" y="1486.0" name="topright"/>
  <outline>
    <contour>
      <point x="780.646408839779" y="-17.104972375690608" type="curve" smooth="yes"/>
      <point x="1058.4475138121547" y="-17.104972375690608"/>
      <point x="1277.0552486187846" y="137.3646408839779"/>
      <point x="1278.4364640883978" y="569.4696132596684" type="curve" smooth="yes"/>
      <point x="1281.1988950276243" y="1414.486187845304" type="line"/>
      <point x="1409.988950276243" y="1450.0" type="line"/>
      <point x="1409.988950276243" y="1486.0" type="line"/>
      <point x="1059.121546961326" y="1486.0" type="line"/>
      <point x="1059.121546961326" y="1450.0" type="line"/>
      <point x="1206.5027624309391" y="1413.9337016574586" type="line"/>
      <point x="1207.8839779005525" y="567.2596685082873" type="line" smooth="yes"/>
      <point x="1208.4364640883978" y="208.59116022099448"/>
      <point x="1037.7016574585637" y="34.171270718232044"/>
      <point x="800.1491712707183" y="34.171270718232044" type="curve" smooth="yes"/>
      <point x="591.2872928176796" y="34.171270718232044"/>
      <point x="477.9226519337017" y="139.47513812154696"/>
      <point x="477.9226519337017" y="473.91160220994476" type="curve" smooth="yes"/>
      <point x="477.9226519337017" y="1414.486187845304" type="line"/>
      <point x="629.6574585635359" y="1450.0" type="line"/>
      <point x="629.6574585635359" y="1486.0" type="line"/>
      <point x="20.0" y="1486.0" type="line"/>
      <point x="20.0" y="1450.0" type="line"/>
      <point x="157.69613259668506" y="1414.486187845304" type="line"/>
      <point x="157.69613259668506" y="536.4696132596684" type="line" smooth="yes"/>
      <point x="157.69613259668506" y="135.44751381215468"/>
      <point x="360.89502762430936" y="-17.104972375690608"/>
    </contour>
  </outline>
</glyph>
<glyph name="V" format="2">
  <advance width="1411.4475138121547"/>
  <unicode hex="0056"/>
  <anchor x="849.9226519337017" y="-166.0" name="mark0"/>
  <outline>
    <contour>
      <point x="-38.68508287292818" y="1452.0" type="line"/>
      <point x="82.04972375690608" y="1417.0" type="line"/>
      <point x="626.4309392265193" y="-4.41988950276243" type="line"/>
      <point x="838.1657458563536" y="-4.41988950276243" type="line"/>
      <point x="1346.1491712707182" y="1417.0" type="line"/>
      <point x="1479.0828729281768" y="1452.0" type="line"/>
      <point x="1479.0828729281768" y="1486.0" type="line"/>
      <point x="1098.8066298342542" y="1486.0" type="line"/>
      <point x="1098.8066298342542" y="1452.0" type="line"/>
      <point x="1268.0441988950276" y="1417.0" type="line"/>
      <point x="886.7624309392265" y="349.9502762430939" type="line"/>
      <point x="854.8674033149172" y="235.7403314917127" type="line"/>
      <point x="823.1049723756905" y="349.9502762430939" type="line"/>
      <point x="438.9944751381216" y="1417.0" type="line"/>
      <point x="592.7292817679559" y="1452.0" type="line"/>
      <point x="592.7292817679559" y="1486.0" type="line"/>
      <point x="-38.68508287292818" y="1486.0" type="line"/>
    </contour>
  </outline>
</glyph>
<glyph name="W" format="2">
  <advance width="1988.3591160220994"/>
  <unicode hex="0057"/>
  <anchor x="979.4972375690608" y="0.0" name="bottom"/>
  <anchor x="874.4972375690608" y="-166.0" name="mark0"/>
  <anchor x="1023.4972375690608" y="1486.0" name="top"/>
  <outline>
    <contour>
      <point x="-48.92265193370166" y="1452.2762430939226" type="line"/>
      <point x="78.8121546961326" y="1417.2762430939226" type="line"/>
      <point x="515.5359116022099" y="-4.41988950276243" type="line"/>
      <point x="765.9944751381215" y="-4.41988950276243" type="line"/>
      <point x="1027.2651933701657" y="904.3701657458564" type="line"/>
      <point x="1265.878453038674" y="-4.41988950276243" type="line"/>
      <point x="1518.403314917127" y="-4.41988950276243" type="line"/>
      <point x="1914.1491712707182" y="1417.7237569060774" type="line"/>
      <point x="2040.0441988950276" y="1451.7237569060774" type="line"/>
      <point x="2040.0441988950276" y="1486.0" type="line"/>
      <point x="1644.756906077348" y="1486.0" type="line"/>
      <point x="1644.756906077348" y="1451.7237569060774" type="line"/>
      <point x="1811.596685082873" y="1417.7237569060774" type="line"/>
      <point x="1547.1436464088397" y="376.91160220994476" type="line"/>
      <point x="1506.5635359116022" y="195.58011049723757" type="line"/>
      <point x="1466.4696132596684" y="374.9779005524862" type="line"/>
      <point x="1215.3314917127072" y="1421.0386740331492" type="line"/>
      <point x="1353.4198895027625" y="1451.7237569060774" type="line"/>
      <point x="1353.4198895027625" y="1486.0" type="line"/>
      <point x="756.5801104972376" y="1486.0" type="line"/>
      <point x="756.5801104972376" y="1451.7237569060774" type="line"/>
      <point x="871.5635359116022" y="1421.0386740331492" type="line"/>
      <point x="979.9226519337017" y="1049.1049723756905" type="line"/>
      <point x="802.9337016574585" y="376.91160220994476" type="line"/>
      <point x="754.7734806629835" y="195.58011049723757" type="line"/>
      <point x="718.2983425414365" y="375.25414364640886" type="line"/>
      <point x="422.23756906077347" y="1418.0" type="line"/>
      <point x="553.6022099447514" y="1452.0" type="line"/>
      <point x="553.6022099447514" y="1486.0" type="line"/>
      <point x="-48.92265193370166" y="1486.2762430939226" type="line"/>
    </contour>
  </outline>
</glyph>
<glyph name="Y" format="2">
  <advance width="1297.6519337016575"/>
  <unicode hex="0059"/>
  <anchor x="664.5082872928176" y="0.0" name="bottom"/>
  <anchor x="580.2265193370166" y="-166.0" name="mark0"/>
  <anchor x="719.2486187845304" y="1486.0" name="top"/>
  <anchor x="52.9281767955801" y="1486.0" name="topleft"/>
  <outline>
    <contour>
      <point x="511.64088397790056" y="71.17127071823205" type="line"/>
      <point x="325.1436464088398" y="37.447513812154696" type="line"/>
      <point x="325.1436464088398" y="0.0" type="line"/>
      <point x="1029.2486187845304" y="0.0" type="line"/>
      <point x="1029.2486187845304" y="37.447513812154696" type="line"/>
      <point x="831.0" y="70.4475138121547" type="line"/>
      <point x="831.0" y="610.8839779005525" type="line"/>
      <point x="1201.3867403314916" y="1420.4198895027625" type="line"/>
      <point x="1370.8121546961327" y="1450.2762430939226" type="line"/>
      <point x="1370.8121546961327" y="1486.0" type="line"/>
      <point x="908.2651933701658" y="1486.0" type="line"/>
      <point x="908.2651933701658" y="1450.2762430939226" type="line"/>
      <point x="1097.5580110497237" y="1416.9723756906078" type="line"/>
      <point x="832.6961325966851" y="785.4198895027624" type="line"/>
      <point x="780.4861878453039" y="661.2375690607735" type="line"/>
      <point x="726.0662983425415" y="784.6961325966851" type="line"/>
      <point x="414.4254143646409" y="1416.9723756906078" type="line"/>
      <point x="561.121546961326" y="1450.2762430939226" type="line"/>
      <point x="561.121546961326" y="1486.0" type="line"/>
      <point x="-42.03867403314918" y="1485.7237569060774" type="line"/>
      <point x="-42.03867403314918" y="1450.0" type="line"/>
      <point x="70.89502762430939" y="1417.6961325966852" type="line"/>
      <point x="511.64088397790056" y="584.2762430939226" type="line"/>
    </contour>
  </outline>
</glyph>
<glyph name="Z" format="2">
  <advance width="1319.0276243093922"/>
  <unicode hex="005A"/>
  <anchor x="631.9613259668508" y="0.0" name="bottom"/>
  <anchor x="649.7513812154696" y="-166.0" name="mark0"/>
  <anchor x="658.5524861878453" y="1486.0" name="top"/>
  <outline>
    <contour>
      <point x="800.5303867403316" y="1268.8839779005525" type="line"/>
      <point x="36.28729281767955" y="30.104972375690608" type="line"/>
      <point x="54.49723756906077" y="0.0" type="line"/>
      <point x="1227.243093922652" y="0.0" type="line"/>
      <point x="1276.3867403314916" y="438.1878453038674" type="line"/>
      <point x="1124.5635359116022" y="463.9779005524862" type="line"/>
      <point x="987.6408839779006" y="103.5524861878453" type="line"/>
      <point x="386.0939226519337" y="56.828729281767956" type="line"/>
      <point x="512.8950276243094" y="225.77348066298342" type="line"/>
      <point x="1268.1381215469614" y="1454.8950276243095" type="line"/>
      <point x="1247.3093922651933" y="1486.0" type="line"/>
      <point x="149.8232044198895" y="1486.0" type="line"/>
      <point x="124.4696132596685" y="1095.0497237569061" type="line"/>
      <point x="278.9779005524862" y="1074.1933701657458" type="line"/>
      <point x="387.49171270718233" y="1402.5524861878453" type="line"/>
      <point x="929.8453038674033" y="1429.6187845303868" type="line"/>
    </contour>
  </outline>
</glyph>
<glyph name="backslash" format="2">
  <advance width="702.7292817679559"/>
  <unicode hex="005C"/>
  <outline>
    <contour>
      <point x="34.69613259668506" y="1562.0" type="line"/>
      <point x="555.756906077348" y="-354.0" type="line"/>
      <point x="651.4806629834253" y="-354.0" type="line"/>
      <point x="128.41988950276243" y="1562.0" type="line"/>
    </contour>
  </outline>
</glyph>
<glyph name="a" format="2">
  <advance width="1012.6408839779006"/>
  <unicode hex="0061"/>
  <anchor x="479.76795580110496" y="-7.105427357601002e-15" name="bottom"/>
  <anchor x="839.6906077348067" y="20.0" name="ogonek"/>
  <anchor x="535.2154696132596" y="1110.0" name="top"/>
  <outline>
    <contour>
      <point x="16.80110497237569" y="257.47513812154693" type="curve" smooth="yes"/>
      <point x="16.80110497237569" y="82.33149171270719"/>
      <point x="143.39226519337015" y="-20.513812154696133"/>
      <point x="329.6740331491713" y="-20.513812154696133" type="curve" smooth="yes"/>
      <point x="495.0662983425414" y="-20.513812154696133"/>
      <point x="598.0110497237569" y="68.78453038674033"/>
      <point x="639.5248618784531" y="141.15469613259668" type="curve"/>
      <point x="639.5248618784531" y="68.17127071823205" type="line" smooth="yes"/>
      <point x="639.5248618784531" y="5.828729281767956"/>
      <point x="680.0386740331492" y="-18.171270718232044"/>
      <point x="781.4640883977901" y="-18.171270718232044" type="curve" smooth="yes"/>
      <point x="884.7182320441989" y="-18.171270718232044"/>
      <point x="949.3646408839779" y="2.1712707182320443"/>
      <point x="994.9834254143647" y="12.552486187845304" type="curve"/>
      <point x="994.9834254143647" y="65.0939226519337" type="line"/>
      <point x="920.1049723756906" y="65.0939226519337" type="line"/>
      <point x="920.1049723756906" y="677.5911602209944" type="line" smooth="yes"/>
      <point x="920.1049723756906" y="895.1160220994475"/>
      <point x="816.5248618784531" y="1036.1049723756905"/>
      <point x="538.2817679558011" y="1036.1049723756905" type="curve" smooth="yes"/>
      <point x="328.0552486187845" y="1036.1049723756905"/>
      <point x="166.82872928176795" y="957.0386740331492"/>
      <point x="75.10497237569061" y="902.9723756906078" type="curve"/>
      <point x="113.68508287292818" y="830.0883977900553" type="line"/>
      <point x="210.92265193370167" y="870.9558011049724"/>
      <point x="339.09392265193367" y="891.2044198895028"/>
      <point x="428.9447513812155" y="890.4806629834254" type="curve" smooth="yes"/>
      <point x="580.1160220994475" y="889.0331491712707"/>
      <point x="633.6298342541436" y="820.3259668508288"/>
      <point x="633.6298342541436" y="683.3812154696133" type="curve" smooth="yes"/>
      <point x="633.6298342541436" y="595.5801104972376" type="line"/>
      <point x="326.8729281767956" y="595.5801104972376"/>
      <point x="16.80110497237569" y="513.4751381215469"/>
    </contour>
    <contour>
      <point x="451.6685082872928" y="114.14917127071823" type="curve" smooth="yes"/>
      <point x="363.56353591160223" y="114.14917127071823"/>
      <point x="312.76243093922653" y="185.4254143646409"/>
      <point x="312.76243093922653" y="295.0828729281768" type="curve" smooth="yes"/>
      <point x="312.76243093922653" y="434.2099447513812"/>
      <point x="442.58011049723757" y="536.171270718232"/>
      <point x="633.6298342541436" y="536.171270718232" type="curve"/>
      <point x="633.6298342541436" y="182.73480662983425" type="line"/>
      <point x="588.3038674033149" y="146.92265193370167"/>
      <point x="546.110497237569" y="114.14917127071823"/>
    </contour>
  </outline>
</glyph>
<glyph name="b" format="2">
  <advance width="1156.6408839779006"/>
  <unicode hex="0062"/>
  <anchor x="543.939226519337" y="-2.1712707182320443" name="bottom"/>
  <anchor x="554.8011049723757" y="-166.0" name="mark0"/>
  <anchor x="785.5082872928176" y="1110.7237569060774" name="top"/>
  <outline>
    <contour>
      <point x="-19.171270718232044" y="1507.3480662983425" type="line"/>
      <point x="98.73480662983425" y="1468.0828729281768" type="line"/>
      <point x="98.73480662983425" y="54.0" type="line"/>
      <point x="128.94475138121547" y="40.248618784530386"/>
      <point x="290.2209944751381" y="-22.0"/>
      <point x="571.756906077348" y="-22.0" type="curve" smooth="yes"/>
      <point x="881.0220994475138" y="-22.0"/>
      <point x="1120.2596685082872" y="184.24861878453038"/>
      <point x="1120.2596685082872" y="568.7127071823204" type="curve" smooth="yes"/>
      <point x="1120.2596685082872" y="876.5414364640884"/>
      <point x="950.3646408839779" y="1042.342541436464"/>
      <point x="705.9337016574586" y="1042.342541436464" type="curve" smooth="yes"/>
      <point x="544.1712707182321" y="1042.342541436464"/>
      <point x="420.0" y="938.4364640883978"/>
      <point x="385.38121546961327" y="883.0939226519337" type="curve"/>
      <point x="385.38121546961327" y="1599.6685082872928" type="line"/>
      <point x="340.98342541436466" y="1635.1049723756905" type="line"/>
      <point x="301.878453038674" y="1635.1049723756905" type="line"/>
      <point x="-19.171270718232044" y="1543.0331491712707" type="line"/>
    </contour>
    <contour>
      <point x="581.7513812154696" y="925.8508287292817" type="curve" smooth="yes"/>
      <point x="699.9060773480663" y="925.8508287292817"/>
      <point x="794.9668508287293" y="822.5911602209944"/>
      <point x="794.243093922652" y="510.28729281767954" type="curve" smooth="yes"/>
      <point x="794.9668508287293" y="186.91160220994476"/>
      <point x="715.9613259668508" y="34.51381215469613"/>
      <point x="548.0055248618785" y="34.51381215469613" type="curve" smooth="yes"/>
      <point x="482.0497237569061" y="34.51381215469613"/>
      <point x="409.76243093922653" y="68.24861878453038"/>
      <point x="385.38121546961327" y="113.82872928176795" type="curve"/>
      <point x="385.38121546961327" y="835.0662983425415" type="line"/>
      <point x="416.62983425414365" y="874.2099447513813"/>
      <point x="485.4806629834254" y="925.8508287292817"/>
    </contour>
  </outline>
</glyph>
<glyph name="c" format="2">
  <advance width="951.6353591160221"/>
  <unicode hex="0063"/>
  <anchor x="596.1988950276243" y="0.0" name="bottom"/>
  <anchor x="631.0386740331492" y="-166.0" name="mark0"/>
  <anchor x="640.2872928176796" y="1110.7237569060774" name="top"/>
  <outline>
    <contour>
      <point x="31.314917127071823" y="501.3149171270718" type="curve" smooth="yes"/>
      <point x="31.314917127071823" y="183.55248618784532"/>
      <point x="193.20994475138122" y="-22.0"/>
      <point x="556.2154696132596" y="-22.0" type="curve" smooth="yes"/>
      <point x="719.1657458563536" y="-22.0"/>
      <point x="841.7458563535912" y="50.88397790055249"/>
      <point x="914.9281767955802" y="123.67403314917127" type="curve"/>
      <point x="884.8618784530387" y="176.5303867403315" type="line"/>
      <point x="818.889502762431" y="136.35911602209944"/>
      <point x="743.4696132596684" y="97.8342541436464"/>
      <point x="654.1436464088398" y="97.8342541436464" type="curve" smooth="yes"/>
      <point x="471.5469613259669" y="97.8342541436464"/>
      <point x="354.8839779005525" y="259.43093922651934"/>
      <point x="354.8839779005525" y="552.3701657458564" type="curve" smooth="yes"/>
      <point x="354.8839779005525" y="822.5193370165746"/>
      <point x="421.6574585635359" y="980.0386740331492"/>
      <point x="576.110497237569" y="980.0386740331492" type="curve" smooth="yes"/>
      <point x="648.0386740331492" y="980.0386740331492"/>
      <point x="687.3259668508288" y="949.4751381215469"/>
      <point x="701.7348066298342" y="872.2983425414365" type="curve" smooth="yes"/>
      <point x="738.6022099447514" y="684.3646408839779" type="line"/>
      <point x="912.4419889502763" y="684.3646408839779" type="line"/>
      <point x="923.3370165745856" y="974.4861878453039" type="line"/>
      <point x="868.414364640884" y="984.2099447513813"/>
      <point x="735.4530386740332" y="1041.8950276243095"/>
      <point x="586.7127071823204" y="1041.8950276243095" type="curve" smooth="yes"/>
      <point x="249.88397790055248" y="1041.8950276243095"/>
      <point x="31.314917127071823" y="824.950276243094"/>
    </contour>
  </outline>
</glyph>
<glyph name="d" format="2">
  <advance width="1148.4309392265193"/>
  <unicode hex="0064"/>
  <anchor x="519.7624309392265" y="0.0" name="bottom"/>
  <anchor x="515.0" y="576.0" name="center"/>
  <anchor x="333.0" y="1158.0" name="top"/>
  <anchor x="1287.646408839779" y="1110.7237569060774" name="topright"/>
  <outline>
    <contour>
      <point x="449.0497237569061" y="-22.723756906077348" type="curve" smooth="yes"/>
      <point x="633.4585635359116" y="-22.723756906077348"/>
      <point x="738.8121546961326" y="76.11602209944752"/>
      <point x="776.3259668508288" y="139.97237569060772" type="curve"/>
      <point x="776.3259668508288" y="67.0" type="line" smooth="yes"/>
      <point x="776.3259668508288" y="5.104972375690608"/>
      <point x="816.3922651933701" y="-18.171270718232044"/>
      <point x="911.4475138121547" y="-18.171270718232044" type="curve" smooth="yes"/>
      <point x="1001.3204419889503" y="-18.171270718232044"/>
      <point x="1089.9944751381215" y="1.4475138121546964"/>
      <point x="1139.9558011049724" y="12.552486187845304" type="curve"/>
      <point x="1139.9558011049724" y="65.0939226519337" type="line"/>
      <point x="1057.9060773480662" y="65.0939226519337" type="line"/>
      <point x="1057.9060773480662" y="1598.9447513812154" type="line"/>
      <point x="1014.3370165745856" y="1635.1049723756905" type="line"/>
      <point x="974.9558011049724" y="1635.1049723756905" type="line"/>
      <point x="635.8397790055249" y="1543.0331491712707" type="line"/>
      <point x="635.8397790055249" y="1507.3480662983425" type="line"/>
      <point x="771.2596685082873" y="1468.0828729281768" type="line"/>
      <point x="771.2596685082873" y="1015.121546961326" type="line"/>
      <point x="742.4972375690608" y="1030.4364640883978"/>
      <point x="692.1049723756906" y="1040.8950276243095"/>
      <point x="587.3314917127071" y="1040.8950276243095" type="curve" smooth="yes"/>
      <point x="275.61878453038673" y="1041.6187845303868"/>
      <point x="36.38121546961326" y="835.3701657458563"/>
      <point x="36.38121546961326" y="450.90607734806633" type="curve" smooth="yes"/>
      <point x="36.38121546961326" y="143.07734806629833"/>
      <point x="207.38121546961327" y="-22.723756906077348"/>
    </contour>
    <contour>
      <point x="574.889502762431" y="93.76795580110497" type="curve" smooth="yes"/>
      <point x="456.7348066298343" y="93.76795580110497"/>
      <point x="361.6740331491713" y="197.02762430939225"/>
      <point x="362.3977900552486" y="509.3314917127072" type="curve" smooth="yes"/>
      <point x="363.121546961326" y="823.3149171270718"/>
      <point x="432.1160220994475" y="985.1049723756906"/>
      <point x="608.0828729281768" y="985.1049723756906" type="curve" smooth="yes"/>
      <point x="681.7734806629834" y="985.1049723756906"/>
      <point x="746.878453038674" y="952.646408839779"/>
      <point x="771.2596685082873" y="905.7900552486188" type="curve"/>
      <point x="771.2596685082873" y="184.55248618784532" type="line"/>
      <point x="740.011049723757" y="145.40883977900552"/>
      <point x="670.8839779005525" y="93.76795580110497"/>
    </contour>
  </outline>
</glyph>
<glyph name="e" format="2">
  <advance width="1040.2596685082874"/>
  <unicode hex="0065"/>
  <anchor x="558.1491712707182" y="0.0" name="bottom"/>
  <anchor x="551.3646408839779" y="-62.502762430939214" name="mark0"/>
  <anchor x="700.8950276243094" y="20.0" name="ogonek"/>
  <anchor x="571.3204419889503" y="1110.7237569060774" name="top"/>
  <outline>
    <contour>
      <point x="564.8729281767955" y="-23.447513812154696" type="curve" smooth="yes"/>
      <point x="735.1546961325967" y="-23.447513812154696"/>
      <point x="907.5524861878453" y="56.43646408839779"/>
      <point x="971.5911602209944" y="119.92265193370166" type="curve"/>
      <point x="944.8011049723757" y="171.50276243093924" type="line"/>
      <point x="884.353591160221" y="126.84530386740332"/>
      <point x="769.6574585635359" y="92.76795580110497"/>
      <point x="684.1988950276243" y="92.76795580110497" type="curve" smooth="yes"/>
      <point x="476.69060773480663" y="92.76795580110497"/>
      <point x="369.5303867403315" y="243.50828729281767"/>
      <point x="361.5690607734807" y="506.69613259668506" type="curve"/>
      <point x="996.6022099447514" y="506.69613259668506" type="line"/>
      <point x="1006.2209944751381" y="533.9060773480663"/>
      <point x="1011.9447513812155" y="585.3812154696133"/>
      <point x="1011.6685082872928" y="670.3038674033149" type="curve"/>
      <point x="1007.9447513812155" y="911.3425414364641"/>
      <point x="840.3259668508288" y="1041.171270718232"/>
      <point x="571.6243093922652" y="1041.171270718232" type="curve" smooth="yes"/>
      <point x="266.9060773480663" y="1041.171270718232"/>
      <point x="32.76243093922652" y="836.0662983425415"/>
      <point x="32.76243093922652" y="492.23756906077347" type="curve" smooth="yes"/>
      <point x="32.76243093922652" y="181.72375690607734"/>
      <point x="200.41988950276243" y="-23.447513812154696"/>
    </contour>
    <contour>
      <point x="359.67403314917124" y="555.0386740331492" type="line"/>
      <point x="367.63535911602213" y="860.878453038674"/>
      <point x="428.17127071823205" y="987.5524861878453"/>
      <point x="554.5966850828729" y="987.5524861878453" type="curve" smooth="yes"/>
      <point x="656.3812154696133" y="987.5524861878453"/>
      <point x="691.756906077348" y="882.9226519337017"/>
      <point x="691.756906077348" y="682.646408839779" type="curve" smooth="yes"/>
      <point x="691.756906077348" y="656.0939226519337"/>
      <point x="690.3093922651933" y="596.5248618784531"/>
      <point x="688.9281767955802" y="569.4198895027624" type="curve"/>
    </contour>
  </outline>
</glyph>
<glyph name="f" format="2">
  <advance width="640.646408839779"/>
  <unicode hex="0066"/>
  <anchor x="407.3314917127072" y="1613.0" name="top"/>
  <outline>
    <contour>
      <point x="165.98342541436463" y="70.61878453038673" type="line"/>
      <point x="35.85635359116022" y="37.447513812154696" type="line"/>
      <point x="35.85635359116022" y="0.0" type="line"/>
      <point x="591.9944751381215" y="0.0" type="line"/>
      <point x="591.9944751381215" y="37.447513812154696" type="line"/>
      <point x="459.5911602209945" y="70.06629834254144" type="line"/>
      <point x="460.3149171270718" y="916.9447513812155" type="line"/>
      <point x="637.414364640884" y="916.9447513812155" type="line"/>
      <point x="637.414364640884" y="1005.0" type="line"/>
      <point x="460.3149171270718" y="1005.0" type="line"/>
      <point x="461.76243093922653" y="1293.5635359116022" type="line" smooth="yes"/>
      <point x="462.4861878453039" y="1443.1381215469614"/>
      <point x="505.9447513812155" y="1484.414364640884"/>
      <point x="601.110497237569" y="1484.414364640884" type="curve" smooth="yes"/>
      <point x="668.0165745856353" y="1484.414364640884"/>
      <point x="732.0441988950276" y="1445.7403314917126"/>
      <point x="774.1381215469613" y="1419.2651933701657" type="curve"/>
      <point x="774.1381215469613" y="1636.9337016574586" type="line"/>
      <point x="757.6906077348067" y="1646.5524861878453"/>
      <point x="721.5580110497237" y="1653.657458563536"/>
      <point x="685.6243093922652" y="1653.657458563536" type="curve" smooth="yes"/>
      <point x="441.9502762430939" y="1653.657458563536"/>
      <point x="165.98342541436463" y="1412.0331491712707"/>
      <point x="165.98342541436463" y="1070.2817679558011" type="curve" smooth="yes"/>
      <point x="165.98342541436463" y="1003.7237569060774" type="line"/>
      <point x="43.06629834254144" y="954.6685082872928" type="line"/>
      <point x="43.06629834254144" y="916.9447513812155" type="line"/>
      <point x="165.98342541436463" y="916.9447513812155" type="line"/>
    </contour>
  </outline>
</glyph>
<glyph name="g" format="2">
  <advance width="1142.8176795580112"/>
  <unicode hex="0067"/>
  <anchor x="582.2044198895028" y="0.0" name="bottom"/>
  <anchor x="586.9281767955802" y="1111.0" name="top"/>
  <outline>
    <contour>
      <point x="493.2596685082873" y="-476.6850828729282" type="curve"/>
      <point x="844.3259668508288" y="-476.6850828729282"/>
      <point x="1106.3867403314916" y="-319.5414364640884"/>
      <point x="1106.3867403314916" y="-81.94475138121547" type="curve" smooth="yes"/>
      <point x="1106.3867403314916" y="68.61325966850829"/>
      <point x="980.0276243093923" y="174.2707182320442"/>
      <point x="752.2596685082873" y="174.2707182320442" type="curve" smooth="yes"/>
      <point x="513.2762430939226" y="174.2707182320442" type="line" smooth="yes"/>
      <point x="353.060773480663" y="174.2707182320442"/>
      <point x="302.4806629834254" y="199.65193370165747"/>
      <point x="299.7182320441989" y="263.2817679558011" type="curve" smooth="yes"/>
      <point x="296.9558011049724" y="305.02762430939225"/>
      <point x="321.91160220994476" y="328.38121546961327"/>
      <point x="346.292817679558" y="347.38121546961327" type="curve"/>
      <point x="390.4640883977901" y="338.72375690607737"/>
      <point x="462.6629834254144" y="334.89502762430936"/>
      <point x="519.2817679558011" y="334.89502762430936" type="curve" smooth="yes"/>
      <point x="776.6022099447514" y="334.89502762430936"/>
      <point x="998.1436464088398" y="457.8674033149171"/>
      <point x="998.1436464088398" y="683.1049723756906" type="curve" smooth="yes"/>
      <point x="998.1436464088398" y="742.5469613259668"/>
      <point x="977.7900552486188" y="831.7458563535912"/>
      <point x="958.3425414364641" y="849.7458563535912" type="curve"/>
      <point x="1116.6298342541436" y="850.0220994475138" type="line"/>
      <point x="1116.9060773480662" y="1010.0386740331492" type="line"/>
      <point x="1074.011049723757" y="1010.0386740331492" type="line" smooth="yes"/>
      <point x="994.4033149171271" y="1010.0386740331492"/>
      <point x="937.4861878453039" y="972.3812154696133"/>
      <point x="912.4585635359116" y="918.6574585635359" type="curve"/>
      <point x="836.6408839779006" y="998.9226519337017"/>
      <point x="723.9005524861878" y="1031.0386740331492"/>
      <point x="555.2817679558011" y="1031.0386740331492" type="curve" smooth="yes"/>
      <point x="295.0662983425414" y="1031.0386740331492"/>
      <point x="78.69613259668509" y="908.8950276243094"/>
      <point x="78.69613259668509" y="682.0" type="curve" smooth="yes"/>
      <point x="78.69613259668509" y="532.7624309392265"/>
      <point x="140.1988950276243" y="425.18232044198896"/>
      <point x="299.1988950276243" y="362.6574585635359" type="curve"/>
      <point x="193.59116022099448" y="319.62983425414365"/>
      <point x="120.81767955801106" y="250.353591160221"/>
      <point x="120.81767955801106" y="149.353591160221" type="curve" smooth="yes"/>
      <point x="120.81767955801106" y="62.182320441988956"/>
      <point x="158.75138121546962" y="1.259668508287291"/>
      <point x="236.77900552486187" y="-42.281767955801115" type="curve"/>
      <point x="94.68508287292816" y="-66.11049723756906"/>
      <point x="11.06629834254143" y="-146.76795580110496"/>
      <point x="11.06629834254143" y="-245.1878453038674" type="curve" smooth="yes"/>
      <point x="11.06629834254143" y="-443.04419889502765"/>
      <point x="285.6629834254144" y="-476.6850828729282"/>
    </contour>
    <contour>
      <point x="530.707182320442" y="-419.0" type="curve"/>
      <point x="400.7458563535912" y="-418.27624309392263"/>
      <point x="239.99447513812154" y="-350.3425414364641"/>
      <point x="239.99447513812154" y="-184.38121546961327" type="curve" smooth="yes"/>
      <point x="239.99447513812154" y="-113.12154696132598"/>
      <point x="255.48066298342542" y="-78.93922651933701"/>
      <point x="280.5303867403315" y="-57.17679558011051" type="curve"/>
      <point x="334.5303867403315" y="-68.96685082872929"/>
      <point x="457.41436464088395" y="-77.30939226519337"/>
      <point x="543.1381215469613" y="-78.03314917127072" type="curve"/>
      <point x="683.4033149171271" y="-78.75690607734808" type="line" smooth="yes"/>
      <point x="793.5580110497237" y="-79.48066298342542"/>
      <point x="850.5469613259669" y="-128.04419889502762"/>
      <point x="850.5469613259669" y="-206.24309392265195" type="curve" smooth="yes"/>
      <point x="850.5469613259669" y="-350.1767955801105"/>
      <point x="738.6519337016574" y="-420.4475138121547"/>
    </contour>
    <contour>
      <point x="527.7955801104972" y="387.7900552486188" type="curve" smooth="yes"/>
      <point x="428.6022099447514" y="389.17127071823205"/>
      <point x="378.51381215469615" y="517.0276243093923"/>
      <point x="378.51381215469615" y="689.9613259668508" type="curve" smooth="yes"/>
      <point x="378.51381215469615" y="890.5801104972376"/>
      <point x="438.2209944751381" y="978.1436464088398"/>
      <point x="546.939226519337" y="978.1436464088398" type="curve"/>
      <point x="644.5801104972376" y="978.1436464088398"/>
      <point x="696.7734806629834" y="850.182320441989"/>
      <point x="696.7734806629834" y="685.0" type="curve" smooth="yes"/>
      <point x="696.7734806629834" y="476.62983425414365"/>
      <point x="636.3425414364641" y="386.13259668508283"/>
    </contour>
  </outline>
</glyph>
<glyph name="k" format="2">
  <advance width="1149.0276243093922"/>
  <unicode hex="006B"/>
  <anchor x="640.9779005524862" y="0.0" name="bottom"/>
  <anchor x="635.6243093922652" y="-166.0" name="mark0"/>
  <anchor x="642.3756906077348" y="1620.0" name="top"/>
  <outline>
    <contour>
      <point x="117.41988950276243" y="69.89502762430939" type="line"/>
      <point x="2.2099447513812294" y="36.72375690607735" type="line"/>
      <point x="2.2099447513812294" y="0.0" type="line"/>
      <point x="524.0" y="0.0" type="line"/>
      <point x="524.0" y="36.0" type="line"/>
      <point x="411.30386740331494" y="69.89502762430939" type="line"/>
      <point x="411.30386740331494" y="261.72375690607737" type="line"/>
      <point x="404.64640883977904" y="363.03867403314916" type="line"/>
      <point x="549.7348066298342" y="520.1270718232045" type="line"/>
      <point x="785.0939226519337" y="69.89502762430939" type="line"/>
      <point x="670.9116022099447" y="37.447513812154696" type="line"/>
      <point x="675.9779005524862" y="0.0" type="line"/>
      <point x="1221.0055248618785" y="0.0" type="line"/>
      <point x="1221.0055248618785" y="38.0" type="line"/>
      <point x="1120.1381215469614" y="69.89502762430939" type="line"/>
      <point x="751.0220994475138" y="718.585635359116" type="line"/>
      <point x="965.9226519337017" y="935.0" type="line"/>
      <point x="1094.1878453038673" y="966.0" type="line"/>
      <point x="1094.1878453038673" y="1005.0" type="line"/>
      <point x="701.1049723756906" y="1005.0" type="line"/>
      <point x="701.1049723756906" y="966.0" type="line"/>
      <point x="851.8563535911602" y="934.0" type="line"/>
      <point x="405.1988950276243" y="445.1049723756906" type="line"/>
      <point x="411.30386740331494" y="645.3591160220994" type="line"/>
      <point x="411.30386740331494" y="1598.9447513812154" type="line"/>
      <point x="363.28729281767954" y="1635.1049723756905" type="line"/>
      <point x="324.90607734806633" y="1635.1049723756905" type="line"/>
      <point x="-0.20994475138121516" y="1543.0331491712707" type="line"/>
      <point x="-0.20994475138121516" y="1507.3480662983425" type="line"/>
      <point x="117.41988950276243" y="1468.0828729281768" type="line"/>
    </contour>
  </outline>
</glyph>
<glyph name="l" format="2">
  <advance width="554.0883977900553"/>
  <unicode hex="006C"/>
  <anchor x="288.121546961326" y="0.0" name="bottom"/>
  <anchor x="279.7513812154696" y="-166.0" name="mark0"/>
  <anchor x="267.71270718232046" y="1634.0" name="top"/>
  <anchor x="599.939226519337" y="1110.7237569060774" name="topright"/>
  <outline>
    <contour>
      <point x="129.85082872928177" y="71.34254143646409" type="line"/>
      <point x="14.917127071823202" y="36.72375690607735" type="line"/>
      <point x="14.917127071823202" y="0.0" type="line"/>
      <point x="522.6408839779006" y="0.0" type="line"/>
      <point x="522.6408839779006" y="36.72375690607735" type="line"/>
      <point x="407.8121546961326" y="70.61878453038673" type="line"/>
      <point x="407.8121546961326" y="1599.6685082872928" type="line"/>
      <point x="364.96685082872926" y="1635.1049723756905" type="line"/>
      <point x="321.23204419889504" y="1635.1049723756905" type="line"/>
      <point x="6.972375690607734" y="1543.0331491712707" type="line"/>
      <point x="6.972375690607734" y="1507.3480662983425" type="line"/>
      <point x="129.85082872928177" y="1468.0828729281768" type="line"/>
    </contour>
  </outline>
</glyph>
<glyph name="n" format="2">
  <advance width="1224.9226519337017"/>
  <unicode hex="006E"/>
  <anchor x="637.0276243093923" y="0.0" name="bottom"/>
  <anchor x="645.0386740331492" y="-166.0" name="mark0"/>
  <anchor x="605.5414364640884" y="1110.7237569060774" name="top"/>
  <outline>
    <contour>
      <point x="123.34254143646409" y="70.61878453038673" type="line"/>
      <point x="8.685082872928177" y="37.447513812154696" type="line"/>
      <point x="8.685082872928177" y="0.0" type="line"/>
      <point x="530.8839779005525" y="0.0" type="line"/>
      <point x="530.8839779005525" y="37.447513812154696" type="line"/>
      <point x="418.6077348066298" y="70.61878453038673" type="line"/>
      <point x="418.6077348066298" y="811.7900552486187" type="line"/>
      <point x="485.03867403314916" y="859.3922651933701"/>
      <point x="588.9337016574585" y="887.9558011049724"/>
      <point x="671.0994475138122" y="887.9558011049724" type="curve" smooth="yes"/>
      <point x="807.2541436464088" y="887.9558011049724"/>
      <point x="811.0" y="767.7182320441989"/>
      <point x="811.0" y="623.4696132596684" type="curve" smooth="yes"/>
      <point x="810.7237569060774" y="70.61878453038673" type="line"/>
      <point x="709.5414364640884" y="37.447513812154696" type="line"/>
      <point x="709.5414364640884" y="0.0" type="line"/>
      <point x="1215.475138121547" y="0.0" type="line"/>
      <point x="1215.475138121547" y="37.447513812154696" type="line"/>
      <point x="1105.988950276243" y="70.61878453038673" type="line"/>
      <point x="1106.2651933701657" y="634.3259668508288" type="line" smooth="yes"/>
      <point x="1106.2651933701657" y="869.4475138121547"/>
      <point x="1059.3204419889503" y="1036.7900552486187"/>
      <point x="797.988950276243" y="1036.7900552486187" type="curve" smooth="yes"/>
      <point x="623.2651933701658" y="1036.7900552486187"/>
      <point x="483.0552486187845" y="922.5138121546961"/>
      <point x="405.58011049723757" y="842.9613259668508" type="curve"/>
      <point x="409.9226519337017" y="924.2375690607735" type="line"/>
      <point x="409.9226519337017" y="996.5524861878453" type="line"/>
      <point x="369.31491712707185" y="1028.0939226519338" type="line"/>
      <point x="317.6961325966851" y="1028.0939226519338" type="line"/>
      <point x="7.922651933701658" y="930.4972375690608" type="line"/>
      <point x="7.922651933701658" y="894.8121546961327" type="line"/>
      <point x="123.34254143646409" y="851.1270718232045" type="line"/>
    </contour>
  </outline>
</glyph>
<glyph name="o" format="2">
  <advance width="1151.9834254143648"/>
  <unicode hex="006F"/>
  <anchor x="579.5303867403316" y="0.0" name="bottom"/>
  <anchor x="579.5303867403316" y="503.0" name="center"/>
  <anchor x="648.1381215469613" y="9.999999999999996" name="ogonek"/>
  <anchor x="576.4917127071824" y="1110.0" name="top"/>
  <anchor x="849.9005524861878" y="1005.0" name="topright"/>
  <outline>
    <contour>
      <point x="26.972375690607734" y="493.72375690607737" type="curve" smooth="yes"/>
      <point x="26.972375690607734" y="165.58563535911603"/>
      <point x="201.4364640883978" y="-23.447513812154696"/>
      <point x="564.7016574585635" y="-23.447513812154696" type="curve" smooth="yes"/>
      <point x="850.6022099447514" y="-23.447513812154696"/>
      <point x="1125.011049723757" y="150.49723756906076"/>
      <point x="1125.011049723757" y="521.6574585635359" type="curve" smooth="yes"/>
      <point x="1125.011049723757" y="842.5580110497237"/>
      <point x="949.4419889502763" y="1039.0"/>
      <point x="594.7403314917127" y="1039.0" type="curve" smooth="yes"/>
      <point x="301.27624309392263" y="1039.0"/>
      <point x="26.972375690607734" y="850.8563535911602"/>
    </contour>
    <contour>
      <point x="580.5303867403314" y="30.171270718232044" type="curve" smooth="yes"/>
      <point x="420.97237569060775" y="30.171270718232044"/>
      <point x="359.9502762430939" y="228.78453038674033"/>
      <point x="359.9502762430939" y="520.0662983425415" type="curve" smooth="yes"/>
      <point x="359.9502762430939" y="826.7237569060774"/>
      <point x="440.2872928176796" y="984.6574585635359"/>
      <point x="582.5303867403316" y="984.6574585635359" type="curve" smooth="yes"/>
      <point x="734.2486187845304" y="984.6574585635359"/>
      <point x="791.414364640884" y="776.0828729281768"/>
      <point x="791.414364640884" y="493.8674033149171" type="curve" smooth="yes"/>
      <point x="791.414364640884" y="183.14364640883977"/>
      <point x="714.3812154696133" y="30.171270718232044"/>
    </contour>
  </outline>
</glyph>
<glyph name="p" format="2">
  <advance width="1117.4530386740332"/>
  <unicode hex="0070"/>
  <anchor x="570.9723756906077" y="-166.0" name="mark0"/>
  <anchor x="612.3977900552486" y="1111.4475138121547" name="top"/>
  <outline>
    <contour>
      <point x="1084.756906077348" y="530.0773480662983" type="curve" smooth="yes"/>
      <point x="1084.756906077348" y="856.4088397790056"/>
      <point x="948.9834254143647" y="1042.342541436464"/>
      <point x="684.011049723757" y="1042.342541436464" type="curve" smooth="yes"/>
      <point x="541.4088397790056" y="1042.342541436464"/>
      <point x="421.4088397790055" y="939.6077348066299"/>
      <point x="399.0939226519337" y="884.9889502762431" type="curve"/>
      <point x="402.71270718232046" y="992.6574585635359" type="line"/>
      <point x="358.2099447513812" y="1028.0939226519338" type="line"/>
      <point x="312.1325966850829" y="1028.0939226519338" type="line"/>
      <point x="7.922651933701658" y="930.4972375690608" type="line"/>
      <point x="7.922651933701658" y="894.8121546961327" type="line"/>
      <point x="123.06629834254143" y="851.1270718232045" type="line"/>
      <point x="123.79005524861878" y="-388.7513812154696" type="line"/>
      <point x="8.685082872928177" y="-421.9226519337017" type="line"/>
      <point x="8.685082872928177" y="-459.37016574585635" type="line"/>
      <point x="519.8950276243094" y="-459.37016574585635" type="line"/>
      <point x="519.8950276243094" y="-421.9226519337017" type="line"/>
      <point x="398.2651933701658" y="-388.7513812154696" type="line"/>
      <point x="398.2651933701658" y="-162.8950276243094" type="line"/>
      <point x="398.2651933701658" y="8.497237569060772" type="line"/>
      <point x="427.30386740331494" y="-5.646408839779006"/>
      <point x="503.9337016574586" y="-22.0"/>
      <point x="583.0497237569061" y="-22.0" type="curve" smooth="yes"/>
      <point x="848.414364640884" y="-22.0"/>
      <point x="1084.756906077348" y="183.97237569060775"/>
    </contour>
    <contour>
      <point x="573.1988950276243" y="926.1270718232045" type="curve" smooth="yes"/>
      <point x="679.878453038674" y="926.1270718232045"/>
      <point x="779.2817679558011" y="825.9337016574585"/>
      <point x="779.2817679558011" y="488.8508287292818" type="curve"/>
      <point x="779.2817679558011" y="186.1878453038674"/>
      <point x="706.2375690607735" y="34.51381215469613"/>
      <point x="563.9944751381215" y="34.51381215469613" type="curve" smooth="yes"/>
      <point x="495.76243093922653" y="34.51381215469613"/>
      <point x="423.1988950276243" y="68.52486187845304"/>
      <point x="399.0939226519337" y="113.82872928176795" type="curve"/>
      <point x="399.0939226519337" y="835.0662983425415" type="line"/>
      <point x="421.9337016574586" y="861.182320441989"/>
      <point x="469.20441988950273" y="926.1270718232045"/>
    </contour>
  </outline>
</glyph>
<glyph name="q" format="2">
  <advance width="1144.011049723757"/>
  <unicode hex="0071"/>
  <outline>
    <contour>
      <point x="627.4475138121547" y="-459.37016574585635" type="line"/>
      <point x="1156.7734806629835" y="-459.37016574585635" type="line"/>
      <point x="1156.7734806629835" y="-420.9226519337017" type="line"/>
      <point x="1058.1823204419888" y="-388.7513812154696" type="line"/>
      <point x="1058.1823204419888" y="1002.8287292817679" type="line"/>
      <point x="1011.707182320442" y="1031.6850828729282" type="line"/>
      <point x="980.4419889502763" y="1031.6850828729282" type="line"/>
      <point x="845.3425414364641" y="979.4751381215469" type="line"/>
      <point x="788.4364640883978" y="1002.2099447513813"/>
      <point x="715.2265193370166" y="1040.8950276243095"/>
      <point x="556.4861878453039" y="1040.8950276243095" type="curve" smooth="yes"/>
      <point x="284.30386740331494" y="1040.8950276243095"/>
      <point x="36.38121546961326" y="857.0718232044198"/>
      <point x="36.38121546961326" y="488.5414364640884" type="curve" smooth="yes"/>
      <point x="36.38121546961326" y="146.6961325966851"/>
      <point x="229.91160220994476" y="-22.723756906077348"/>
      <point x="445.0773480662983" y="-22.723756906077348" type="curve" smooth="yes"/>
      <point x="623.0497237569061" y="-22.723756906077348"/>
      <point x="741.3259668508288" y="71.04972375690608"/>
      <point x="773.1546961325967" y="133.9060773480663" type="curve"/>
      <point x="771.707182320442" y="-46.0" type="line"/>
      <point x="773.1546961325967" y="-388.7513812154696" type="line"/>
      <point x="627.4475138121547" y="-420.9226519337017" type="line"/>
    </contour>
    <contour>
      <point x="567.585635359116" y="95.21546961325967" type="curve" smooth="yes"/>
      <point x="458.52486187845307" y="95.21546961325967"/>
      <point x="360.9502762430939" y="195.96132596685084"/>
      <point x="360.9502762430939" y="525.2541436464088" type="curve" smooth="yes"/>
      <point x="360.9502762430939" y="814.8950276243094"/>
      <point x="435.1933701657459" y="983.6574585635359"/>
      <point x="595.817679558011" y="983.6574585635359" type="curve" smooth="yes"/>
      <point x="697.2762430939226" y="983.6574585635359"/>
      <point x="744.0497237569061" y="947.8563535911602"/>
      <point x="770.9834254143647" y="901.7237569060774" type="curve"/>
      <point x="770.9834254143647" y="185.72375690607734" type="line"/>
      <point x="737.182320441989" y="144.68508287292818"/>
      <point x="651.2375690607735" y="95.21546961325967"/>
    </contour>
  </outline>
</glyph>
<glyph name="r" format="2">
  <advance width="748.3701657458564"/>
  <unicode hex="0072"/>
  <anchor x="277.1657458563536" y="0.0" name="bottom"/>
  <anchor x="413.49723756906076" y="1110.0" name="top"/>
  <outline>
    <contour>
      <point x="8.685082872928177" y="0.0" type="line"/>
      <point x="564.292817679558" y="0.0" type="line"/>
      <point x="564.292817679558" y="37.447513812154696" type="line"/>
      <point x="419.0552486187845" y="71.34254143646409" type="line"/>
      <point x="418.3314917127072" y="688.2983425414365" type="line"/>
      <point x="468.02762430939225" y="756.8453038674033"/>
      <point x="543.9447513812155" y="787.5414364640884"/>
      <point x="626.7845303867404" y="787.5414364640884" type="curve" smooth="yes"/>
      <point x="677.0773480662983" y="787.5414364640884"/>
      <point x="721.646408839779" y="775.8563535911602"/>
      <point x="736.9889502762431" y="762.8950276243094" type="curve"/>
      <point x="736.9889502762431" y="1020.8950276243094" type="line"/>
      <point x="725.2651933701658" y="1027.0662983425414"/>
      <point x="701.5801104972376" y="1030.0662983425414"/>
      <point x="673.9613259668508" y="1030.0662983425414" type="curve" smooth="yes"/>
      <point x="532.0" y="1030.0662983425414"/>
      <point x="427.81767955801104" y="864.8397790055249"/>
      <point x="416.3314917127072" y="795.7127071823204" type="curve"/>
      <point x="408.9889502762431" y="790.1878453038674" type="line"/>
      <point x="413.9889502762431" y="936.988950276243" type="line"/>
      <point x="414.2651933701658" y="994.3812154696133" type="line"/>
      <point x="368.8674033149171" y="1028.0939226519338" type="line"/>
      <point x="311.48618784530385" y="1028.0939226519338" type="line"/>
      <point x="8.646408839779006" y="930.4972375690608" type="line"/>
      <point x="8.646408839779006" y="894.0883977900553" type="line"/>
      <point x="123.06629834254144" y="851.1270718232045" type="line"/>
      <point x="123.06629834254144" y="70.61878453038673" type="line"/>
      <point x="8.685082872928177" y="37.447513812154696" type="line"/>
    </contour>
  </outline>
</glyph>
<glyph name="s" format="2">
  <advance width="946.3259668508288"/>
  <unicode hex="0073"/>
  <anchor x="470.56906077348066" y="-5.790055248618785" name="bottom"/>
  <anchor x="487.01657458563534" y="-172.51381215469613" name="mark0"/>
  <anchor x="490.0552486187845" y="1110.7237569060774" name="top"/>
  <outline>
    <contour>
      <point x="206.1657458563536" y="302.47513812154693" type="line"/>
      <point x="57.72375690607735" y="302.47513812154693" type="line"/>
      <point x="51.209944751381215" y="44.86740331491713" type="line"/>
      <point x="108.85635359116023" y="42.209944751381215"/>
      <point x="283.49171270718233" y="-24.171270718232044"/>
      <point x="439.58563535911605" y="-24.171270718232044" type="curve" smooth="yes"/>
      <point x="800.5303867403316" y="-24.171270718232044"/>
      <point x="890.2762430939226" y="107.98895027624309"/>
      <point x="890.2762430939226" y="307.0552486187845" type="curve" smooth="yes"/>
      <point x="890.2762430939226" y="463.5414364640884"/>
      <point x="717.8839779005525" y="552.2651933701658"/>
      <point x="563.817679558011" y="624.3314917127071" type="curve" smooth="yes"/>
      <point x="437.3425414364641" y="683.7403314917127"/>
      <point x="311.0" y="726.950276243094"/>
      <point x="311.0" y="839.6077348066299" type="curve" smooth="yes"/>
      <point x="311.0" y="929.2099447513812"/>
      <point x="375.9281767955801" y="988.4861878453039"/>
      <point x="487.1381215469613" y="988.4861878453039" type="curve" smooth="yes"/>
      <point x="577.7016574585635" y="988.4861878453039"/>
      <point x="662.9944751381215" y="932.6961325966851"/>
      <point x="676.8232044198895" y="865.232044198895" type="curve"/>
      <point x="710.0055248618785" y="726.2596685082873" type="line"/>
      <point x="837.3149171270718" y="726.2596685082873" type="line"/>
      <point x="845.2762430939226" y="980.0" type="line"/>
      <point x="790.2872928176796" y="987.5524861878453"/>
      <point x="699.6408839779006" y="1038.4475138121547"/>
      <point x="498.060773480663" y="1038.4475138121547" type="curve" smooth="yes"/>
      <point x="208.4696132596685" y="1038.4475138121547"/>
      <point x="56.28729281767956" y="918.6685082872929"/>
      <point x="56.28729281767956" y="744.2872928176796" type="curve" smooth="yes"/>
      <point x="56.28729281767956" y="543.9558011049724"/>
      <point x="219.50276243093924" y="457.34806629834253"/>
      <point x="373.96132596685084" y="388.03314917127074" type="curve" smooth="yes"/>
      <point x="545.4751381215469" y="311.1381215469613"/>
      <point x="662.7900552486187" y="260.44198895027625"/>
      <point x="662.7900552486187" y="174.4696132596685" type="curve" smooth="yes"/>
      <point x="662.7900552486187" y="94.96132596685084"/>
      <point x="582.767955801105" y="29.61878453038674"/>
      <point x="454.70165745856355" y="29.61878453038674" type="curve" smooth="yes"/>
      <point x="366.7955801104972" y="29.61878453038674"/>
      <point x="249.41436464088397" y="92.93370165745856"/>
      <point x="234.45303867403317" y="177.59668508287294" type="curve"/>
    </contour>
  </outline>
</glyph>
<glyph name="t" format="2">
  <advance width="667.3867403314918"/>
  <unicode hex="0074"/>
  <anchor x="370.01657458563534" y="0.0" name="bottom"/>
  <anchor x="395.3756906077348" y="50.09392265193367" name="center"/>
  <anchor x="423.56906077348066" y="9.872928176795597" name="mark0"/>
  <anchor x="332.4806629834254" y="1338.9502762430939" name="top"/>
  <anchor x="628.6132596685082" y="1110.7237569060774" name="topright"/>
  <outline>
    <contour>
      <point x="346.0939226519337" y="-22.685082872928177" type="curve"/>
      <point x="522.3756906077348" y="-22.685082872928177"/>
      <point x="616.585635359116" y="33.828729281767956"/>
      <point x="672.9944751381215" y="85.68508287292818" type="curve"/>
      <point x="645.8618784530387" y="141.3314917127072" type="line"/>
      <point x="611.1381215469613" y="120.77900552486187"/>
      <point x="552.6022099447514" y="97.29281767955801"/>
      <point x="504.97237569060775" y="97.29281767955801" type="curve" smooth="yes"/>
      <point x="450.6022099447514" y="97.29281767955801"/>
      <point x="422.2486187845304" y="114.95027624309392"/>
      <point x="422.2486187845304" y="242.09944751381215" type="curve" smooth="yes"/>
      <point x="422.2486187845304" y="922.5248618784531" type="line"/>
      <point x="626.4806629834254" y="922.5248618784531" type="line"/>
      <point x="626.4806629834254" y="1005.0" type="line"/>
      <point x="420.35359116022096" y="1005.0" type="line"/>
      <point x="421.0773480662983" y="1327.0939226519338" type="line"/>
      <point x="289.1491712707182" y="1327.0939226519338" type="line"/>
      <point x="265.35911602209944" y="1263.0441988950276"/>
      <point x="232.6740331491713" y="1164.8342541436464"/>
      <point x="210.88397790055248" y="1125.624309392265" type="curve" smooth="yes"/>
      <point x="187.30386740331494" y="1084.6629834254143"/>
      <point x="162.5524861878453" y="1028.5801104972375"/>
      <point x="125.86740331491713" y="1008.6187845303867" type="curve" smooth="yes"/>
      <point x="95.28729281767956" y="991.9337016574585"/>
      <point x="29.447513812154693" y="979.2099447513813"/>
      <point x="-7.541436464088402" y="962.6298342541436" type="curve"/>
      <point x="-7.541436464088402" y="922.5248618784531" type="line"/>
      <point x="124.02209944751381" y="922.5248618784531" type="line"/>
      <point x="124.02209944751381" y="205.767955801105" type="line" smooth="yes"/>
      <point x="124.02209944751381" y="45.88397790055249"/>
      <point x="195.78453038674033" y="-22.685082872928177"/>
    </contour>
  </outline>
</glyph>
<glyph name="u" format="2">
  <advance width="1160.1270718232045"/>
  <unicode hex="0075"/>
  <anchor x="601.4364640883978" y="0.0" name="bottom"/>
  <anchor x="621.4364640883978" y="-166.0" name="mark0"/>
  <anchor x="985.4806629834254" y="20.0" name="ogonek"/>
  <anchor x="566.8066298342542" y="1110.0" name="top"/>
  <anchor x="947.4861878453039" y="1028.0939226519338" name="topright"/>
  <outline>
    <contour>
      <point x="909.9226519337017" y="-18.171270718232044" type="curve" smooth="yes"/>
      <point x="1014.110497237569" y="-18.171270718232044"/>
      <point x="1090.3370165745857" y="0.0"/>
      <point x="1139.5745856353592" y="11.104972375690608" type="curve"/>
      <point x="1139.5745856353592" y="47.72375690607735" type="line"/>
      <point x="1054.7348066298343" y="62.19889502762431" type="line"/>
      <point x="1054.7348066298343" y="993.6574585635359" type="line"/>
      <point x="1005.4419889502763" y="1028.0939226519338" type="line"/>
      <point x="966.2707182320441" y="1028.0939226519338" type="line"/>
      <point x="637.3646408839779" y="931.2209944751381" type="line"/>
      <point x="637.3646408839779" y="894.0883977900553" type="line"/>
      <point x="759.4696132596686" y="850.4033149171271" type="line"/>
      <point x="759.4696132596686" y="203.85635359116023" type="line"/>
      <point x="713.4585635359116" y="167.5303867403315"/>
      <point x="647.4254143646409" y="131.13812154696132"/>
      <point x="546.2817679558011" y="131.13812154696132" type="curve" smooth="yes"/>
      <point x="459.7182320441989" y="131.13812154696132"/>
      <point x="407.10497237569064" y="180.1767955801105"/>
      <point x="407.10497237569064" y="323.84530386740335" type="curve" smooth="yes"/>
      <point x="407.10497237569064" y="993.6574585635359" type="line"/>
      <point x="362.878453038674" y="1028.0939226519338" type="line"/>
      <point x="325.32596685082876" y="1028.0939226519338" type="line"/>
      <point x="2.762430939226519" y="931.2209944751381" type="line"/>
      <point x="2.762430939226519" y="894.0883977900553" type="line"/>
      <point x="111.83977900552486" y="850.4033149171271" type="line"/>
      <point x="112.1160220994475" y="334.49171270718233" type="line" smooth="yes"/>
      <point x="112.1160220994475" y="94.61878453038673"/>
      <point x="215.19337016574588" y="-20.0"/>
      <point x="420.4033149171271" y="-20.0" type="curve" smooth="yes"/>
      <point x="575.0883977900553" y="-20.0"/>
      <point x="704.3646408839779" y="61.011049723756905"/>
      <point x="769.1546961325967" y="160.8950276243094" type="curve"/>
      <point x="769.1546961325967" y="69.61878453038673" type="line" smooth="yes"/>
      <point x="769.1546961325967" y="-6.475138121546962"/>
      <point x="823.9723756906078" y="-18.171270718232044"/>
    </contour>
  </outline>
</glyph>
<glyph name="v" format="2">
  <advance width="1018.0828729281768"/>
  <unicode hex="0076"/>
  <outline>
    <contour>
      <point x="-42.43646408839779" y="967.828729281768" type="line"/>
      <point x="46.83977900552486" y="927.0773480662983" type="line"/>
      <point x="383.5359116022099" y="0.0" type="line"/>
      <point x="652.5359116022099" y="0.0" type="line"/>
      <point x="981.4530386740331" y="927.0773480662983" type="line"/>
      <point x="1089.2707182320441" y="967.828729281768" type="line"/>
      <point x="1089.2707182320441" y="1005.0" type="line"/>
      <point x="760.1878453038674" y="1005.0" type="line"/>
      <point x="760.1878453038674" y="967.1049723756906" type="line"/>
      <point x="877.8342541436464" y="927.0773480662983" type="line"/>
      <point x="680.5248618784531" y="294.0110497237569" type="line"/>
      <point x="622.3646408839779" y="109.28176795580112" type="line"/>
      <point x="574.6795580110497" y="293.7348066298342" type="line"/>
      <point x="374.8839779005525" y="927.0773480662983" type="line"/>
      <point x="490.0939226519337" y="967.828729281768" type="line"/>
      <point x="490.0939226519337" y="1005.0" type="line"/>
      <point x="-42.43646408839779" y="1005.0" type="line"/>
    </contour>
  </outline>
</glyph>
<glyph name="x" format="2">
  <advance width="1078.3977900552486"/>
  <unicode hex="0078"/>
  <anchor x="652.2099447513813" y="-166.0" name="mark0"/>
  <outline>
    <contour>
      <point x="86.4696132596685" y="71.0" type="line"/>
      <point x="-23.149171270718234" y="37.72375690607735" type="line"/>
      <point x="-23.149171270718234" y="0.0" type="line"/>
      <point x="353.4475138121547" y="0.0" type="line"/>
      <point x="353.4475138121547" y="37.72375690607735" type="line"/>
      <point x="224.6961325966851" y="71.0" type="line"/>
      <point x="372.28729281767954" y="299.8674033149171" type="line"/>
      <point x="435.74585635359114" y="402.3370165745856" type="line"/>
      <point x="501.62430939226516" y="299.69613259668506" type="line"/>
      <point x="645.292817679558" y="71.0" type="line"/>
      <point x="526.9005524861878" y="37.72375690607735" type="line"/>
      <point x="526.9005524861878" y="0.0" type="line"/>
      <point x="1099.060773480663" y="0.0" type="line"/>
      <point x="1099.060773480663" y="37.72375690607735" type="line"/>
      <point x="999.4033149171271" y="71.0" type="line"/>
      <point x="677.9834254143647" y="550.646408839779" type="line"/>
      <point x="978.8121546961327" y="935.2762430939226" type="line"/>
      <point x="1086.878453038674" y="967.1049723756906" type="line"/>
      <point x="1086.878453038674" y="1005.0" type="line"/>
      <point x="719.2154696132596" y="1005.0" type="line"/>
      <point x="719.2154696132596" y="967.1049723756906" type="line"/>
      <point x="839.1767955801105" y="934.5524861878453" type="line"/>
      <point x="693.4033149171271" y="703.817679558011" type="line"/>
      <point x="637.1933701657458" y="605.9779005524862" type="line"/>
      <point x="574.8397790055249" y="704.5414364640884" type="line"/>
      <point x="428.13259668508283" y="935.2762430939226" type="line"/>
      <point x="548.4585635359116" y="967.1049723756906" type="line"/>
      <point x="548.4585635359116" y="1005.0" type="line"/>
      <point x="-25.464088397790057" y="1005.0" type="line"/>
      <point x="-25.464088397790057" y="967.1049723756906" type="line"/>
      <point x="73.02209944751381" y="935.2762430939226" type="line"/>
      <point x="392.6132596685083" y="460.2209944751381" type="line"/>
    </contour>
  </outline>
</glyph>
<glyph name="y" format="2">
  <advance width="1022.4254143646409"/>
  <unicode hex="0079"/>
  <anchor x="897.6795580110497" y="0.0" name="bottom"/>
  <anchor x="580.0055248618785" y="-166.0" name="mark0"/>
  <anchor x="532.1436464088398" y="1110.7237569060774" name="top"/>
  <outline>
    <contour>
      <point x="235.22099447513813" y="-475.7348066298342" type="curve" smooth="yes"/>
      <point x="427.8674033149171" y="-475.7348066298342"/>
      <point x="524.5138121546961" y="-344.49723756906076"/>
      <point x="647.0773480662983" y="-28.314917127071823" type="curve"/>
      <point x="669.1546961325967" y="22.773480662983424"/>
      <point x="863.3646408839779" y="549.6298342541436"/>
      <point x="995.3756906077348" y="927.0773480662983" type="curve"/>
      <point x="1100.8508287292818" y="967.828729281768" type="line"/>
      <point x="1100.8508287292818" y="1005.0" type="line"/>
      <point x="763.3591160220994" y="1005.0" type="line"/>
      <point x="763.3591160220994" y="967.1049723756906" type="line"/>
      <point x="885.6906077348066" y="927.0773480662983" type="line"/>
      <point x="686.7237569060774" y="288.6685082872928" type="line"/>
      <point x="633.9060773480663" y="101.76795580110497" type="line"/>
      <point x="579.2596685082873" y="303.6961325966851" type="line"/>
      <point x="369.0276243093923" y="927.0773480662983" type="line"/>
      <point x="473.1988950276243" y="967.5524861878453" type="line"/>
      <point x="473.1988950276243" y="1005.0" type="line"/>
      <point x="-49.67403314917127" y="1005.0" type="line"/>
      <point x="-49.67403314917127" y="967.828729281768" type="line"/>
      <point x="42.15469613259668" y="927.0773480662983" type="line"/>
      <point x="384.3646408839779" y="0.0" type="line"/>
      <point x="578.707182320442" y="0.0" type="line"/>
      <point x="521.5082872928177" y="-158.84530386740332"/>
      <point x="396.95580110497235" y="-276.30386740331494"/>
      <point x="237.07734806629836" y="-276.30386740331494" type="curve" smooth="yes"/>
      <point x="190.4585635359116" y="-276.30386740331494"/>
      <point x="153.18232044198894" y="-270.1325966850829"/>
      <point x="129.6685082872928" y="-262.1325966850829" type="curve"/>
      <point x="129.6685082872928" y="-459.56353591160223" type="line"/>
      <point x="146.66850828729284" y="-469.7348066298342"/>
      <point x="181.28729281767957" y="-475.7348066298342"/>
    </contour>
  </outline>
</glyph>
<glyph name="z" format="2">
  <advance width="991.4033149171271"/>
  <unicode hex="007A"/>
  <anchor x="571.7513812154696" y="0.0" name="bottom"/>
  <anchor x="551.9613259668508" y="-173.23756906077347" name="mark0"/>
  <anchor x="544.0220994475138" y="1110.7237569060774" name="top"/>
  <outline>
    <contour>
      <point x="647.9281767955802" y="954.8011049723757" type="line"/>
      <point x="556.6298342541436" y="855.939226519337" type="line"/>
      <point x="7.193370165745847" y="61.23756906077348" type="line"/>
      <point x="49.773480662983424" y="0.0" type="line"/>
      <point x="900.9558011049724" y="0.0" type="line"/>
      <point x="947.8121546961327" y="357.8729281767956" type="line"/>
      <point x="813.9502762430939" y="380.7292817679558" type="line"/>
      <point x="691.8950276243094" y="78.96132596685084" type="line"/>
      <point x="333.5414364640884" y="49.027624309392266" type="line"/>
      <point x="444.83977900552486" y="184.9171270718232" type="line"/>
      <point x="970.4861878453039" y="941.5911602209944" type="line"/>
      <point x="929.9060773480663" y="1005.0" type="line"/>
      <point x="86.62983425414365" y="1002.8287292817679" type="line"/>
      <point x="73.60220994475137" y="664.2596685082873" type="line"/>
      <point x="218.21546961325967" y="666.4309392265193" type="line"/>
      <point x="290.65193370165747" y="930.2099447513813" type="line"/>
    </contour>
  </outline>
</glyph>
<glyph name="braceright" format="2">
  <advance width="1050.6243093922653"/>
  <unicode hex="007D"/>
  <outline>
    <contour>
      <point x="410.55801104972375" y="-279.23756906077347" type="curve" smooth="yes"/>
      <point x="661.5635359116022" y="-279.23756906077347"/>
      <point x="784.8011049723757" y="-171.48618784530387"/>
      <point x="784.8011049723757" y="-6.41988950276243" type="curve" smooth="yes"/>
      <point x="784.8011049723757" y="177.23756906077347"/>
      <point x="656.3646408839779" y="315.8563535911602"/>
      <point x="656.3646408839779" y="455.1325966850829" type="curve" smooth="yes"/>
      <point x="656.3646408839779" y="560.6961325966851"/>
      <point x="711.4530386740331" y="650.8950276243094"/>
      <point x="933.1988950276243" y="650.3425414364641" type="curve"/>
      <point x="933.1988950276243" y="705.1049723756906" type="line"/>
      <point x="711.4530386740331" y="704.5524861878453"/>
      <point x="656.3646408839779" y="774.7900552486187"/>
      <point x="656.3646408839779" y="877.8011049723757" type="curve" smooth="yes"/>
      <point x="656.3646408839779" y="1017.8011049723757"/>
      <point x="784.8011049723757" y="1159.3149171270718"/>
      <point x="784.8011049723757" y="1343.1436464088397" type="curve" smooth="yes"/>
      <point x="784.8011049723757" y="1509.486187845304"/>
      <point x="659.7734806629834" y="1616.6850828729282"/>
      <point x="403.90055248618785" y="1616.6850828729282" type="curve" smooth="yes"/>
      <point x="295.9502762430939" y="1616.6850828729282"/>
      <point x="218.06629834254144" y="1600.342541436464"/>
      <point x="124.41988950276243" y="1576.0" type="curve"/>
      <point x="124.41988950276243" y="1536.0662983425414" type="line"/>
      <point x="161.40883977900552" y="1537.8950276243095"/>
      <point x="216.70718232044197" y="1539.171270718232"/>
      <point x="253.6961325966851" y="1539.171270718232" type="curve" smooth="yes"/>
      <point x="364.3922651933702" y="1539.171270718232"/>
      <point x="459.87292817679554" y="1483.524861878453"/>
      <point x="459.87292817679554" y="1345.5414364640883" type="curve" smooth="yes"/>
      <point x="459.87292817679554" y="1230.0165745856355"/>
      <point x="393.4254143646409" y="1058.8453038674033"/>
      <point x="393.4254143646409" y="921.3591160220994" type="curve" smooth="yes"/>
      <point x="393.4254143646409" y="746.7624309392265"/>
      <point x="552.7348066298342" y="695.0"/>
      <point x="746.5138121546961" y="672.0" type="curve"/>
      <point x="552.7348066298342" y="650.2762430939226"/>
      <point x="393.4254143646409" y="584.5138121546961"/>
      <point x="393.4254143646409" y="411.0220994475138" type="curve" smooth="yes"/>
      <point x="393.4254143646409" y="274.98342541436466"/>
      <point x="459.87292817679554" y="111.60220994475138"/>
      <point x="459.87292817679554" y="-4.646408839779006" type="curve" smooth="yes"/>
      <point x="459.87292817679554" y="-145.18232044198896"/>
      <point x="359.15469613259665" y="-198.82872928176795"/>
      <point x="247.9060773480663" y="-198.82872928176795" type="curve" smooth="yes"/>
      <point x="211.2596685082873" y="-198.82872928176795"/>
      <point x="161.40883977900552" y="-197.0"/>
      <point x="124.41988950276243" y="-195.17127071823205" type="curve"/>
      <point x="124.41988950276243" y="-238.0" type="line"/>
      <point x="207.61878453038673" y="-260.17127071823205"/>
      <point x="303.9889502762431" y="-279.23756906077347"/>
    </contour>
  </outline>
</glyph>
<glyph name="asciitilde" format="2">
  <advance width="1354.5580110497237"/>
  <unicode hex="007E"/>
  <outline>
    <contour>
      <point x="180.0" y="618.0" type="curve"/>
      <point x="214.38121546961327" y="561.0" type="line"/>
      <point x="269.82872928176795" y="632.0"/>
      <point x="356.61878453038673" y="682.0"/>
      <point x="449.58011049723757" y="682.0" type="curve" smooth="yes"/>
      <point x="635.6077348066299" y="682.0"/>
      <point x="661.0552486187845" y="498.0"/>
      <point x="875.0828729281768" y="498.0" type="curve" smooth="yes"/>
      <point x="997.9779005524862" y="498.0"/>
      <point x="1113.2154696132598" y="566.0"/>
      <point x="1174.5580110497237" y="653.0" type="curve"/>
      <point x="1132.1767955801106" y="717.0" type="line"/>
      <point x="1077.4530386740332" y="648.171270718232"/>
      <point x="979.8729281767955" y="589.0"/>
      <point x="885.3591160220994" y="589.0" type="curve" smooth="yes"/>
      <point x="700.7127071823204" y="589.0"/>
      <point x="670.6077348066299" y="773.0"/>
      <point x="474.1988950276243" y="773.0" type="curve" smooth="yes"/>
      <point x="354.1325966850829" y="773.0"/>
      <point x="237.79005524861878" y="701.0"/>
    </contour>
  </outline>
</glyph>
<glyph name="exclamdown" format="2">
  <advance width="634.5303867403316"/>
  <unicode hex="00A1"/>
  <outline>
    <contour>
      <point x="143.00552486187846" y="-478.02762430939225" type="line"/>
      <point x="490.6298342541437" y="-478.02762430939225" type="line"/>
      <point x="343.43646408839777" y="817.8342541436464" type="line"/>
      <point x="286.9889502762431" y="817.8342541436464" type="line"/>
    </contour>
    <contour>
      <point x="332.05524861878456" y="1291.3812154696134" type="curve" smooth="yes"/>
      <point x="225.73480662983428" y="1291.3812154696132"/>
      <point x="153.08839779005524" y="1235.8011049723757"/>
      <point x="153.08839779005524" y="1142.403314917127" type="curve" smooth="yes"/>
      <point x="153.08839779005524" y="1072.9668508287293"/>
      <point x="203.353591160221" y="1007.2541436464088"/>
      <point x="304.64640883977904" y="1007.2541436464088" type="curve" smooth="yes"/>
      <point x="403.0055248618784" y="1007.2541436464088"/>
      <point x="479.8232044198895" y="1068.4530386740332"/>
      <point x="479.8232044198895" y="1156.232044198895" type="curve" smooth="yes"/>
      <point x="479.8232044198895" y="1235.8397790055249"/>
      <point x="413.11049723756906" y="1291.3812154696134"/>
    </contour>
  </outline>
</glyph>
<glyph name="cent" format="2">
  <advance width="1157.0276243093922"/>
  <unicode hex="00A2"/>
  <outline>
    <contour>
      <point x="136.11602209944752" y="501.3149171270718" type="curve" smooth="yes"/>
      <point x="136.11602209944752" y="214.23756906077347"/>
      <point x="268.3259668508287" y="19.303867403314918"/>
      <point x="559.4861878453039" y="-16.104972375690608" type="curve"/>
      <point x="544.4861878453039" y="-238.0" type="line"/>
      <point x="638.7900552486187" y="-238.0" type="line"/>
      <point x="652.7900552486187" y="-22.0" type="line"/>
      <point x="806.0165745856353" y="-20.61878453038674"/>
      <point x="930.5580110497237" y="32.171270718232044"/>
      <point x="1019.7292817679559" y="123.67403314917127" type="curve"/>
      <point x="989.6629834254144" y="176.5303867403315" type="line"/>
      <point x="923.6906077348067" y="136.35911602209944"/>
      <point x="848.2707182320441" y="97.8342541436464"/>
      <point x="758.9447513812155" y="97.8342541436464" type="curve" smooth="yes"/>
      <point x="576.3480662983426" y="97.8342541436464"/>
      <point x="459.6850828729282" y="259.43093922651934"/>
      <point x="459.6850828729282" y="552.3701657458564" type="curve" smooth="yes"/>
      <point x="459.6850828729282" y="822.5193370165746"/>
      <point x="526.4585635359116" y="980.0386740331492"/>
      <point x="680.9116022099447" y="980.0386740331492" type="curve" smooth="yes"/>
      <point x="752.8397790055249" y="980.0386740331492"/>
      <point x="792.1270718232045" y="949.4751381215469"/>
      <point x="806.5359116022099" y="872.2983425414365" type="curve" smooth="yes"/>
      <point x="843.4033149171271" y="684.3646408839779" type="line"/>
      <point x="1017.243093922652" y="684.3646408839779" type="line"/>
      <point x="1028.1381215469614" y="974.4861878453039" type="line"/>
      <point x="977.4917127071823" y="983.2099447513812"/>
      <point x="860.292817679558" y="1033.7900552486187"/>
      <point x="724.2762430939226" y="1040.6187845303866" type="curve"/>
      <point x="749.4475138121547" y="1368.6187845303868" type="line"/>
      <point x="665.6574585635359" y="1368.6187845303868" type="line"/>
      <point x="639.7624309392265" y="1040.171270718232" type="line"/>
      <point x="332.0" y="1019.5524861878453"/>
      <point x="136.11602209944752" y="808.1602209944751"/>
    </contour>
  </outline>
</glyph>
<glyph name="section" format="2">
  <advance width="1447.6022099447514"/>
  <unicode hex="00A7"/>
  <outline>
    <contour>
      <point x="398.5359116022099" y="224.8011049723757" type="line"/>
      <point x="220.3425414364641" y="224.8011049723757" type="line"/>
      <point x="201.17127071823205" y="-106.0" type="line"/>
      <point x="271.23756906077347" y="-112.0"/>
      <point x="442.9668508287293" y="-198.0"/>
      <point x="707.414364640884" y="-198.0" type="curve" smooth="yes"/>
      <point x="1077.4696132596684" y="-198.0"/>
      <point x="1234.364640883978" y="-29.011049723756905"/>
      <point x="1234.364640883978" y="147.16022099447514" type="curve" smooth="yes"/>
      <point x="1234.364640883978" y="236.3038674033149"/>
      <point x="1193.4972375690609" y="315.17127071823205"/>
      <point x="1111.353591160221" y="379.7900552486188" type="curve"/>
      <point x="1204.8121546961327" y="445.0"/>
      <point x="1276.220994475138" y="563.9779005524862"/>
      <point x="1276.220994475138" y="699.9005524861878" type="curve" smooth="yes"/>
      <point x="1276.220994475138" y="956.3812154696133"/>
      <point x="1020.4861878453039" y="1050.8011049723757"/>
      <point x="816.1049723756906" y="1133.353591160221" type="curve" smooth="yes"/>
      <point x="653.5966850828729" y="1201.0220994475137"/>
      <point x="494.97237569060775" y="1260.707182320442"/>
      <point x="494.97237569060775" y="1402.8066298342542" type="curve" smooth="yes"/>
      <point x="494.97237569060775" y="1517.171270718232"/>
      <point x="597.2983425414365" y="1588.486187845304"/>
      <point x="741.7292817679559" y="1588.486187845304" type="curve" smooth="yes"/>
      <point x="840.5027624309392" y="1588.486187845304"/>
      <point x="929.7513812154696" y="1555.171270718232"/>
      <point x="943.9337016574586" y="1527.2762430939226" type="curve"/>
      <point x="1000.9613259668508" y="1264.8563535911603" type="line"/>
      <point x="1163.0220994475137" y="1264.8563535911603" type="line"/>
      <point x="1178.7845303867402" y="1572.0" type="line"/>
      <point x="1115.9668508287293" y="1579.2375690607735"/>
      <point x="954.8342541436464" y="1644.7237569060774"/>
      <point x="744.3204419889503" y="1644.7237569060774" type="curve" smooth="yes"/>
      <point x="449.43646408839777" y="1644.7237569060774"/>
      <point x="233.8950276243094" y="1516.0"/>
      <point x="233.8950276243094" y="1308.3149171270718" type="curve" smooth="yes"/>
      <point x="233.8950276243094" y="1209.0386740331492"/>
      <point x="283.61878453038673" y="1126.486187845304"/>
      <point x="350.76243093922653" y="1069.657458563536" type="curve"/>
      <point x="249.62983425414365" y="1000.8011049723757"/>
      <point x="184.3425414364641" y="901.5359116022099"/>
      <point x="184.3425414364641" y="769.2596685082873" type="curve" smooth="yes"/>
      <point x="184.3425414364641" y="542.6408839779006"/>
      <point x="371.08839779005524" y="426.060773480663"/>
      <point x="612.2541436464088" y="320.8066298342541" type="curve" smooth="yes"/>
      <point x="806.0276243093922" y="236.32044198895028"/>
      <point x="972.2486187845304" y="183.28176795580112"/>
      <point x="972.2486187845304" y="44.193370165745854" type="curve" smooth="yes"/>
      <point x="972.2486187845304" y="-68.85635359116023"/>
      <point x="862.5524861878453" y="-143.20994475138122"/>
      <point x="698.5966850828729" y="-143.20994475138122" type="curve" smooth="yes"/>
      <point x="576.7182320441989" y="-143.20994475138122"/>
      <point x="471.2707182320442" y="-103.17127071823205"/>
      <point x="442.4033149171271" y="-61.552486187845304" type="curve"/>
    </contour>
    <contour>
      <point x="731.8729281767955" y="578.5524861878453" type="curve" smooth="yes"/>
      <point x="514.2762430939226" y="680.646408839779"/>
      <point x="385.5193370165746" y="762.1325966850828"/>
      <point x="385.5193370165746" y="894.6353591160221" type="curve" smooth="yes"/>
      <point x="385.5193370165746" y="937.8950276243094"/>
      <point x="399.70165745856355" y="982.353591160221"/>
      <point x="425.5414364640884" y="1013.3922651933701" type="curve"/>
      <point x="509.1988950276243" y="961.6685082872929"/>
      <point x="576.646408839779" y="933.6685082872929"/>
      <point x="704.5138121546961" y="878.6685082872929" type="curve" smooth="yes"/>
      <point x="914.0" y="788.0497237569061"/>
      <point x="1061.1491712707182" y="709.0497237569061"/>
      <point x="1061.1491712707182" y="562.2209944751381" type="curve" smooth="yes"/>
      <point x="1061.1491712707182" y="523.1436464088398"/>
      <point x="1051.4917127071824" y="475.81767955801104"/>
      <point x="1022.7845303867404" y="442.121546961326" type="curve"/>
      <point x="921.4696132596684" y="497.01657458563534"/>
      <point x="872.4696132596684" y="513.0110497237569"/>
    </contour>
  </outline>
</glyph>
<glyph name="copyright" format="2">
  <advance width="2046.3259668508288"/>
  <unicode hex="00A9"/>
  <outline>
    <contour>
      <point x="188.85635359116023" y="973.7513812154696" type="curve" smooth="yes"/>
      <point x="188.85635359116023" y="497.7513812154696"/>
      <point x="561.292817679558" y="119.27624309392266"/>
      <point x="1024.110497237569" y="119.27624309392266" type="curve" smooth="yes"/>
      <point x="1488.8232044198894" y="119.27624309392266"/>
      <point x="1857.4696132596684" y="497.7513812154696"/>
      <point x="1857.4696132596684" y="973.7513812154696" type="curve" smooth="yes"/>
      <point x="1857.4696132596684" y="1447.7513812154696"/>
      <point x="1488.8232044198894" y="1824.9502762430939"/>
      <point x="1024.110497237569" y="1824.9502762430939" type="curve" smooth="yes"/>
      <point x="559.8453038674033" y="1824.9502762430939"/>
      <point x="188.85635359116023" y="1450.646408839779"/>
    </contour>
    <contour>
      <point x="279.5303867403315" y="973.0276243093923" type="curve" smooth="yes"/>
      <point x="279.5303867403315" y="1405.6850828729282"/>
      <point x="604.0441988950276" y="1746.342541436464"/>
      <point x="1024.110497237569" y="1746.342541436464" type="curve" smooth="yes"/>
      <point x="1441.0055248618785" y="1746.342541436464"/>
      <point x="1766.243093922652" y="1402.7900552486187"/>
      <point x="1766.243093922652" y="973.7513812154696" type="curve" smooth="yes"/>
      <point x="1766.243093922652" y="542.7127071823204"/>
      <point x="1438.110497237569" y="200.60773480662982"/>
      <point x="1024.110497237569" y="200.60773480662982" type="curve" smooth="yes"/>
      <point x="605.0441988950276" y="200.60773480662982"/>
      <point x="279.5303867403315" y="539.817679558011"/>
    </contour>
    <contour>
      <point x="1028.585635359116" y="497.7513812154696" type="curve" smooth="yes"/>
      <point x="1171.9668508287293" y="497.7513812154696"/>
      <point x="1293.5082872928176" y="576.0939226519337"/>
      <point x="1350.1657458563536" y="645.5414364640884" type="curve"/>
      <point x="1326.2707182320441" y="696.0165745856353" type="line"/>
      <point x="1272.1657458563536" y="644.8729281767955"/>
      <point x="1183.232044198895" y="607.6629834254144"/>
      <point x="1097.3370165745857" y="607.6629834254144" type="curve" smooth="yes"/>
      <point x="921.8232044198895" y="607.6629834254144"/>
      <point x="803.1657458563536" y="764.2541436464088"/>
      <point x="803.1657458563536" y="1006.7513812154696" type="curve" smooth="yes"/>
      <point x="803.1657458563536" y="1231.0662983425414"/>
      <point x="900.232044198895" y="1396.513812154696"/>
      <point x="1046.3204419889503" y="1396.513812154696" type="curve" smooth="yes"/>
      <point x="1101.6740331491712" y="1396.513812154696"/>
      <point x="1154.9502762430939" y="1379.9226519337017"/>
      <point x="1175.121546961326" y="1361.0939226519338" type="curve"/>
      <point x="1219.121546961326" y="1158.9723756906078" type="line"/>
      <point x="1334.2044198895028" y="1158.9723756906078" type="line"/>
      <point x="1337.375690607735" y="1398.646408839779" type="line"/>
      <point x="1299.9281767955802" y="1436.646408839779"/>
      <point x="1175.414364640884" y="1457.3701657458564"/>
      <point x="1090.5193370165746" y="1457.3701657458564" type="curve" smooth="yes"/>
      <point x="806.2541436464088" y="1457.3701657458564"/>
      <point x="604.4640883977901" y="1246.646408839779"/>
      <point x="604.4640883977901" y="964.9502762430939" type="curve" smooth="yes"/>
      <point x="604.4640883977901" y="693.6077348066299"/>
      <point x="752.8839779005525" y="497.7513812154696"/>
    </contour>
  </outline>
</glyph>
<glyph name="guillemetleft" format="2">
  <advance width="1254.4309392265195"/>
  <unicode hex="00AB"/>
  <outline>
    <contour>
      <point x="583.6906077348067" y="981.243093922652" type="line"/>
      <point x="84.97237569060772" y="553.8563535911602" type="line"/>
      <point x="84.97237569060772" y="495.0" type="line"/>
      <point x="583.6906077348067" y="76.88950276243094" type="line"/>
      <point x="625.8618784530387" y="101.92817679558011" type="line"/>
      <point x="345.29834254143645" y="524.6187845303867" type="line"/>
      <point x="625.8618784530387" y="959.756906077348" type="line"/>
    </contour>
    <contour>
      <point x="1103.7734806629835" y="981.243093922652" type="line"/>
      <point x="577.8839779005525" y="553.8563535911602" type="line"/>
      <point x="577.8839779005525" y="495.0" type="line"/>
      <point x="1103.7734806629835" y="76.88950276243094" type="line"/>
      <point x="1147.1160220994475" y="101.92817679558011" type="line"/>
      <point x="838.2099447513813" y="524.6187845303867" type="line"/>
      <point x="1147.1160220994475" y="959.756906077348" type="line"/>
    </contour>
  </outline>
</glyph>
<glyph name="logicalnot" format="2">
  <advance width="1462.46408839779"/>
  <unicode hex="00AC"/>
  <outline>
    <contour>
      <point x="1248.46408839779" y="695.0" type="line"/>
      <point x="180.0" y="695.0" type="line"/>
      <point x="180.0" y="611.0" type="line"/>
      <point x="1160.46408839779" y="611.0" type="line"/>
      <point x="1160.46408839779" y="184.0" type="line"/>
      <point x="1248.46408839779" y="184.0" type="line"/>
    </contour>
  </outline>
</glyph>
<glyph name="softhyphen" format="2">
  <advance width="1125.2762430939226"/>
  <unicode hex="00AD"/>
  <outline>
    <contour>
      <point x="969.2762430939226" y="628.3314917127072" type="line"/>
      <point x="156.0" y="628.3314917127072" type="line"/>
      <point x="156.0" y="504.69613259668506" type="line"/>
      <point x="969.2762430939226" y="504.69613259668506" type="line"/>
    </contour>
  </outline>
</glyph>
<glyph name="plusminus" format="2">
  <advance width="1327.6298342541436"/>
  <unicode hex="00B1"/>
  <outline>
    <contour>
      <point x="375.7900552486188" y="755.0" type="line"/>
      <point x="180.0" y="755.0" type="line"/>
      <point x="180.0" y="669.0" type="line"/>
      <point x="375.7900552486188" y="669.0" type="line"/>
      <point x="619.4861878453039" y="669.0" type="line"/>
      <point x="619.4861878453039" y="468.0" type="line"/>
      <point x="619.4861878453039" y="240.0" type="line"/>
      <point x="707.1436464088398" y="240.0" type="line"/>
      <point x="707.1436464088398" y="468.0" type="line"/>
      <point x="707.1436464088398" y="669.0" type="line"/>
      <point x="921.0110497237569" y="669.0" type="line"/>
      <point x="1147.6298342541436" y="669.0" type="line"/>
      <point x="1147.6298342541436" y="755.0" type="line"/>
      <point x="921.0110497237569" y="755.0" type="line"/>
      <point x="707.1436464088398" y="755.0" type="line"/>
      <point x="707.1436464088398" y="964.0" type="line"/>
      <point x="707.1436464088398" y="1183.0" type="line"/>
      <point x="619.4861878453039" y="1183.0" type="line"/>
      <point x="619.4861878453039" y="964.0" type="line"/>
      <point x="619.4861878453039" y="755.0" type="line"/>
    </contour>
    <contour>
      <point x="1120.0773480662983" y="78.0" type="line"/>
      <point x="210.55248618784532" y="78.0" type="line"/>
      <point x="210.55248618784532" y="0.0" type="line"/>
      <point x="1120.0773480662983" y="0.0" type="line"/>
    </contour>
  </outline>
</glyph>
<glyph name="micro" format="2">
  <advance width="1336.3977900552486"/>
  <unicode hex="00B5"/>
  <outline>
    <contour>
      <point x="212.0" y="-362.5524861878453" type="line"/>
      <point x="481.50276243093924" y="-362.5524861878453" type="line"/>
      <point x="481.50276243093924" y="47.72375690607734" type="line"/>
      <point x="531.4088397790056" y="1.3425414364640886"/>
      <point x="581.3038674033149" y="-18.552486187845304"/>
      <point x="636.9337016574585" y="-18.552486187845304" type="curve" smooth="yes"/>
      <point x="751.243093922652" y="-18.552486187845304"/>
      <point x="843.3867403314918" y="60.83977900552486"/>
      <point x="883.5690607734807" y="171.75138121546962" type="curve"/>
      <point x="883.5690607734807" y="69.61878453038673" type="line" smooth="yes"/>
      <point x="883.5690607734807" y="33.14364640883977"/>
      <point x="883.5690607734807" y="-18.895027624309392"/>
      <point x="1021.6906077348067" y="-18.895027624309392" type="curve" smooth="yes"/>
      <point x="1118.8397790055249" y="-18.895027624309392"/>
      <point x="1225.0165745856355" y="5.790055248618785"/>
      <point x="1248.132596685083" y="11.104972375690608" type="curve"/>
      <point x="1248.132596685083" y="47.72375690607735" type="line"/>
      <point x="1163.4254143646408" y="62.19889502762431" type="line"/>
      <point x="1163.4254143646408" y="993.6574585635359" type="line"/>
      <point x="1115.4088397790056" y="1028.0939226519338" type="line"/>
      <point x="744.5027624309392" y="931.2209944751381" type="line"/>
      <point x="744.5027624309392" y="894.0883977900553" type="line"/>
      <point x="866.9226519337017" y="850.4033149171271" type="line"/>
      <point x="866.9226519337017" y="203.85635359116023" type="line"/>
      <point x="818.6077348066299" y="161.50276243093924"/>
      <point x="744.889502762431" y="133.90055248618785"/>
      <point x="677.828729281768" y="133.90055248618785" type="curve" smooth="yes"/>
      <point x="548.8232044198895" y="133.90055248618785"/>
      <point x="502.43646408839777" y="235.28729281767954"/>
      <point x="502.43646408839777" y="332.1325966850829" type="curve" smooth="yes"/>
      <point x="502.43646408839777" y="993.6574585635359" type="line"/>
      <point x="457.03867403314916" y="1028.0939226519338" type="line"/>
      <point x="97.71270718232044" y="931.2209944751381" type="line"/>
      <point x="97.71270718232044" y="894.0883977900553" type="line"/>
      <point x="211.72375690607734" y="850.4033149171271" type="line"/>
    </contour>
  </outline>
</glyph>
<glyph name="periodcentered" format="2">
  <advance width="640.9447513812155"/>
  <unicode hex="00B7"/>
  <outline>
    <contour>
      <point x="304.8729281767956" y="548.9834254143647" type="curve" smooth="yes"/>
      <point x="412.29834254143645" y="548.9834254143647"/>
      <point x="483.83977900552486" y="604.5635359116022"/>
      <point x="483.83977900552486" y="697.9613259668508" type="curve" smooth="yes"/>
      <point x="483.83977900552486" y="767.3977900552486"/>
      <point x="434.6795580110497" y="833.110497237569"/>
      <point x="332.2817679558011" y="833.110497237569" type="curve" smooth="yes"/>
      <point x="232.81767955801104" y="833.110497237569"/>
      <point x="157.1049723756906" y="771.9116022099447"/>
      <point x="157.1049723756906" y="684.1325966850828" type="curve" smooth="yes"/>
      <point x="157.1049723756906" y="604.5248618784531"/>
      <point x="222.71270718232046" y="548.9834254143647"/>
    </contour>
  </outline>
</glyph>
<glyph name="AE" format="2">
  <advance width="1852.3314917127072"/>
  <unicode hex="00C6"/>
  <anchor x="843.707182320442" y="0.0" name="bottom"/>
  <anchor x="804.0497237569061" y="-166.0" name="mark0"/>
  <anchor x="887.9060773480663" y="1486.0" name="top"/>
  <outline>
    <contour>
      <point x="721.5027624309392" y="75.68508287292818" type="line"/>
      <point x="585.7403314917127" y="37.447513812154696" type="line"/>
      <point x="585.7403314917127" y="0.0" type="line"/>
      <point x="1761.0165745856355" y="0.0" type="line"/>
      <point x="1834.596685082873" y="383.3204419889503" type="line"/>
      <point x="1703.4585635359117" y="410.76795580110496" type="line"/>
      <point x="1555.5082872928176" y="99.12154696132598" type="line"/>
      <point x="1044.9668508287293" y="56.23756906077348" type="line"/>
      <point x="1044.9668508287293" y="735.7237569060774" type="line"/>
      <point x="1353.9171270718232" y="727.0662983425415" type="line"/>
      <point x="1433.342541436464" y="513.0497237569061" type="line"/>
      <point x="1498.9226519337017" y="513.0497237569061" type="line"/>
      <point x="1498.9226519337017" y="998.4751381215469" type="line"/>
      <point x="1432.6187845303868" y="998.4751381215469" type="line"/>
      <point x="1354.6408839779006" y="797.8674033149172" type="line"/>
      <point x="1044.9668508287293" y="789.3812154696133" type="line"/>
      <point x="1044.9668508287293" y="1428.9337016574586" type="line"/>
      <point x="1471.0607734806629" y="1406.0773480662983" type="line"/>
      <point x="1584.3922651933701" y="1134.8232044198894" type="line"/>
      <point x="1696.7127071823204" y="1134.8232044198894" type="line"/>
      <point x="1666.2651933701657" y="1486.0" type="line"/>
      <point x="332.4806629834254" y="1486.0" type="line"/>
      <point x="332.4806629834254" y="1450.0" type="line"/>
      <point x="561.011049723757" y="1380.878453038674" type="line"/>
      <point x="-19.30386740331491" y="110.11049723756906" type="line"/>
      <point x="-160.5303867403315" y="37.447513812154696" type="line"/>
      <point x="-160.5303867403315" y="0.0" type="line"/>
      <point x="228.1657458563536" y="0.0" type="line"/>
      <point x="227.88950276243094" y="37.447513812154696" type="line"/>
      <point x="73.12707182320443" y="107.04419889502762" type="line"/>
      <point x="218.9668508287293" y="452.6795580110497" type="line"/>
      <point x="721.5027624309392" y="452.6795580110497" type="line"/>
    </contour>
    <contour>
      <point x="721.7790055248619" y="518.3370165745856" type="line"/>
      <point x="247.6906077348066" y="518.3370165745856" type="line"/>
      <point x="548.6574585635359" y="1175.254143646409" type="line"/>
      <point x="655.4861878453039" y="1418.0773480662983" type="line"/>
      <point x="721.7790055248619" y="1418.0773480662983" type="line"/>
    </contour>
  </outline>
</glyph>
<glyph name="Eth" format="2">
  <advance width="1500.4806629834254"/>
  <unicode hex="00D0"/>
  <anchor x="699.7900552486187" y="0.0" name="bottom"/>
  <anchor x="699.7900552486187" y="744.0" name="center"/>
  <anchor x="731.9613259668508" y="-166.0" name="mark0"/>
  <anchor x="699.7900552486187" y="1486.0" name="top"/>
  <outline>
    <contour>
      <point x="93.39226519337016" y="708.2872928176796" type="line"/>
      <point x="831.5414364640884" y="708.2872928176796" type="line"/>
      <point x="831.5414364640884" y="833.5801104972376" type="line"/>
      <point x="93.39226519337016" y="833.5801104972376" type="line"/>
    </contour>
    <component base="D"/>
  </outline>
</glyph>
<glyph name="multiply" format="2">
  <advance width="1139.7955801104972"/>
  <unicode hex="00D7"/>
  <outline>
    <contour>
      <point x="517.5524861878453" y="600.828729281768" type="line"/>
      <point x="153.43093922651934" y="231.0110497237569" type="line"/>
      <point x="202.4696132596685" y="179.14364640883977" type="line"/>
      <point x="562.4861878453039" y="550.3812154696133" type="line"/>
      <point x="920.9502762430939" y="180.59116022099448" type="line"/>
      <point x="968.2651933701658" y="230.0110497237569" type="line"/>
      <point x="602.2486187845304" y="601.0" type="line"/>
      <point x="968.9889502762431" y="972.8839779005525" type="line"/>
      <point x="919.2265193370166" y="1026.3038674033148" type="line"/>
      <point x="559.3149171270718" y="654.6187845303867" type="line"/>
      <point x="199.5745856353591" y="1024.8563535911603" type="line"/>
      <point x="149.53591160220995" y="973.9889502762431" type="line"/>
    </contour>
  </outline>
</glyph>
<glyph name="Thorn" format="2">
  <advance width="1250.6022099447514"/>
  <unicode hex="00DE"/>
  <outline>
    <contour>
      <point x="154.48618784530387" y="71.34254143646409" type="line"/>
      <point x="22.97237569060772" y="37.0" type="line"/>
      <point x="22.97237569060772" y="0.0" type="line"/>
      <point x="616.4640883977901" y="0.0" type="line"/>
      <point x="616.4640883977901" y="37.72375690607735" type="line"/>
      <point x="470.05524861878456" y="69.89502762430939" type="line"/>
      <point x="470.05524861878456" y="342.9889502762431" type="line"/>
      <point x="499.0939226519337" y="337.6077348066298"/>
      <point x="589.1436464088398" y="332.7790055248619"/>
      <point x="704.414364640884" y="332.7790055248619" type="curve" smooth="yes"/>
      <point x="1017.2983425414365" y="332.7790055248619"/>
      <point x="1198.060773480663" y="512.5414364640884"/>
      <point x="1198.060773480663" y="770.2099447513813" type="curve" smooth="yes"/>
      <point x="1198.060773480663" y="1033.4088397790056"/>
      <point x="1032.1381215469614" y="1163.1160220994475"/>
      <point x="740.5469613259669" y="1163.1160220994475" type="curve" smooth="yes"/>
      <point x="620.9005524861878" y="1163.1160220994475"/>
      <point x="509.9226519337017" y="1149.8397790055249"/>
      <point x="470.05524861878456" y="1146.9447513812154" type="curve"/>
      <point x="470.05524861878456" y="1414.2099447513813" type="line"/>
      <point x="616.7403314917127" y="1450.0" type="line"/>
      <point x="616.7403314917127" y="1486.7237569060774" type="line"/>
      <point x="23.972375690607734" y="1486.7237569060774" type="line"/>
      <point x="23.972375690607734" y="1450.0" type="line"/>
      <point x="154.48618784530387" y="1414.2099447513813" type="line"/>
    </contour>
    <contour>
      <point x="610.011049723757" y="387.4640883977901" type="curve" smooth="yes"/>
      <point x="543.6685082872929" y="387.4640883977901"/>
      <point x="490.6574585635359" y="393.7790055248619"/>
      <point x="470.05524861878456" y="405.3314917127072" type="curve"/>
      <point x="470.05524861878456" y="1084.1823204419888" type="line"/>
      <point x="505.7513812154696" y="1093.3259668508288"/>
      <point x="551.6408839779006" y="1102.2596685082872"/>
      <point x="616.9171270718232" y="1102.2596685082872" type="curve" smooth="yes"/>
      <point x="791.767955801105" y="1102.2596685082872"/>
      <point x="859.8066298342542" y="968.6408839779006"/>
      <point x="859.8066298342542" y="761.5248618784531" type="curve" smooth="yes"/>
      <point x="859.8066298342542" y="542.5690607734807"/>
      <point x="768.3093922651933" y="387.4640883977901"/>
    </contour>
  </outline>
</glyph>
<glyph name="germandbls" format="2">
  <advance width="1211.9281767955802"/>
  <unicode hex="00DF"/>
  <outline>
    <contour>
      <point x="119.08839779005524" y="71.5524861878453" type="line"/>
      <point x="9.104972375690608" y="38.0" type="line"/>
      <point x="9.104972375690608" y="0.0" type="line"/>
      <point x="413.69613259668506" y="0.0" type="line"/>
      <point x="413.69613259668506" y="972.1878453038674" type="line" smooth="yes"/>
      <point x="413.69613259668506" y="1294.596685082873"/>
      <point x="470.50828729281767" y="1499.828729281768"/>
      <point x="635.4640883977901" y="1499.828729281768" type="curve" smooth="yes"/>
      <point x="723.6187845303867" y="1499.828729281768"/>
      <point x="776.4585635359116" y="1426.5801104972375"/>
      <point x="776.4585635359116" y="1300.0828729281768" type="curve" smooth="yes"/>
      <point x="776.4585635359116" y="961.4696132596684"/>
      <point x="591.0662983425415" y="959.585635359116"/>
      <point x="591.0662983425415" y="817.0165745856353" type="curve" smooth="yes"/>
      <point x="591.0662983425415" y="674.4033149171271"/>
      <point x="839.9060773480663" y="594.0994475138122"/>
      <point x="839.9060773480663" y="304.9337016574586" type="curve" smooth="yes"/>
      <point x="839.9060773480663" y="196.4254143646409"/>
      <point x="811.5911602209944" y="37.447513812154696"/>
      <point x="648.3701657458564" y="37.447513812154696" type="curve" smooth="yes"/>
      <point x="573.767955801105" y="37.447513812154696"/>
      <point x="537.889502762431" y="59.41988950276243"/>
      <point x="500.0883977900553" y="77.9060773480663" type="curve"/>
      <point x="500.0883977900553" y="0.0" type="line"/>
      <point x="528.6795580110497" y="-10.723756906077348"/>
      <point x="609.7458563535912" y="-22.0"/>
      <point x="673.878453038674" y="-22.0" type="curve" smooth="yes"/>
      <point x="980.121546961326" y="-22.0"/>
      <point x="1169.0552486187846" y="122.01657458563537"/>
      <point x="1169.0552486187846" y="340.0939226519337" type="curve" smooth="yes"/>
      <point x="1169.0552486187846" y="706.1436464088398"/>
      <point x="702.0552486187845" y="745.3259668508288"/>
      <point x="702.0552486187845" y="881.6906077348067" type="curve" smooth="yes"/>
      <point x="702.0552486187845" y="1006.2707182320441"/>
      <point x="1049.8011049723757" y="1000.8397790055249"/>
      <point x="1049.8011049723757" y="1286.3701657458564" type="curve" smooth="yes"/>
      <point x="1049.8011049723757" y="1455.3149171270718"/>
      <point x="915.4198895027624" y="1553.0662983425414"/>
      <point x="661.3204419889503" y="1553.0662983425414" type="curve" smooth="yes"/>
      <point x="339.18232044198896" y="1553.0662983425414"/>
      <point x="119.08839779005524" y="1287.1049723756905"/>
      <point x="119.08839779005524" y="916.1602209944751" type="curve" smooth="yes"/>
    </contour>
  </outline>
</glyph>
<glyph name="ae" format="2">
  <advance width="1503.8729281767955"/>
  <unicode hex="00E6"/>
  <anchor x="786.0662983425415" y="0.0" name="bottom"/>
  <anchor x="826.0662983425415" y="1110.7237569060774" name="top"/>
  <outline>
    <contour>
      <point x="293.41988950276243" y="-20.513812154696133" type="curve" smooth="yes"/>
      <point x="435.97237569060775" y="-20.513812154696133"/>
      <point x="572.1049723756906" y="51.12707182320442"/>
      <point x="639.5248618784531" y="202.6022099447514" type="curve"/>
      <point x="713.5248618784531" y="65.60220994475138"/>
      <point x="849.5524861878453" y="-25.104972375690608"/>
      <point x="1070.5524861878453" y="-24.0" type="curve" smooth="yes"/>
      <point x="1225.8729281767955" y="-23.447513812154696"/>
      <point x="1381.2707182320441" y="56.43646408839779"/>
      <point x="1440.9668508287293" y="119.92265193370166" type="curve"/>
      <point x="1416.3480662983425" y="171.50276243093924" type="line"/>
      <point x="1359.5193370165746" y="126.84530386740332"/>
      <point x="1250.9668508287293" y="96.38674033149172"/>
      <point x="1167.8121546961327" y="96.38674033149172" type="curve" smooth="yes"/>
      <point x="981.6187845303867" y="96.38674033149172"/>
      <point x="894.0386740331492" y="243.50828729281767"/>
      <point x="886.8011049723757" y="506.69613259668506" type="curve"/>
      <point x="1460.939226519337" y="506.69613259668506" type="line"/>
      <point x="1469.8342541436464" y="533.9060773480663"/>
      <point x="1475.2817679558011" y="585.3812154696133"/>
      <point x="1475.2817679558011" y="673.0662983425415" type="curve"/>
      <point x="1472.3867403314916" y="911.6187845303867"/>
      <point x="1321.3204419889503" y="1041.171270718232"/>
      <point x="1072.988950276243" y="1041.171270718232" type="curve" smooth="yes"/>
      <point x="945.6906077348067" y="1041.171270718232"/>
      <point x="840.7845303867404" y="987.4806629834254"/>
      <point x="774.8729281767955" y="936.414364640884" type="curve"/>
      <point x="715.5027624309392" y="1010.6850828729282"/>
      <point x="618.4254143646409" y="1037.0"/>
      <point x="511.4254143646409" y="1037.0" type="curve" smooth="yes"/>
      <point x="316.646408839779" y="1037.0"/>
      <point x="144.03867403314916" y="948.3149171270718"/>
      <point x="77.97237569060773" y="899.353591160221" type="curve"/>
      <point x="110.76243093922652" y="832.9834254143647" type="line"/>
      <point x="169.0110497237569" y="859.7182320441989"/>
      <point x="277.15469613259665" y="892.6519337016574"/>
      <point x="399.1933701657459" y="892.6519337016574" type="curve" smooth="yes"/>
      <point x="519.9944751381215" y="892.6519337016574"/>
      <point x="579.0497237569061" y="817.8397790055249"/>
      <point x="579.0497237569061" y="721.0" type="curve"/>
      <point x="579.0497237569061" y="595.5801104972376" type="line"/>
      <point x="354.0497237569061" y="595.5801104972376"/>
      <point x="16.80110497237569" y="513.3038674033149"/>
      <point x="16.80110497237569" y="256.30386740331494" type="curve" smooth="yes"/>
      <point x="16.80110497237569" y="84.26519337016575"/>
      <point x="131.02209944751382" y="-20.513812154696133"/>
    </contour>
    <contour>
      <point x="885.6298342541437" y="557.9337016574585" type="line"/>
      <point x="892.8674033149172" y="863.0497237569061"/>
      <point x="955.0497237569061" y="986.828729281768"/>
      <point x="1059.8950276243095" y="986.828729281768" type="curve" smooth="yes"/>
      <point x="1155.889502762431" y="986.828729281768"/>
      <point x="1182.8066298342542" y="882.1988950276243"/>
      <point x="1182.8066298342542" y="674.9116022099447" type="curve" smooth="yes"/>
      <point x="1182.8066298342542" y="651.121546961326"/>
      <point x="1181.0828729281768" y="598.0386740331492"/>
      <point x="1179.977900552486" y="572.3149171270718" type="curve"/>
    </contour>
    <contour>
      <point x="433.50828729281767" y="117.04419889502762" type="curve" smooth="yes"/>
      <point x="359.1546961325967" y="117.04419889502762"/>
      <point x="302.1436464088398" y="191.4254143646409"/>
      <point x="302.1436464088398" y="296.7403314917127" type="curve" smooth="yes"/>
      <point x="302.1436464088398" y="443.4475138121547"/>
      <point x="430.0497237569061" y="539.7900552486187"/>
      <point x="579.0497237569061" y="540.7900552486187" type="curve"/>
      <point x="579.0497237569061" y="416.7900552486188"/>
      <point x="583.7071823204419" y="333.9337016574586"/>
      <point x="623.7348066298342" y="235.83977900552486" type="curve"/>
      <point x="583.6850828729282" y="174.77900552486187"/>
      <point x="518.8342541436464" y="117.04419889502762"/>
    </contour>
  </outline>
</glyph>
<glyph name="eth" format="2">
  <advance width="1190.3204419889503"/>
  <unicode hex="00F0"/>
  <outline>
    <contour>
      <point x="617.6243093922652" y="-22.0" type="curve" smooth="yes"/>
      <point x="1053.8397790055249" y="-22.0"/>
      <point x="1189.5911602209944" y="356.97237569060775"/>
      <point x="1189.5911602209944" y="657.5801104972376" type="curve" smooth="yes"/>
      <point x="1189.5911602209944" y="1125.9779005524863"/>
      <point x="929.8563535911602" y="1431.9834254143645"/>
      <point x="587.7016574585635" y="1622.0994475138123" type="curve"/>
      <point x="561.2265193370166" y="1481.5911602209944" type="line"/>
      <point x="802.182320441989" y="1716.2265193370165" type="line"/>
      <point x="694.9281767955802" y="1799.2707182320441" type="line"/>
      <point x="443.3922651933702" y="1552.5027624309391" type="line"/>
      <point x="641.0883977900553" y="1592.4254143646408" type="line"/>
      <point x="475.76795580110496" y="1687.1657458563536"/>
      <point x="357.41988950276243" y="1714.6795580110497"/>
      <point x="238.68508287292818" y="1743.8232044198894" type="curve"/>
      <point x="190.28729281767954" y="1630.5801104972377" type="line"/>
      <point x="265.6685082872928" y="1612.7513812154696"/>
      <point x="414.3425414364641" y="1548.3812154696134"/>
      <point x="513.4640883977901" y="1472.4972375690609" type="curve"/>
      <point x="523.7016574585635" y="1623.5469613259668" type="line"/>
      <point x="268.1933701657459" y="1375.9116022099447" type="line"/>
      <point x="384.4475138121547" y="1295.6961325966852" type="line"/>
      <point x="630.8508287292818" y="1545.7403314917128" type="line"/>
      <point x="455.0110497237569" y="1503.7900552486187" type="line"/>
      <point x="658.3093922651934" y="1385.0331491712707"/>
      <point x="784.6132596685082" y="1239.7348066298343"/>
      <point x="829.878453038674" y="1056.3425414364642" type="curve"/>
      <point x="781.3922651933701" y="1088.707182320442"/>
      <point x="704.3812154696133" y="1112.0994475138123"/>
      <point x="608.7790055248619" y="1112.0994475138123" type="curve" smooth="yes"/>
      <point x="329.6353591160221" y="1112.0994475138123"/>
      <point x="70.24861878453038" y="908.011049723757"/>
      <point x="70.24861878453038" y="524.9502762430939" type="curve" smooth="yes"/>
      <point x="70.24861878453038" y="217.31491712707182"/>
      <point x="248.4254143646409" y="-22.0"/>
    </contour>
    <contour>
      <point x="634.9005524861878" y="94.58563535911603" type="curve" smooth="yes"/>
      <point x="454.2099447513812" y="94.58563535911603"/>
      <point x="396.89502762430936" y="341.0552486187845"/>
      <point x="396.89502762430936" y="554.2541436464088" type="curve" smooth="yes"/>
      <point x="396.89502762430936" y="837.7348066298342"/>
      <point x="478.0" y="999.9226519337017"/>
      <point x="635.9005524861878" y="999.9226519337017" type="curve" smooth="yes"/>
      <point x="741.5414364640884" y="999.9226519337017"/>
      <point x="816.8950276243094" y="955.4640883977901"/>
      <point x="848.9834254143647" y="911.5635359116022" type="curve"/>
      <point x="863.6022099447514" y="861.5635359116022"/>
      <point x="873.182320441989" y="726.6022099447514"/>
      <point x="873.182320441989" y="591.414364640884" type="curve" smooth="yes"/>
      <point x="873.182320441989" y="266.1325966850829"/>
      <point x="796.9723756906077" y="94.58563535911603"/>
    </contour>
  </outline>
</glyph>
<glyph name="divide" format="2">
  <advance width="1284.7955801104972"/>
  <unicode hex="00F7"/>
  <outline>
    <contour>
      <point x="629.3977900552486" y="896.0" type="curve" smooth="yes"/>
      <point x="712.3977900552486" y="896.0"/>
      <point x="773.3977900552486" y="944.0"/>
      <point x="773.3977900552486" y="1027.0" type="curve" smooth="yes"/>
      <point x="773.3977900552486" y="1090.0"/>
      <point x="728.3977900552486" y="1149.0"/>
      <point x="649.3977900552486" y="1149.0" type="curve" smooth="yes"/>
      <point x="573.3977900552486" y="1149.0"/>
      <point x="508.3977900552486" y="1093.0"/>
      <point x="508.3977900552486" y="1017.0" type="curve" smooth="yes"/>
      <point x="508.3977900552486" y="945.0"/>
      <point x="566.3977900552486" y="896.0"/>
    </contour>
    <contour>
      <point x="1104.7955801104972" y="720.0" type="line"/>
      <point x="180.0" y="720.0" type="line"/>
      <point x="180.0" y="634.0" type="line"/>
      <point x="1104.7955801104972" y="634.0" type="line"/>
    </contour>
    <contour>
      <point x="508.3977900552486" y="343.0" type="curve" smooth="yes"/>
      <point x="508.3977900552486" y="271.0"/>
      <point x="566.3977900552486" y="222.0"/>
      <point x="629.3977900552486" y="222.0" type="curve" smooth="yes"/>
      <point x="712.3977900552486" y="222.0"/>
      <point x="773.3977900552486" y="270.0"/>
      <point x="773.3977900552486" y="353.0" type="curve" smooth="yes"/>
      <point x="773.3977900552486" y="416.0"/>
      <point x="728.3977900552486" y="475.0"/>
      <point x="649.3977900552486" y="475.0" type="curve" smooth="yes"/>
      <point x="573.3977900552486" y="475.0"/>
      <point x="508.3977900552486" y="419.0"/>
    </contour>
  </outline>
</glyph>
<glyph name="oslash" format="2">
  <advance width="1151.9834254143648"/>
  <unicode hex="00F8"/>
  <anchor x="579.5303867403316" y="0.0" name="bottom"/>
  <anchor x="579.5303867403316" y="503.0" name="center"/>
  <anchor x="648.1381215469613" y="9.999999999999996" name="ogonek"/>
  <anchor x="576.4917127071824" y="1110.0" name="top"/>
  <anchor x="849.9005524861878" y="1005.0" name="topright"/>
  <outline>
    <contour>
      <point x="239.51381215469613" y="-150.8232044198895" type="line"/>
      <point x="362.09944751381215" y="-195.78453038674033" type="line"/>
      <point x="452.2817679558011" y="4.508287292817677" type="line"/>
      <point x="453.6740331491713" y="54.29834254143647" type="line"/>
      <point x="773.292817679558" y="870.6961325966851" type="line"/>
      <point x="846.756906077348" y="962.8453038674033" type="line"/>
      <point x="936.1767955801105" y="1175.8508287292818" type="line"/>
      <point x="809.6961325966851" y="1218.8121546961327" type="line"/>
      <point x="723.1712707182321" y="1009.4254143646409" type="line"/>
      <point x="722.1988950276243" y="961.0939226519337" type="line"/>
      <point x="397.37016574585635" y="138.5524861878453" type="line"/>
      <point x="326.0773480662983" y="48.469613259668506" type="line"/>
    </contour>
    <component base="o"/>
  </outline>
</glyph>
<glyph name="thorn" format="2">
  <advance width="1078.2707182320441"/>
  <unicode hex="00FE"/>
  <outline>
    <contour>
      <point x="-14.475138121546962" y="-459.37016574585635" type="line"/>
      <point x="502.2596685082873" y="-459.37016574585635" type="line"/>
      <point x="502.2596685082873" y="-421.9226519337017" type="line"/>
      <point x="377.3149171270718" y="-389.02762430939225" type="line"/>
      <point x="377.31491712707185" y="-162.8950276243094" type="line"/>
      <point x="375.10497237569064" y="8.497237569060772" type="line"/>
      <point x="404.1436464088398" y="-5.646408839779006"/>
      <point x="481.0497237569061" y="-22.0"/>
      <point x="560.1657458563536" y="-22.0" type="curve" smooth="yes"/>
      <point x="815.8618784530387" y="-22.0"/>
      <point x="1045.5745856353592" y="187.5635359116022"/>
      <point x="1045.5745856353592" y="526.7624309392265" type="curve" smooth="yes"/>
      <point x="1045.5745856353592" y="862.4861878453039"/>
      <point x="910.6298342541437" y="1042.342541436464"/>
      <point x="655.6022099447514" y="1042.342541436464" type="curve" smooth="yes"/>
      <point x="515.2099447513813" y="1042.342541436464"/>
      <point x="399.62983425414365" y="946.7900552486187"/>
      <point x="377.31491712707185" y="891.8950276243094" type="curve"/>
      <point x="380.9337016574586" y="1603.2872928176796" type="line"/>
      <point x="337.2596685082873" y="1638.7237569060774" type="line"/>
      <point x="296.98342541436466" y="1638.7237569060774" type="line"/>
      <point x="-17.723756906077348" y="1546.6519337016575" type="line"/>
      <point x="-17.723756906077348" y="1510.9668508287293" type="line"/>
      <point x="99.90607734806629" y="1471.7016574585634" type="line"/>
      <point x="100.62983425414365" y="-388.7513812154696" type="line"/>
      <point x="-14.475138121546962" y="-421.9226519337017" type="line"/>
    </contour>
    <contour>
      <point x="531.9944751381215" y="34.51381215469613" type="curve" smooth="yes"/>
      <point x="464.5911602209945" y="34.51381215469613"/>
      <point x="401.97237569060775" y="67.97237569060773"/>
      <point x="377.31491712707185" y="116.86740331491713" type="curve"/>
      <point x="377.31491712707185" y="835.0662983425415" type="line"/>
      <point x="399.6022099447514" y="861.182320441989"/>
      <point x="435.8232044198895" y="926.4033149171271"/>
      <point x="536.2265193370166" y="926.4033149171271" type="curve" smooth="yes"/>
      <point x="652.8508287292818" y="926.4033149171271"/>
      <point x="739.5469613259669" y="817.646408839779"/>
      <point x="739.5469613259668" y="485.2596685082873" type="curve" smooth="yes"/>
      <point x="739.5469613259669" y="201.1049723756906"/>
      <point x="675.0662983425415" y="34.51381215469613"/>
    </contour>
  </outline>
</glyph>
<glyph name="dcroat" format="2">
  <advance width="1148.4309392265193"/>
  <unicode hex="0111"/>
  <anchor x="519.7624309392265" y="0.0" name="bottom"/>
  <anchor x="515.0" y="576.0" name="center"/>
  <anchor x="333.0" y="1158.0" name="top"/>
  <anchor x="1287.646408839779" y="1110.7237569060774" name="topright"/>
  <outline>
    <contour>
      <point x="1179.7348066298343" y="1355.5414364640883" type="line"/>
      <point x="496.1049723756906" y="1355.5414364640883" type="line"/>
      <point x="496.1049723756906" y="1241.1823204419888" type="line"/>
      <point x="1179.7348066298343" y="1241.1823204419888" type="line"/>
    </contour>
    <component base="d"/>
  </outline>
</glyph>
